<?xml version="1.0" encoding="UTF-8" standalone="no"?>
<!-- Created with Inkscape (http://www.inkscape.org/) -->

<svg
   xmlns:dc="http://purl.org/dc/elements/1.1/"
   xmlns:cc="http://creativecommons.org/ns#"
   xmlns:rdf="http://www.w3.org/1999/02/22-rdf-syntax-ns#"
   xmlns:svg="http://www.w3.org/2000/svg"
   xmlns="http://www.w3.org/2000/svg"
   xmlns:sodipodi="http://sodipodi.sourceforge.net/DTD/sodipodi-0.dtd"
   xmlns:inkscape="http://www.inkscape.org/namespaces/inkscape"
   version="1.1"
   id="svg2"
   xml:space="preserve"
   width="128.57159"
   height="118.99413"
   viewBox="0 0 128.57159 118.99413"
   sodipodi:docname="meat.svg"
   inkscape:version="0.92.1 r15371"><metadata
     id="metadata8"><rdf:RDF><cc:Work
         rdf:about=""><dc:format>image/svg+xml</dc:format><dc:type
           rdf:resource="http://purl.org/dc/dcmitype/StillImage" /><dc:title></dc:title></cc:Work></rdf:RDF></metadata><defs
     id="defs6"><clipPath
       clipPathUnits="userSpaceOnUse"
       id="clipPath18"><path
         d="M 0,89.246 H 96.429 V 0 H 0 Z"
         id="path16"
         inkscape:connector-curvature="0" /></clipPath></defs><sodipodi:namedview
     pagecolor="#ffffff"
     bordercolor="#666666"
     borderopacity="1"
     objecttolerance="10"
     gridtolerance="10"
     guidetolerance="10"
     inkscape:pageopacity="0"
     inkscape:pageshadow="2"
     inkscape:window-width="1600"
     inkscape:window-height="837"
     id="namedview4"
     showgrid="false"
     inkscape:zoom="1.9832911"
     inkscape:cx="10.335067"
     inkscape:cy="59.497066"
     inkscape:window-x="-8"
     inkscape:window-y="-8"
     inkscape:window-maximized="1"
     inkscape:current-layer="g10" /><g
     id="g10"
     inkscape:groupmode="layer"
     inkscape:label="Vector Smart Object3"
     transform="matrix(1.3333333,0,0,-1.3333333,0,118.99413)"><g
       id="g12"><g
         id="g14"
         clip-path="url(#clipPath18)"><g
           id="g20"
           transform="translate(38.4766,84.4053)"><path
             d="M 0,0 C -0.001,0 -0.005,-0.001 -0.007,-0.001 Z"
             style="fill:#e35028;fill-opacity:1;fill-rule:nonzero;stroke:none"
             id="path22"
             inkscape:connector-curvature="0" /></g><g
           id="g24"
           transform="translate(17.7207,79.375)"><path
             d="m 0,0 c 0.049,-0.113 0.23,-0.272 0.301,-0.25 0.135,0.041 0.32,0.188 0.335,0.309 C 0.758,1.06 0.382,1.916 -0.193,2.816 -0.345,2.226 -0.818,1.832 -0.485,1.232 -0.272,0.851 -0.177,0.405 0,0"
             style="fill:#e35028;fill-opacity:1;fill-rule:nonzero;stroke:none"
             id="path26"
             inkscape:connector-curvature="0" /></g><g
           id="g28"
           transform="translate(28.1953,75.1328)"><path
             d="M 0,0 C 0.178,0.469 0.357,0.938 0.482,1.268 0.161,1.337 0.161,1.337 0.128,2.477 -0.264,2.606 -0.664,2.663 -0.564,2.065 -0.446,1.359 -0.709,1.028 -1.426,0.92 -1.03,0.741 -0.633,0.562 -0.237,0.384 -0.158,0.256 -0.079,0.128 0,0"
             style="fill:#e35028;fill-opacity:1;fill-rule:nonzero;stroke:none"
             id="path30"
             inkscape:connector-curvature="0" /></g><g
           id="g32"
           transform="translate(31.9839,77.6309)"><path
             d="m 0,0 c 0.073,-0.003 0.171,0.041 0.222,0.098 0.267,0.301 0.086,1.386 -0.22,1.671 -0.154,0.144 -0.235,0.386 -0.3,0.6 -0.046,0.15 -0.009,0.325 -0.009,0.488 -0.08,-0.002 -0.16,-0.003 -0.239,-0.005 V 1.183 C -0.444,0.896 -0.312,0.514 -0.167,0.137 -0.144,0.076 -0.06,0.003 0,0"
             style="fill:#e35028;fill-opacity:1;fill-rule:nonzero;stroke:none"
             id="path34"
             inkscape:connector-curvature="0" /></g><g
           id="g36"
           transform="translate(32.2173,76.7339)"><path
             d="M 0,0 C -0.639,-0.204 -0.378,0.521 -0.534,0.591 -0.866,0.159 -1.16,-0.223 -1.453,-0.605 -1.435,-0.65 -1.416,-0.694 -1.397,-0.739 -0.932,-0.493 -0.466,-0.246 0,0"
             style="fill:#e35028;fill-opacity:1;fill-rule:nonzero;stroke:none"
             id="path38"
             inkscape:connector-curvature="0" /></g><g
           id="g40"
           transform="translate(21.2266,70.4917)"><path
             d="M 0,0 C -0.038,0.397 -0.012,0.817 -0.092,0.838 -0.381,0.916 -0.706,0.859 -1.017,0.852 -1.012,0.789 -1.007,0.727 -1.002,0.664 -0.738,0.488 -0.473,0.313 0,0"
             style="fill:#e35028;fill-opacity:1;fill-rule:nonzero;stroke:none"
             id="path42"
             inkscape:connector-curvature="0" /></g><g
           id="g44"
           transform="translate(28.4268,72.9043)"><path
             d="m 0,0 c -0.028,0.084 -0.056,0.168 -0.084,0.253 -0.571,-0.165 -1.142,-0.33 -1.712,-0.495 0.035,-0.105 0.07,-0.21 0.105,-0.315 C -1.127,-0.371 -0.563,-0.186 0,0"
             style="fill:#e35028;fill-opacity:1;fill-rule:nonzero;stroke:none"
             id="path46"
             inkscape:connector-curvature="0" /></g><g
           id="g48"
           transform="translate(31.3462,68.4878)"><path
             d="M 0,0 C 0.202,1.055 0,1.443 -0.587,1.341 -0.48,1.111 -0.371,0.885 -0.271,0.655 -0.176,0.439 -0.09,0.218 0,0"
             style="fill:#e35028;fill-opacity:1;fill-rule:nonzero;stroke:none"
             id="path50"
             inkscape:connector-curvature="0" /></g><g
           id="g52"
           transform="translate(23.3647,71.085)"><path
             d="M 0,0 C 0.009,0.087 0.019,0.173 0.028,0.26 -0.438,0.289 -0.905,0.319 -1.372,0.349 -1.38,0.267 -1.389,0.186 -1.397,0.104 -0.958,-0.157 -0.474,-0.032 0,0"
             style="fill:#e35028;fill-opacity:1;fill-rule:nonzero;stroke:none"
             id="path54"
             inkscape:connector-curvature="0" /></g><g
           id="g56"
           transform="translate(19.4355,74.2749)"><path
             d="M 0,0 C 0.023,0.036 -0.202,0.229 -0.294,0.331 -0.495,-0.148 -0.65,-0.518 -0.815,-0.911 -0.102,-1.003 -0.216,-0.337 0,0"
             style="fill:#e35028;fill-opacity:1;fill-rule:nonzero;stroke:none"
             id="path58"
             inkscape:connector-curvature="0" /></g><g
           id="g60"
           transform="translate(75.7764,45.2012)"><path
             d="m 0,0 c -1.027,-0.405 -1.219,-2.363 -0.427,-4.377 0.793,-2.012 2.269,-3.314 3.296,-2.91 1.028,0.404 1.22,2.363 0.427,4.376 C 2.503,-0.898 1.028,0.405 0,0"
             style="fill:#e35028;fill-opacity:1;fill-rule:nonzero;stroke:none"
             id="path62"
             inkscape:connector-curvature="0" /></g><g
           id="g64"
           transform="translate(85.9375,36.2402)"><path
             d="M 0,0 C 0.99,0.389 1.951,0.768 2.959,1.164 2.359,3.932 1.504,6.598 0.387,9.152 0.25,8.834 0.116,8.521 -0.018,8.208 c -0.554,0.691 -1.339,1.302 -1.611,2.09 -0.4,1.172 -0.437,2.467 -0.637,3.747 0.041,-0.003 0.077,-0.013 0.118,-0.017 -0.503,0.827 -1.036,1.641 -1.601,2.441 -0.243,-0.304 -0.481,-0.602 -0.744,-0.93 0.244,-0.235 0.624,-0.601 1.499,-1.444 -0.932,-0.167 -1.782,-0.32 -2.603,-0.467 C -2.825,9.458 -0.939,4.914 0,0"
             style="fill:#e35028;fill-opacity:1;fill-rule:nonzero;stroke:none"
             id="path66"
             inkscape:connector-curvature="0" /></g><g
           id="g68"
           transform="translate(73.6299,60.6367)"><path
             d="m 0,0 c -4.239,2.097 -7.98,0.293 -9.346,-4.169 -3.015,-9.861 5.682,-30.517 14.91,-35.409 4.232,-2.242 7.933,-0.943 10.102,4.42 0.121,1.253 0.692,3.572 0.507,5.832 -0.143,1.76 -0.381,3.484 -0.709,5.173 -1.016,-0.887 -2.002,-1.339 -2.957,-1.367 0.281,-1.761 0.44,-3.572 0.477,-5.427 0.05,-0.178 0.101,-0.356 0.162,-0.51 -0.053,0.004 -0.098,0.006 -0.151,0.01 -0.002,-1.923 -0.927,-4.756 -2.291,-5.45 -1.328,-0.674 -4.39,0.318 -5.68,1.596 -7.786,7.723 -12.024,17.133 -11.598,28.229 0.07,1.815 0.516,3.11 1.282,3.891 -0.414,0.395 -0.823,0.789 -1.24,1.186 1.071,0.653 1.916,0.542 2.579,-0.41 0.972,0.245 2.188,0.054 3.614,-0.585 0.513,-0.409 1.516,-1.037 2.308,-1.867 0.894,-0.939 1.736,-1.901 2.527,-2.886 0.658,0.485 1.681,0.768 3.232,0.958 C 7.037,-5.875 6.306,-4.983 5.53,-4.112 4.029,-2.425 2.033,-1.006 0,0"
             style="fill:#e35028;fill-opacity:1;fill-rule:nonzero;stroke:none"
             id="path70"
             inkscape:connector-curvature="0" /></g><g
           id="g72"
           transform="translate(52.9004,46.6836)"><path
             d="m 0,0 c 0.029,-0.125 0.06,-0.249 0.09,-0.374 0.611,0.077 1.222,0.157 1.834,0.235 C 1.784,0.087 1.645,0.312 1.504,0.539 1.003,0.36 0.502,0.179 0,0"
             style="fill:#e35028;fill-opacity:1;fill-rule:nonzero;stroke:none"
             id="path74"
             inkscape:connector-curvature="0" /></g><g
           id="g76"
           transform="translate(40.5938,34.3447)"><path
             d="m 0,0 c -0.063,0.173 -0.346,0.263 -0.467,0.347 -0.846,-0.59 -1.217,-1.317 -1.041,-1.978 0.049,-0.186 0.347,-0.472 0.475,-0.444 C -0.446,-1.952 0.222,-0.601 0,0"
             style="fill:#e35028;fill-opacity:1;fill-rule:nonzero;stroke:none"
             id="path78"
             inkscape:connector-curvature="0" /></g><g
           id="g80"
           transform="translate(19.6201,28.0908)"><path
             d="M 0,0 C 0.175,-0.075 0.457,0.015 0.65,0.108 0.728,0.147 0.736,0.409 0.711,0.558 0.63,1.038 0.52,1.513 0.393,2.119 0.102,1.808 -0.096,1.608 -0.28,1.397 -0.641,0.983 -0.509,0.216 0,0"
             style="fill:#e35028;fill-opacity:1;fill-rule:nonzero;stroke:none"
             id="path82"
             inkscape:connector-curvature="0" /></g><g
           id="g84"
           transform="translate(10.6519,26.7129)"><path
             d="M 0,0 C 0.228,-0.166 0.46,-0.33 0.859,-0.617 0.722,0.683 0.307,1.182 -0.639,1.361 -0.771,1.387 -1.015,1.278 -1.063,1.166 -1.114,1.053 -1.039,0.809 -0.935,0.713 -0.648,0.451 -0.317,0.233 0,0"
             style="fill:#e35028;fill-opacity:1;fill-rule:nonzero;stroke:none"
             id="path86"
             inkscape:connector-curvature="0" /></g><g
           id="g88"
           transform="translate(28.4922,19.5684)"><path
             d="M 0,0 C -0.01,0.261 0.081,0.627 -0.055,0.757 -0.245,0.939 -0.604,0.944 -0.89,1.025 -0.95,0.922 -1.009,0.816 -1.068,0.714 -0.754,0.396 -0.44,0.08 -0.127,-0.236 -0.085,-0.157 -0.042,-0.079 0,0"
             style="fill:#e35028;fill-opacity:1;fill-rule:nonzero;stroke:none"
             id="path90"
             inkscape:connector-curvature="0" /></g><g
           id="g92"
           transform="translate(24.3711,33.123)"><path
             d="m 0,0 c -0.025,-0.103 0.199,-0.384 0.275,-0.371 0.193,0.032 0.421,0.145 0.531,0.3 0.14,0.2 0.179,0.471 0.258,0.703 C 0.829,0.593 0.561,0.605 0.358,0.498 0.191,0.408 0.045,0.187 0,0"
             style="fill:#e35028;fill-opacity:1;fill-rule:nonzero;stroke:none"
             id="path94"
             inkscape:connector-curvature="0" /></g><g
           id="g96"
           transform="translate(45.0435,39.3115)"><path
             d="M 0,0 0.411,-0.53 10.264,11.04 8.488,12.706 8.205,12.611 C 2.769,10.778 0.406,6.148 -1.177,1.907 L -1.274,1.646 -0.549,0.71 H -0.55 C -0.363,0.263 -0.202,0.041 0,0"
             style="fill:#e35028;fill-opacity:1;fill-rule:nonzero;stroke:none"
             id="path98"
             inkscape:connector-curvature="0" /></g><g
           id="g100"
           transform="translate(58.3242,17.5527)"><path
             d="m 0,0 c -0.531,-0.069 -1.061,-0.138 -1.592,-0.207 -0.164,0.083 -0.329,0.165 -0.494,0.249 0.116,-0.607 0.232,-1.212 0.315,-1.639 0.38,0.136 0.38,0.136 1.152,-1.035 0.492,0.118 0.947,0.319 0.457,0.877 C -0.742,-1.092 -0.681,-0.576 0,0"
             style="fill:#e35028;fill-opacity:1;fill-rule:nonzero;stroke:none"
             id="path102"
             inkscape:connector-curvature="0" /></g><g
           id="g104"
           transform="translate(56.2188,31.376)"><path
             d="M 0,0 C 0.249,-0.023 0.729,0.19 1.071,0.378 1.208,0.453 1.322,0.772 1.338,0.942 1.392,1.491 1.395,2.023 1.423,2.708 0.844,2.221 0.455,1.906 0.084,1.581 -0.645,0.946 -0.727,0.068 0,0"
             style="fill:#e35028;fill-opacity:1;fill-rule:nonzero;stroke:none"
             id="path106"
             inkscape:connector-curvature="0" /></g><g
           id="g108"
           transform="translate(40.9771,27.7246)"><path
             d="m 0,0 c -0.2,-0.02 -0.627,-0.244 -0.747,-0.396 -0.124,-0.157 -0.097,-0.422 0.031,-0.5 0.357,-0.208 0.799,-0.345 1.214,-0.506 0.298,-0.116 0.605,-0.225 1.128,-0.42 C 1.901,-0.307 1.432,0.141 0,0"
             style="fill:#e35028;fill-opacity:1;fill-rule:nonzero;stroke:none"
             id="path110"
             inkscape:connector-curvature="0" /></g><g
           id="g112"
           transform="translate(41.605,21.9941)"><path
             d="M 0,0 C 0.485,0.947 0.485,0.947 -0.847,1.172 -1.139,-0.091 -1.139,-0.091 0,0"
             style="fill:#e35028;fill-opacity:1;fill-rule:nonzero;stroke:none"
             id="path114"
             inkscape:connector-curvature="0" /></g><g
           id="g116"
           transform="translate(54.8086,19.5645)"><path
             d="M 0,0 C 0.49,0.54 0.979,1.081 1.47,1.623 L 1.156,1.884 C 0.687,1.325 0.217,0.769 -0.252,0.21 -0.168,0.14 -0.084,0.069 0,0"
             style="fill:#e35028;fill-opacity:1;fill-rule:nonzero;stroke:none"
             id="path118"
             inkscape:connector-curvature="0" /></g><g
           id="g120"
           transform="translate(65.1064,25.627)"><path
             d="M 0,0 C -0.806,-0.363 -0.255,-0.985 -0.264,-1.479 -0.265,-1.529 0.095,-1.588 0.259,-1.635 0.158,-1.003 0.081,-0.516 0,0"
             style="fill:#e35028;fill-opacity:1;fill-rule:nonzero;stroke:none"
             id="path122"
             inkscape:connector-curvature="0" /></g><g
           id="g124"
           transform="translate(83.958,12.5459)"><path
             d="M 0,0 C -0.457,0.151 -0.842,0.279 -1.228,0.406 -0.874,-0.435 -0.618,-0.499 0,0"
             style="fill:#e35028;fill-opacity:1;fill-rule:nonzero;stroke:none"
             id="path126"
             inkscape:connector-curvature="0" /></g><g
           id="g128"
           transform="translate(58.3027,8.4121)"><path
             d="m 0,0 c 0.601,-0.187 1.201,-0.375 1.801,-0.561 0.022,0.082 0.045,0.165 0.066,0.247 C 1.26,-0.146 0.652,0.02 0.045,0.187 0.03,0.125 0.016,0.062 0,0"
             style="fill:#e35028;fill-opacity:1;fill-rule:nonzero;stroke:none"
             id="path130"
             inkscape:connector-curvature="0" /></g><g
           id="g132"
           transform="translate(51.3535,8.6309)"><path
             d="M 0,0 C 0.012,0.261 0.021,0.503 0.043,0.995 -0.461,0.619 -0.778,0.38 -1.026,0.192 -0.671,0.126 -0.352,0.065 0,0"
             style="fill:#e35028;fill-opacity:1;fill-rule:nonzero;stroke:none"
             id="path134"
             inkscape:connector-curvature="0" /></g><g
           id="g136"
           transform="translate(94.9443,27.3252)"><path
             d="M 0,0 C -0.056,0.004 -0.138,0.169 -0.14,0.261 -0.149,0.597 -0.091,0.937 -0.13,1.265 -0.194,1.781 0.251,1.923 0.524,2.296 0.673,1.499 0.694,0.79 0.323,0.121 0.278,0.04 0.107,-0.011 0,0 m -0.203,-6.982 c -0.243,0.355 -0.38,0.553 -0.516,0.753 0.015,0.044 0.029,0.09 0.044,0.136 0.221,-0.083 0.465,-0.136 0.646,-0.272 0.05,-0.038 -0.088,-0.324 -0.174,-0.617 m -1.014,2.762 c 0.228,0.229 0.441,0.444 0.72,0.724 0.035,-0.097 0.137,-0.298 0.112,-0.316 -0.249,-0.175 -0.356,-0.677 -0.832,-0.408 M -1.588,9.931 C -1.114,9.807 -1.053,9.655 -1.344,9.173 -1.42,9.411 -1.497,9.649 -1.588,9.931 m -3.013,-18.81 c -0.465,0.479 -0.941,0.531 -1.396,0.196 -0.081,-0.059 -0.104,-0.207 -0.143,-0.316 -0.124,-0.344 -0.246,-0.689 -0.363,-1.034 -0.053,-0.161 -0.094,-0.328 -0.154,-0.54 -0.439,0.177 -0.873,0.353 -1.307,0.528 0.009,0.045 0.018,0.09 0.026,0.131 0.18,-0.032 0.365,-0.05 0.539,-0.104 0.233,-0.072 0.412,-0.087 0.48,0.213 0.012,0.056 0.116,0.092 0.179,0.138 0.063,0.045 0.184,0.095 0.18,0.135 -0.006,0.096 -0.054,0.202 -0.117,0.277 -0.115,0.143 -0.252,0.268 -0.381,0.401 0.037,0.034 0.075,0.067 0.112,0.099 0.108,-0.101 0.217,-0.202 0.443,-0.414 -0.291,0.747 0.376,0.725 0.605,1.038 0.417,0.569 0.7,-0.374 1.215,-0.087 -0.06,0.193 -0.129,0.413 -0.199,0.633 0.032,0.03 0.065,0.061 0.098,0.09 0.097,-0.112 0.217,-0.212 0.287,-0.341 0.1,-0.185 0.233,-0.393 0.225,-0.586 -0.007,-0.153 -0.207,-0.298 -0.329,-0.457 M -32.953,9.63 c 0.009,-0.024 0.021,-0.047 0.037,-0.072 -0.019,0.009 -0.037,0.02 -0.056,0.031 0.006,0.014 0.013,0.027 0.019,0.041 m 23.006,17.725 c -0.099,0.849 -0.191,1.645 -0.313,2.685 0.261,-0.085 0.845,-0.206 0.839,-0.286 -0.047,-0.806 0.817,-1.858 -0.526,-2.399 M -61.853,-9.209 c 0.583,-0.025 1.182,0.298 1.773,0.469 0.041,-0.115 0.082,-0.231 0.122,-0.346 -0.762,-0.208 -1.531,-0.418 -2.327,-0.635 -0.051,0.106 -0.073,0.225 -0.026,0.356 0.032,0.09 0.047,0.165 0.054,0.233 0.134,-0.043 0.269,-0.071 0.404,-0.077 m -5.654,-5.211 c -0.19,0.85 0.192,1.333 1.213,1.41 -0.502,-0.454 -0.23,-1.425 -1.213,-1.41 m 3.808,4.098 c 0.036,0.012 0.063,0.017 0.1,0.03 -0.006,-0.014 -0.017,-0.025 -0.024,-0.039 z m -9.205,-2.542 c -0.515,-0.413 -1.032,-0.825 -1.546,-1.238 -0.033,0.051 -0.067,0.101 -0.101,0.152 0.071,0.138 0.143,0.281 0.213,0.423 -0.531,-0.266 -1.055,-0.547 -1.563,-0.851 -0.548,-0.327 -1.075,-0.776 -1.557,-1.287 -0.007,-0.037 -0.013,-0.074 -0.02,-0.111 -0.014,0.015 -0.028,0.03 -0.043,0.047 -0.942,-1.02 -1.688,-2.294 -1.967,-3.48 -0.755,-3.2 -2.123,-4.494 -4.264,-3.83 -0.921,0.286 -1.672,1.873 -2.334,3.273 -0.255,0.538 -0.506,1.068 -0.766,1.536 -0.761,1.371 -1.356,2.764 -1.767,4.141 -0.148,0.492 -0.34,1.021 -0.536,1.558 -0.535,1.464 -1.141,3.123 -0.695,3.984 0.373,0.724 0.86,1.207 1.443,1.437 1.337,0.526 3.029,-0.297 4.214,-1.08 0.586,-0.387 1.33,-0.665 2.127,-0.839 -0.582,-0.302 -1.339,-0.352 -1.783,-0.976 0.382,0.142 0.778,0.255 1.141,0.437 0.297,0.147 0.528,0.365 0.787,-0.067 0.258,-0.43 0.537,-0.293 0.808,0.033 0.264,0.316 0.382,0.614 0.313,0.908 0.075,0.144 0.151,0.288 0.226,0.431 0.078,-0.029 0.156,-0.06 0.233,-0.091 -0.05,-0.037 -0.105,-0.069 -0.144,-0.116 0.16,-0.021 0.308,-0.042 0.463,-0.062 -0.064,-0.235 -0.128,-0.47 -0.192,-0.704 0.679,0.001 1.345,0.074 1.941,0.249 1.678,0.492 3.716,1.363 5.594,2.203 1.494,0.668 3.036,1.356 4.597,1.883 0.757,0.255 1.976,0.081 2.839,-0.349 -0.097,0.245 -0.194,0.491 -0.291,0.738 0.11,-0.042 0.222,-0.086 0.332,-0.128 l 0.183,0.191 c 0.165,-0.185 0.354,-0.348 0.532,-0.52 0.163,0.224 0.373,0.428 0.476,0.677 0.106,0.258 0.107,0.559 0.174,0.961 0.295,-0.425 0.518,-0.744 0.721,-1.034 -0.777,-0.97 0.585,-0.715 0.63,-1.277 -0.088,-0.053 -0.226,-0.138 -0.389,-0.237 0.168,-0.361 0.602,-0.767 -0.06,-1.056 -0.245,0.306 -0.467,0.583 -0.689,0.859 -0.102,-0.049 -0.205,-0.098 -0.308,-0.147 0.107,-0.444 0.094,-0.987 0.356,-1.3 0.221,-0.264 0.761,-0.261 1.216,-0.393 0.038,-0.65 -0.554,-0.322 -0.94,-0.499 -0.379,0.11 -0.779,0.206 -1.255,0.333 0.03,-0.356 0.076,-0.667 0.076,-0.965 -0.081,-0.049 -0.172,-0.101 -0.25,-0.149 -0.224,-0.135 -0.426,-0.252 -0.634,-0.375 -0.005,0.005 -0.011,0.008 -0.015,0.012 -0.269,0.303 -0.509,0.633 -0.76,0.95 -0.055,-0.045 -0.11,-0.089 -0.165,-0.134 0.155,-0.469 0.285,-0.837 0.428,-1.123 -0.29,-0.16 -0.574,-0.313 -0.86,-0.44 -0.134,-0.058 -0.273,-0.114 -0.408,-0.173 0.49,0.089 0.981,0.176 1.466,0.288 0.042,-0.054 0.09,-0.094 0.137,-0.136 -0.575,-0.088 -1.15,-0.184 -1.739,-0.209 -0.842,-0.36 -1.7,-0.709 -2.538,-1.041 -1.075,-0.427 -2.167,-0.864 -3.242,-1.347 0.049,0.016 0.095,0.028 0.155,0.06 m -5.717,-6.68 c -0.067,0.12 -0.135,0.239 -0.203,0.362 0.663,0.335 1.327,0.671 1.99,1.011 0.054,-0.099 0.109,-0.196 0.163,-0.293 -0.65,-0.359 -1.301,-0.721 -1.95,-1.08 m -7.733,-2.993 c -0.02,0.075 -0.041,0.151 -0.061,0.229 0.381,0.08 0.768,0.227 1.141,0.199 0.103,-0.008 0.169,-0.529 0.309,-1.011 -0.655,0.275 -1.022,0.428 -1.389,0.583 m -2.489,2.343 c 0.11,0.522 0.215,1.01 0.349,1.65 0.139,-0.104 0.46,-0.291 0.44,-0.338 -0.188,-0.467 0.111,-1.26 -0.789,-1.312 m -2.086,6.947 c -0.082,-0.044 -0.342,0.11 -0.428,0.238 -0.313,0.456 -0.535,0.982 -0.886,1.403 -0.55,0.659 -0.06,1.254 -0.012,2.016 0.918,-0.973 1.582,-1.938 1.665,-3.198 0.011,-0.152 -0.182,-0.376 -0.339,-0.459 m 13.318,8.151 c 0.504,-0.396 1.007,-0.793 1.511,-1.189 -0.038,-0.055 -0.075,-0.109 -0.112,-0.163 -0.517,0.381 -1.034,0.761 -1.551,1.14 0.052,0.072 0.102,0.141 0.152,0.212 m 12.111,1.255 c -0.003,0.001 -0.006,0.003 -0.009,0.004 0.001,0.001 0.003,0.002 0.004,0.003 0.002,-0.002 0.004,-0.004 0.005,-0.007 m 0.959,3.371 c 0.275,-0.417 0.437,-0.656 0.593,-0.9 0.216,-0.336 0.452,-0.662 0.63,-1.018 0.064,-0.129 0.046,-0.388 -0.043,-0.478 -0.088,-0.088 -0.359,-0.103 -0.476,-0.03 -0.834,0.514 -1.047,1.141 -0.704,2.426 m 1.049,3.182 c 0.661,-0.428 0.661,-0.428 0.339,-1.471 -0.732,0.81 -0.732,0.81 -0.339,1.471 m 47.11,34.791 c -0.021,-0.227 -0.158,-0.511 -0.305,-0.664 -0.101,-0.11 -0.576,-0.006 -0.771,0.141 -0.711,0.534 -1.318,1.218 -2.065,1.675 -0.33,0.202 -0.525,0.441 -0.653,0.702 -2.858,1.002 -6.934,1.46 -10.011,0.272 l -0.407,-0.159 c -13.352,-5.257 -22.478,-13.608 -27.899,-25.529 -0.96,-2.11 -1.996,-4.209 -3.181,-6.194 0.24,-0.004 0.482,-0.013 0.723,-0.016 -0.284,-0.187 -0.585,-0.248 -0.889,-0.263 -2.709,-4.465 -6.206,-8.319 -11.381,-10.358 -1.17,-0.46 -2.42,-0.823 -3.715,-1.079 -1.437,-0.283 -4.129,-0.624 -6.334,0.126 -0.087,0.173 -0.319,0.296 -0.837,0.559 0.007,-0.113 0.014,-0.209 0.021,-0.301 -3.88,1.289 -6.789,0.599 -8.956,-2.124 -2.578,-3.239 -2.535,-6.777 0.124,-10.23 0.949,-1.233 1.615,-2.724 1.782,-3.992 0.563,-4.307 3.031,-6.84 7.136,-7.327 3.995,-0.475 6.835,1.563 8.252,5.925 0.376,1.153 0.98,2.752 1.89,3.302 8.807,5.333 17.518,6.339 25.977,3.032 -0.078,-0.366 0.083,-0.818 -0.105,-1.189 0.53,0.25 0.805,0.552 0.854,0.902 0.638,-0.262 1.276,-0.51 1.915,-0.742 0.026,0.639 0.093,1.281 0.016,1.906 -0.121,0.98 0.493,1.423 1.097,1.986 l -0.065,0.022 c -2.474,0.804 -5.033,1.636 -7.626,2.137 l -0.53,0.102 c -7.392,1.424 -7.392,1.424 -9.713,7.974 -0.336,0.949 0.238,2.565 0.831,3.66 1.788,3.3 3.719,6.597 5.586,9.787 0.692,1.182 1.384,2.363 2.071,3.548 1.097,1.893 2.282,3.648 3.55,5.295 -0.317,0.155 -0.647,0.317 -1.019,0.498 0.208,0.168 0.611,0.58 0.673,0.533 0.237,-0.172 0.57,-0.259 0.878,-0.372 1.515,1.891 3.145,3.641 4.939,5.24 0.1,0.824 0.203,1.648 0.298,2.471 0.168,-0.028 0.335,-0.055 0.502,-0.083 0.005,-0.571 0.08,-1.155 0.004,-1.712 1.949,1.654 4.054,3.172 6.374,4.556 -0.765,-5.886 -0.644,-11.381 0.352,-16.519 0.307,0.338 0.637,0.682 1.021,0.793 0.376,0.109 0.893,-0.256 1.379,-0.42 -0.777,-1.52 -0.512,-2.715 0.672,-3.545 0.212,-0.146 0.584,-0.08 0.883,-0.085 0.341,-0.007 0.68,-0.005 1.022,-0.01 -1.627,4.965 -2.163,10.056 -1.573,15.235 0.205,1.801 0.647,3.402 1.282,4.768 -0.022,0.096 -0.047,0.194 -0.079,0.287 0.12,0.094 0.258,0.202 0.394,0.308 0.268,0.498 0.561,0.96 0.884,1.381 -0.042,0.389 -0.35,0.75 -0.93,1.053 -0.516,0.267 -1.04,0.525 -1.587,0.708 -0.973,0.327 -0.981,0.841 -0.358,1.644 0.967,-1.419 1.989,-2.268 3.696,-1.762 0.272,0.082 0.514,0.019 0.694,-0.13 0.53,0.405 1.09,0.754 1.704,0.996 3.004,1.182 6.716,0.197 10.184,-2.703 10.96,-9.167 15.76,-20.904 14.268,-34.885 -0.437,-4.079 -2.147,-6.819 -4.947,-7.921 -2.496,-0.983 -5.822,-0.622 -9.621,1.041 -0.398,0.387 -0.91,0.844 -1.492,1.362 -1.646,1.468 -3.902,3.478 -5.668,5.813 -2.945,3.894 -5.141,7.899 -6.586,11.993 -0.086,-0.083 -0.166,-0.173 -0.224,-0.269 -0.069,-0.108 -0.125,-0.224 -0.187,-0.337 -0.157,-0.015 -0.313,-0.035 -0.444,-0.104 -0.051,-0.027 -0.092,-0.082 -0.136,-0.129 0.105,0.235 0.232,0.517 0.415,0.92 -1.57,-1.318 -2.064,0.316 -3.012,0.613 -1.72,0.539 0.329,2.003 -0.789,3.016 -0.212,-0.154 -0.439,-0.322 -0.675,-0.494 0.544,-2.534 1.286,-4.987 2.269,-7.346 0.177,-0.049 0.336,-0.113 0.444,-0.211 0.113,-0.102 0.096,-0.482 10e-4,-0.764 2.158,-4.82 5.269,-9.273 9.31,-13.397 -0.076,0.059 -0.15,0.124 -0.229,0.18 -0.125,0.086 -0.417,0.134 -0.477,0.067 -0.113,-0.132 -0.213,-0.403 -0.149,-0.54 0.518,-1.126 1.465,-1.778 2.647,-2.348 -0.112,0.36 -0.108,0.719 -0.168,1.04 1.387,-1.304 2.857,-2.58 4.445,-3.815 -7.755,-2.089 -14.852,-2.115 -22.103,-0.128 0.023,0.233 0.047,0.465 0.07,0.692 -0.049,0.036 -0.096,0.069 -0.146,0.104 -0.129,-0.222 -0.259,-0.443 -0.389,-0.664 -0.453,0.13 -0.904,0.239 -1.36,0.385 l -0.788,0.253 c 0.208,-1.481 0.168,-2.844 -0.403,-4.142 7.225,-2.378 14.58,-2.879 22.225,-1.502 -0.003,0.005 -0.006,0.012 -0.008,0.017 0.123,0.048 0.246,0.096 0.367,0.144 0.01,-0.029 0.022,-0.059 0.031,-0.089 2.544,0.479 5.12,1.158 7.735,2.053 -0.073,0.009 -0.139,0.018 -0.219,0.027 0.64,0.71 1.127,1.28 1.651,1.821 0.161,0.166 0.496,0.393 0.615,0.332 0.292,-0.155 0.66,-0.423 0.726,-0.71 0.037,-0.155 0.028,-0.308 0,-0.457 0.002,10e-4 0.004,10e-4 0.005,0.002 0.689,0.271 1.378,0.556 2.065,0.853 2.291,0.99 4.236,2.774 6.116,4.5 0.843,0.773 1.714,1.572 2.597,2.279 l 0.117,0.095 0.047,0.144 c 4.618,14.433 -4.16,36.731 -16.617,44.49"
             style="fill:#e35028;fill-opacity:1;fill-rule:nonzero;stroke:none"
             id="path138"
             inkscape:connector-curvature="0" /></g><g
           id="g140"
           transform="translate(32.0825,59.4863)"><path
             d="M 0,0 C 0.156,-0.069 -0.105,-0.794 0.534,-0.591 0.068,-0.837 -0.397,-1.083 -0.863,-1.33 -0.882,-1.285 -0.9,-1.241 -0.919,-1.196 -0.625,-0.814 -0.332,-0.432 0,0 m -0.246,3.158 c 0.08,0.002 0.16,0.004 0.24,0.006 C -0.006,3 -0.043,2.825 0.002,2.675 0.067,2.461 0.148,2.219 0.303,2.075 0.608,1.79 0.79,0.705 0.522,0.404 0.472,0.347 0.374,0.303 0.301,0.306 0.241,0.309 0.157,0.382 0.134,0.443 -0.012,0.82 -0.143,1.203 -0.246,1.489 Z M -8.291,-5.98 C -8.3,-6.066 -8.309,-6.153 -8.318,-6.24 -8.717,-6.267 -9.122,-6.346 -9.502,-6.219 l 0.369,-0.626 c 0.071,-0.223 0.281,-0.849 0.497,-1.141 l -0.004,-0.003 0.788,-1.101 0.346,-0.424 c 1.129,-1.266 2.626,-2.045 4.712,-2.45 1.172,-0.23 2.083,-0.519 2.927,-0.935 l 0.309,-0.107 c 0.363,-0.079 0.631,-0.198 0.845,-0.372 l 0.97,-0.431 0.173,0.511 c 0.091,0.269 0.243,0.528 0.404,0.803 0.244,0.414 0.496,0.843 0.592,1.379 l 0.056,0.31 -0.256,0.184 c -1.081,0.777 -2.304,1.143 -3.487,1.496 -0.33,0.099 -0.66,0.197 -0.984,0.304 -0.058,0.019 -0.116,0.037 -0.175,0.055 0.259,0.252 0.497,0.517 0.712,0.802 -0.071,0.156 -0.143,0.312 -0.216,0.469 0.198,0.035 0.349,0.008 0.459,-0.077 0.077,0.129 0.171,0.241 0.236,0.384 0.25,0.553 0.424,1.114 0.536,1.741 1.09,-1.032 2.422,-1.911 4.149,-1.911 0.415,0 0.846,0.052 1.282,0.156 l 0.154,0.036 0.105,0.119 c 1.152,1.303 2.225,2.688 3.19,4.113 L 9.278,-2.8 9.272,-2.637 c -0.042,1.233 -0.478,2.303 -1.004,3.386 1.398,-0.212 2.735,-0.037 4.101,0.545 2.024,0.864 3.344,2.338 3.924,4.38 0.103,0.363 0.185,0.718 0.246,1.065 l 0.235,0.266 -0.202,-0.068 c 0.308,2 -0.089,3.746 -1.199,5.308 -0.255,0.359 -0.549,0.686 -0.901,0.998 l -2.62,1.214 -0.781,-1.609 c -0.345,0.404 -0.67,0.787 -0.797,1.224 L 10.145,14.461 9.738,14.41 c -0.794,-0.099 -1.479,0.018 -2.017,0.401 0.666,-0.034 1.303,0.012 1.919,0.134 l 0.442,0.088 -0.041,0.449 c -0.026,0.27 -0.045,0.542 -0.064,0.816 -0.011,0.144 -0.021,0.289 -0.032,0.434 0.678,-0.133 1.322,-0.349 1.952,-0.655 l 0.27,-0.131 0.243,0.178 c 1.045,0.761 1.706,1.798 2.194,2.811 0.054,-0.099 0.104,-0.2 0.156,-0.303 0.088,-0.177 0.176,-0.351 0.278,-0.514 1.382,-2.186 3.3,-3.39 5.403,-3.39 1.408,0 2.844,0.557 4.152,1.61 0.576,0.466 0.922,1.08 1.223,1.702 0.404,-1.082 0.605,-1.987 0.642,-2.844 0.081,-1.954 0.668,-3.77 1.799,-5.551 l 0.198,-0.312 0.628,0.171 c 0.758,0.204 1.542,0.415 2.279,0.816 l 0.526,0.286 -0.377,0.467 c -1.045,1.293 -1.549,2.484 -1.582,3.739 l 0.048,0.042 -0.058,0.423 c 0.057,0.827 -0.161,1.58 -0.374,2.312 l -0.038,0.094 c -0.107,0.205 -0.144,0.332 -0.132,0.451 l 0.011,0.107 -0.033,0.102 c -0.069,0.21 -0.123,0.423 -0.176,0.636 -0.11,0.436 -0.223,0.886 -0.457,1.328 l -0.115,0.221 c -0.644,1.227 -1.309,2.495 -2.295,3.575 l -0.178,0.124 c -0.082,0.034 -0.154,0.114 -0.318,0.362 -0.739,0.801 -1.776,1.767 -3.217,2.14 l -0.683,0.197 c -0.17,0.021 -0.34,0.045 -0.51,0.069 -0.611,0.088 -1.209,0.183 -1.922,0.116 L 19.07,27.064 18.692,27 l -0.883,-0.564 0.617,-0.43 c 0.11,-0.076 0.23,-0.137 0.35,-0.197 0.157,-0.078 0.257,-0.129 0.306,-0.201 l 0.074,-0.084 c 0.293,-0.266 0.61,-0.473 0.918,-0.673 0.273,-0.18 0.533,-0.349 0.763,-0.551 1.012,-0.885 1.661,-1.953 1.98,-3.265 0.268,-1.102 -0.023,-1.917 -0.866,-2.423 -1.14,-0.683 -2.157,-0.633 -3.03,0.174 -1.146,1.057 -1.902,2.446 -2.311,4.249 -0.116,0.512 -0.232,1.106 -0.139,1.674 l 0.024,0.144 -0.198,0.464 c -0.453,1.08 -0.922,2.197 -2.107,2.893 -0.217,0.126 -0.418,0.271 -0.619,0.415 -0.495,0.353 -1.056,0.754 -1.836,0.908 -0.63,0.123 -1.239,0.142 -1.828,0.16 -0.337,0.01 -0.673,0.02 -0.956,0.043 C 8.397,29.852 7.868,29.513 7.57,29.264 7.348,29.079 7.242,28.868 7.254,28.638 7.273,28.293 7.541,28.117 7.7,28.011 7.712,28.003 7.725,27.995 7.737,27.987 l 0.015,-0.515 0.617,0.19 c 0.005,-10e-4 0.031,-0.011 0.107,-0.065 1.006,-0.728 1.865,-1.655 2.603,-2.794 0.531,-1.024 0.766,-1.99 0.719,-2.952 C 11.711,20.158 11.083,19.11 9.821,18.553 9.358,18.348 8.897,18.233 8.414,18.2 L 7.355,18.128 7.693,17.771 3.869,17.273 c 0.048,1.191 0.277,1.808 0.787,2.19 l 0.37,0.278 -0.248,0.39 C 4.43,20.679 4.18,21.307 4.016,22.05 3.948,22.367 3.904,22.687 3.86,23.008 L 3.811,23.364 3.632,23.741 2.915,23.856 2.226,22.515 C 1.728,20.894 1.716,19.216 2.212,17.32 2.237,17.259 2.268,17.2 2.3,17.141 2.315,17.11 2.336,17.07 2.347,17.09 L 2.296,16.916 2.384,16.741 c 0.111,-0.22 0.221,-0.44 0.321,-0.665 0.937,-2.09 2.436,-4.559 5.839,-5.116 l 1.994,0.057 0.142,0.025 c 0.158,0.052 0.31,0.083 0.453,0.093 l 0.131,-0.18 0.087,0.178 c 0.339,-0.03 0.645,-0.195 0.935,-0.505 0.046,-0.047 0.095,-0.093 0.114,-0.107 C 13.3,9.544 13.499,8.39 13.027,6.701 12.992,6.421 12.896,6.186 12.699,5.933 12.582,5.744 12.45,5.577 12.313,5.421 l -1.24,-1.406 2.033,0.69 C 11.995,3.917 10.985,3.721 10.055,4.134 L 9.834,4.231 9.621,4.12 C 9.358,3.985 9.109,4.007 8.77,4.186 L 8.672,4.225 C 8.126,4.378 7.715,4.794 7.244,5.271 6.605,5.919 6.335,6.767 6.049,7.664 5.882,8.188 5.71,8.729 5.457,9.243 L 5.344,9.474 4.525,9.606 4.374,9.24 C 3.854,7.982 3.65,6.661 3.452,5.383 L 3.378,4.868 3.377,4.637 3.707,2.199 3.759,2.024 C 3.963,1.622 4.171,1.221 4.38,0.821 4.834,-0.048 5.303,-0.947 5.707,-1.848 5.987,-2.471 5.925,-3.02 5.524,-3.479 5.181,-3.872 4.712,-3.852 3.936,-3.745 3.413,-3.671 3.035,-3.296 2.809,-2.994 2.298,-2.31 2.05,-1.319 2.182,-0.404 l 0.003,0.251 -0.257,0.026 0.248,0.033 -0.062,0.44 C 1.585,2.472 0.078,3.821 -1.062,4.684 -1.154,4.747 -1.419,4.98 -1.527,5.076 l -0.171,0.1 c -0.137,0.05 -0.866,0.4 -0.995,0.497 L -3.052,5.82 c -0.247,0.082 -1.153,0.191 -1.433,0.148 l -0.982,0.054 c -0.03,0 -2.985,-0.325 -3.169,-1.162 L -8.708,4.529 -8.427,4.338 c 0.707,-0.477 1.293,-0.97 1.82,-1.538 0.227,-0.206 0.449,-0.411 0.67,-0.617 0.272,-0.474 0.456,-0.744 0.595,-0.896 0.05,-0.098 0.129,-0.24 0.219,-0.403 0.197,-0.354 0.527,-0.946 0.594,-1.16 l 0.047,-0.105 c 0.1,-0.169 0.203,-0.36 0.306,-0.548 0.144,0.185 0.184,0.446 0.124,0.803 -0.1,0.597 0.301,0.541 0.692,0.411 0.033,-1.14 0.033,-1.14 0.355,-1.209 -0.126,-0.329 -0.305,-0.799 -0.483,-1.268 -0.079,0.128 -0.158,0.256 -0.237,0.384 -0.007,0.003 -0.015,0.007 -0.023,0.011 0.334,-0.745 0.614,-1.575 0.687,-2.483 0.111,-1.346 -0.493,-2.245 -1.62,-2.431 l -0.793,0.035 -0.065,-0.011 c -0.358,-0.066 -0.67,0.084 -1.052,0.26 -0.158,0.073 -0.314,0.144 -0.475,0.204 l -3.079,2.245 0.546,-1.918 c 0.436,-0.028 0.872,-0.057 1.308,-0.084"
             style="fill:#e35028;fill-opacity:1;fill-rule:nonzero;stroke:none"
             id="path142"
             inkscape:connector-curvature="0" /></g></g></g></g></svg>