<?xml version="1.0" encoding="UTF-8" standalone="no"?>
<!-- Created with Inkscape (http://www.inkscape.org/) -->

<svg
   xmlns:dc="http://purl.org/dc/elements/1.1/"
   xmlns:cc="http://creativecommons.org/ns#"
   xmlns:rdf="http://www.w3.org/1999/02/22-rdf-syntax-ns#"
   xmlns:svg="http://www.w3.org/2000/svg"
   xmlns="http://www.w3.org/2000/svg"
   xmlns:sodipodi="http://sodipodi.sourceforge.net/DTD/sodipodi-0.dtd"
   xmlns:inkscape="http://www.inkscape.org/namespaces/inkscape"
   version="1.1"
   id="svg2"
   xml:space="preserve"
   width="117.33267"
   height="100.7116"
   viewBox="0 0 117.33267 100.7116"
   sodipodi:docname="natural.svg"
   inkscape:version="0.92.1 r15371"><metadata
     id="metadata8"><rdf:RDF><cc:Work
         rdf:about=""><dc:format>image/svg+xml</dc:format><dc:type
           rdf:resource="http://purl.org/dc/dcmitype/StillImage" /><dc:title></dc:title></cc:Work></rdf:RDF></metadata><defs
     id="defs6"><clipPath
       clipPathUnits="userSpaceOnUse"
       id="clipPath18"><path
         d="M 0,75.534 H 88 V 0 H 0 Z"
         id="path16"
         inkscape:connector-curvature="0" /></clipPath></defs><sodipodi:namedview
     pagecolor="#ffffff"
     bordercolor="#666666"
     borderopacity="1"
     objecttolerance="10"
     gridtolerance="10"
     guidetolerance="10"
     inkscape:pageopacity="0"
     inkscape:pageshadow="2"
     inkscape:window-width="1600"
     inkscape:window-height="837"
     id="namedview4"
     showgrid="false"
     inkscape:zoom="2.3433249"
     inkscape:cx="13.00472"
     inkscape:cy="50.355801"
     inkscape:window-x="-8"
     inkscape:window-y="-8"
     inkscape:window-maximized="1"
     inkscape:current-layer="g10" /><g
     id="g10"
     inkscape:groupmode="layer"
     inkscape:label="Vector Smart Object1"
     transform="matrix(1.3333333,0,0,-1.3333333,0,100.7116)"><g
       id="g12"><g
         id="g14"
         clip-path="url(#clipPath18)"><g
           id="g20"
           transform="translate(60.186,3.6064)"><path
             d="M 0,0 C 0.562,0.721 0.885,1.131 1.098,1.406 0.631,1.756 0.21,2.072 -0.191,2.374 -0.588,2.324 -0.971,2.292 -1.331,2.29 -0.918,1.568 -0.467,0.827 0,0"
             style="fill:#8bc03f;fill-opacity:1;fill-rule:evenodd;stroke:none"
             id="path22"
             inkscape:connector-curvature="0" /></g><g
           id="g24"
           transform="translate(62.062,12.833)"><path
             d="M 0,0 C 0.064,1.222 0.088,1.902 -0.103,2.563 -0.276,1.572 -0.482,0.579 -0.726,-0.414 Z"
             style="fill:#8bc03f;fill-opacity:1;fill-rule:evenodd;stroke:none"
             id="path26"
             inkscape:connector-curvature="0" /></g><g
           id="g28"
           transform="translate(60.6333,9.8594)"><path
             d="M 0,0 C 0.236,0.055 0.478,0.119 0.723,0.19 0.941,0.675 1.122,1.187 1.246,1.694 L 0.438,1.532 C 0.303,1.021 0.155,0.511 0,0"
             style="fill:#8bc03f;fill-opacity:1;fill-rule:evenodd;stroke:none"
             id="path30"
             inkscape:connector-curvature="0" /></g><g
           id="g32"
           transform="translate(30.2515,53.8159)"><path
             d="m 0,0 c -1.13,0.374 -2.285,0.536 -1.997,-1.188 0.113,-0.671 0.093,-1.215 -0.042,-1.666 0.861,-0.669 1.703,-1.351 2.523,-2.05 0.199,0.521 0.385,1.009 0.539,1.414 C 0.096,-3.289 0.096,-3.289 0,0"
             style="fill:#8bc03f;fill-opacity:1;fill-rule:evenodd;stroke:none"
             id="path34"
             inkscape:connector-curvature="0" /></g><g
           id="g36"
           transform="translate(46.7222,18.0234)"><path
             d="m 0,0 c 0.316,-0.802 0.599,-1.633 0.848,-2.51 0.236,0.24 0.48,0.488 0.729,0.74 C 1.195,-0.649 0.792,0.451 0.367,1.532 0.232,1.017 0.094,0.508 0,0"
             style="fill:#8bc03f;fill-opacity:1;fill-rule:evenodd;stroke:none"
             id="path38"
             inkscape:connector-curvature="0" /></g><g
           id="g40"
           transform="translate(46.0181,21.9746)"><path
             d="m 0,0 c 0.019,0.011 0.036,0.021 0.055,0.032 -0.267,0.61 -0.537,1.218 -0.819,1.817 -0.86,0.115 -1.47,0.034 -1.94,-0.273 0.803,-0.847 1.51,-1.795 2.122,-2.846 0.409,-0.083 0.836,-0.167 1.279,-0.256 C 0.291,-0.635 0.113,-0.248 0,0"
             style="fill:#8bc03f;fill-opacity:1;fill-rule:evenodd;stroke:none"
             id="path42"
             inkscape:connector-curvature="0" /></g><g
           id="g44"
           transform="translate(54.8774,14.7705)"><path
             d="m 0,0 c -0.361,-0.544 -0.419,-1.466 -0.26,-2.489 0.197,0.56 0.383,1.122 0.549,1.686 C 0.192,-0.535 0.098,-0.272 0,0"
             style="fill:#8bc03f;fill-opacity:1;fill-rule:evenodd;stroke:none"
             id="path46"
             inkscape:connector-curvature="0" /></g><g
           id="g48"
           transform="translate(57.355,40.6157)"><path
             d="M 0,0 C 0.16,0.176 -0.248,1.234 -0.366,1.229 -0.775,1.21 -1.187,1.155 -1.63,1.082 -1.333,0.508 -1.05,-0.075 -0.781,-0.669 -0.493,-0.462 -0.225,-0.25 0,0"
             style="fill:#8bc03f;fill-opacity:1;fill-rule:evenodd;stroke:none"
             id="path50"
             inkscape:connector-curvature="0" /></g><g
           id="g52"
           transform="translate(56.3833,48.1162)"><path
             d="m 0,0 c -2.072,0.232 -3.146,-0.472 -3.324,-2.025 0.167,-0.235 0.345,-0.46 0.505,-0.699 C -1.164,-2.719 -1.211,-0.741 0,0"
             style="fill:#8bc03f;fill-opacity:1;fill-rule:evenodd;stroke:none"
             id="path54"
             inkscape:connector-curvature="0" /></g><g
           id="g56"
           transform="translate(39.9458,52.9932)"><path
             d="m 0,0 c -0.958,-1.247 -1.805,-2.349 -2.652,-3.452 0.054,-0.128 0.108,-0.256 0.162,-0.384 1.344,0.711 2.687,1.42 4.031,2.132 C -0.303,-2.292 0.449,-0.199 0,0"
             style="fill:#8bc03f;fill-opacity:1;fill-rule:evenodd;stroke:none"
             id="path58"
             inkscape:connector-curvature="0" /></g><g
           id="g60"
           transform="translate(25.6719,38.6333)"><path
             d="M 0,0 C 1.216,0.4 2.434,0.801 3.65,1.202 3.364,1.403 3.082,1.604 2.781,1.799 1.753,1.502 0.725,1.205 -0.304,0.907 -0.202,0.605 -0.101,0.302 0,0"
             style="fill:#8bc03f;fill-opacity:1;fill-rule:evenodd;stroke:none"
             id="path62"
             inkscape:connector-curvature="0" /></g><g
           id="g64"
           transform="translate(48.7661,8.9854)"><path
             d="M 0,0 C 0.001,-0.013 0.004,-0.024 0.005,-0.037 0.029,-0.023 0.053,-0.015 0.077,0 Z"
             style="fill:#8bc03f;fill-opacity:1;fill-rule:evenodd;stroke:none"
             id="path66"
             inkscape:connector-curvature="0" /></g><g
           id="g68"
           transform="translate(37.0396,18.7041)"><path
             d="M 0,0 C 0.124,0.137 0.247,0.273 0.37,0.41 -0.503,1.213 -1.376,2.018 -2.553,3.101 -2.85,0.379 -1.435,0.18 0,0"
             style="fill:#8bc03f;fill-opacity:1;fill-rule:evenodd;stroke:none"
             id="path70"
             inkscape:connector-curvature="0" /></g><g
           id="g72"
           transform="translate(15.9443,34.9893)"><path
             d="m 0,0 c 0.027,0.251 0.054,0.5 0.081,0.75 -1.227,0.077 -2.453,0.156 -3.68,0.234 0.028,-0.032 0.051,-0.065 0.078,-0.097 0.219,-0.252 0.34,-0.503 0.42,-0.669 l 0.069,-0.141 0.093,-0.173 C -1.983,-0.265 -0.983,-0.065 0,0"
             style="fill:#8bc03f;fill-opacity:1;fill-rule:evenodd;stroke:none"
             id="path74"
             inkscape:connector-curvature="0" /></g><g
           id="g76"
           transform="translate(2.2568,41.5669)"><path
             d="M 0,0 C 1.041,-0.135 1.469,0.29 1.721,0.868 1.486,1.403 1.261,1.946 1.048,2.5 0.673,1.605 0.343,0.819 0,0"
             style="fill:#8bc03f;fill-opacity:1;fill-rule:evenodd;stroke:none"
             id="path78"
             inkscape:connector-curvature="0" /></g><g
           id="g80"
           transform="translate(24.6729,10.2217)"><path
             d="M 0,0 C 0.166,-0.246 0.333,-0.49 0.499,-0.736 0.932,-0.999 1.371,-1.253 1.816,-1.496 1.388,-0.855 0.958,-0.216 0.53,0.425 0.353,0.284 0.176,0.142 0,0"
             style="fill:#8bc03f;fill-opacity:1;fill-rule:evenodd;stroke:none"
             id="path82"
             inkscape:connector-curvature="0" /></g><g
           id="g84"
           transform="translate(80.3003,15.4756)"><path
             d="m 0,0 c 0.26,-0.962 0.521,-1.924 0.782,-2.887 0.183,0.047 0.364,0.093 0.549,0.14 C 1.799,-1.611 1.497,-0.659 0,0"
             style="fill:#8bc03f;fill-opacity:1;fill-rule:evenodd;stroke:none"
             id="path86"
             inkscape:connector-curvature="0" /></g><g
           id="g88"
           transform="translate(37.0874,67.5562)"><path
             d="M 0,0 C -0.968,1.114 -1.937,2.229 -2.905,3.343 -3.05,3.205 -3.196,3.067 -3.34,2.929 -2.334,1.846 -1.328,0.763 -0.322,-0.32 -0.214,-0.214 -0.107,-0.107 0,0"
             style="fill:#8bc03f;fill-opacity:1;fill-rule:evenodd;stroke:none"
             id="path90"
             inkscape:connector-curvature="0" /></g><g
           id="g92"
           transform="translate(50.6968,58.5439)"><path
             d="m 0,0 c -0.345,-0.507 -0.666,-0.979 -1.316,-1.937 1.471,0.134 2.401,0.218 3.128,0.284 C 1.184,-1.08 0.619,-0.566 0,0"
             style="fill:#8bc03f;fill-opacity:1;fill-rule:evenodd;stroke:none"
             id="path94"
             inkscape:connector-curvature="0" /></g><g
           id="g96"
           transform="translate(78.605,35.5508)"><path
             d="M 0,0 C 0.334,-0.306 0.58,-0.533 0.827,-0.76 0.792,-0.799 0.758,-0.837 0.723,-0.875 0.317,-0.825 -0.083,-0.768 0,0 M -2.492,4.758 C -2.52,4.843 -2.549,4.929 -2.577,5.015 -2.111,5.149 -1.646,5.284 -1.181,5.418 -1.157,5.35 -1.136,5.281 -1.112,5.212 -1.572,5.061 -2.031,4.909 -2.492,4.758 M -5.241,3.728 C -5.627,3.702 -6.023,3.6 -6.381,3.813 -6.374,3.879 -6.368,3.946 -6.36,4.013 -5.979,3.989 -5.6,3.964 -5.218,3.94 -5.227,3.869 -5.233,3.799 -5.241,3.728 m -2.562,0.058 c -0.004,0.05 -0.008,0.102 -0.012,0.153 0.254,0.005 0.519,0.052 0.754,-0.011 C -6.995,3.91 -7.016,3.568 -6.985,3.244 -7.371,3.5 -7.588,3.642 -7.803,3.786 M 1.27,1.61 C 1.196,1.788 1.125,1.968 1.049,2.144 0.966,2.332 0.877,2.516 0.79,2.703 1.27,2.787 1.433,2.47 1.27,1.61 m -47.177,4.833 c -1.303,1.018 -2.747,1.964 -4.336,2.843 -0.321,0.177 -0.646,0.351 -0.976,0.52 l 0.469,1.11 c 1.704,-1.425 3.317,-2.915 4.843,-4.473 m 6.276,-14.499 c -0.259,0.631 -0.507,1.268 -0.781,1.891 -0.29,0.663 -0.606,1.314 -0.914,1.979 1.694,0.294 2.277,-0.825 1.695,-3.87 m 15.644,-15.214 c -0.09,-0.255 -0.178,-0.511 -0.275,-0.766 -0.136,-0.364 -0.283,-0.725 -0.438,-1.085 -0.737,2.948 -1.597,5.758 -2.573,8.459 0.057,0.059 0.114,0.116 0.175,0.178 0.251,-0.237 0.537,-0.502 0.822,-0.77 -0.143,0.725 -0.416,1.339 -1.131,1.681 -0.033,-0.145 -0.072,-0.286 -0.104,-0.429 -0.065,0.178 -0.138,0.35 -0.206,0.526 0.063,-0.012 0.115,-0.022 0.181,-0.036 -0.101,0.218 -0.145,0.313 -0.172,0.374 0.167,0.096 0.297,0.17 0.493,0.284 -0.359,0.111 -0.616,0.172 -0.813,0.177 -1.633,4.161 -3.567,8.063 -5.85,11.756 -3.812,6.165 -8.446,11.562 -13.991,16.282 -0.266,-0.699 -0.559,-1.466 -0.854,-2.243 -0.228,0.369 -0.455,0.738 -0.683,1.107 -1.144,0.515 -2.288,1.032 -3.432,1.547 1.387,0.209 2.173,0.718 2.446,1.639 -3.796,2.95 -7.982,5.621 -12.593,8.027 -0.202,0.105 -0.413,0.188 -0.627,0.268 l -1.654,0.616 -1.713,-2.83 9.454,-8.005 -4.157,0.13 -1.33,-0.084 -1.286,-3.047 2.069,-0.677 c 0.185,-0.064 0.371,-0.125 0.565,-0.173 3.679,-0.888 6.824,-2.07 9.618,-3.614 0.663,-0.366 1.29,-0.748 1.894,-1.14 0.618,0.179 1.236,0.358 1.854,0.536 0.081,-0.244 0.162,-0.487 0.243,-0.73 -0.409,-0.135 -0.819,-0.27 -1.228,-0.404 3.32,-2.337 5.692,-5.106 7.179,-8.42 0.196,-0.438 0.374,-0.901 0.546,-1.384 l -7.905,0.399 c 0.043,0.513 -0.136,1.246 -0.394,1.486 -0.177,0.166 -0.271,0.446 -0.346,0.691 -0.051,0.172 -0.009,0.374 -0.009,0.563 -0.092,-0.004 -0.184,-0.006 -0.275,-0.007 v -1.921 c 0.078,-0.218 0.174,-0.491 0.277,-0.773 l -12.147,0.614 -0.265,-3.832 1.735,-0.228 c 0.762,-0.103 1.524,-0.2 2.286,-0.295 1.64,-0.209 3.334,-0.425 4.98,-0.681 l 1.619,-0.248 c 2.502,-0.383 5.09,-0.777 7.562,-1.338 4.181,-0.948 7.022,-3.186 8.685,-6.843 0.923,-2.033 1.55,-4.299 1.975,-7.134 0.067,-0.441 0.122,-0.882 0.174,-1.327 l -13.27,-1.171 1.379,-2.056 c -2.333,0.718 -4.537,1.656 -6.619,2.796 0.615,-0.919 1.23,-1.837 1.845,-2.756 -0.179,-0.12 -0.358,-0.241 -0.537,-0.36 -0.876,1.292 -1.75,2.584 -2.626,3.876 -2.67,1.619 -5.122,3.593 -7.333,5.929 l 2.354,-0.505 0.595,1.142 c -0.163,0.041 -0.328,0.078 -0.517,0.097 0.062,0.575 -0.02,1.23 0.237,1.698 0.12,0.219 0.467,0.315 0.847,0.424 l -1.199,0.618 c -5.469,2.827 -9.281,6.354 -11.654,10.785 -0.531,0.989 -0.988,2.018 -1.449,3.094 l 7.522,-0.81 -1.569,2.936 c -0.372,0.066 -0.738,0.184 -1.093,0.395 0.025,0.236 0.049,0.472 0.075,0.707 0.119,-0.008 0.239,-0.015 0.359,-0.022 -3.807,4.445 -6.288,9.872 -7.578,16.591 -0.923,4.809 -1.239,9.996 -0.959,15.771 2.051,-1.612 4.415,-3.289 7.045,-4.771 0.009,0.031 0.023,0.063 0.032,0.095 0.188,0.693 0.545,0.719 1.128,0.316 -0.28,-0.215 -0.52,-0.434 -0.716,-0.663 1.858,-1.019 3.843,-1.936 5.958,-2.649 3.703,-1.248 7.544,-2.149 11.276,-3.024 6.061,-1.422 11.071,-3.764 15.316,-7.162 5.587,-4.47 9.409,-10.399 11.358,-17.62 1.754,-6.502 1.737,-12.844 -0.039,-18.89 0.864,-2.402 1.673,-4.651 2.479,-6.89 -1.488,0.65 -2.707,3.136 -3.028,5.203 m -4.298,-2.884 c 0.224,-0.906 0.423,-1.817 0.62,-2.726 -0.624,-0.156 -1.261,-0.295 -1.86,-0.357 l -0.282,2.413 c -0.006,0.074 -0.018,0.147 -0.027,0.221 -2.458,-1.387 -4.278,-1.401 -5.382,0.038 h 5.377 c -0.076,0.69 -0.151,1.374 -0.254,2.05 -0.244,1.635 -0.554,3.11 -0.942,4.478 -0.119,-0.121 -0.24,-0.243 -0.36,-0.363 -0.212,0.682 -0.62,1.373 -0.59,2.045 0.012,0.276 0.052,0.552 0.102,0.828 -0.152,0.384 -0.309,0.765 -0.477,1.137 -0.246,0.54 -0.522,1.049 -0.809,1.544 -1.231,0.246 -2.326,0.466 -3.426,0.686 0.366,1.088 0.735,1.786 1.304,2.16 -0.956,1.008 -2.038,1.88 -3.26,2.595 l 2.348,-0.119 -0.942,2.631 c -0.168,0.47 -0.321,0.926 -0.471,1.37 -0.339,1.008 -0.658,1.96 -1.087,2.914 -0.13,0.29 -0.266,0.578 -0.407,0.861 0.714,-1.021 1.4,-2.065 2.061,-3.133 1.359,-2.198 2.584,-4.479 3.698,-6.847 0.726,-0.097 1.625,-0.331 2.78,-0.692 -0.782,-0.448 -1.307,-0.749 -1.961,-1.124 0.351,-0.807 0.69,-1.624 1.016,-2.451 0.056,0.212 0.111,0.425 0.161,0.64 2.919,-1.4 4.039,-3.912 4.622,-6.877 -1.164,1.09 -2.33,2.18 -3.361,3.148 -0.073,-0.073 -0.14,-0.142 -0.212,-0.213 0.752,-2.206 1.431,-4.481 2.021,-6.857 m -6.979,-5.957 c -0.9,0.438 -1.549,0.718 -2.159,1.066 -0.269,0.154 -0.659,0.463 -0.64,0.667 0.028,0.283 0.503,0.796 0.589,0.759 0.762,-0.329 1.537,-0.69 2.177,-1.204 0.21,-0.17 0.033,-0.82 0.033,-1.288 M -71.763,0.186 c 0.897,0.018 1.834,0.183 2.667,-0.04 0.232,-0.062 0.157,-1.273 0.266,-2.419 -1.366,0.904 -2.129,1.409 -2.893,1.915 -0.014,0.181 -0.027,0.361 -0.04,0.544 m -2.943,35.15 c 0.631,-0.041 1.262,-0.081 1.893,-0.121 -0.013,-0.117 -0.025,-0.234 -0.038,-0.351 -0.64,-0.043 -1.295,-0.212 -1.889,0.14 0.012,0.11 0.023,0.221 0.034,0.332 m 10.543,-6.649 c 0.552,-0.509 0.96,-0.885 1.37,-1.261 -0.059,-0.065 -0.116,-0.129 -0.174,-0.193 -0.672,0.085 -1.335,0.179 -1.196,1.454 m 5.979,-0.755 c 1.37,-0.656 1.894,-1.832 2.167,-3.222 -0.546,0.511 -1.092,1.021 -1.575,1.475 -0.214,-0.217 -0.411,-0.416 -0.609,-0.617 -0.1,0.32 -0.291,0.644 -0.277,0.959 0.021,0.467 0.187,0.927 0.294,1.405 m -18.913,7.027 c -0.007,0.085 -0.012,0.169 -0.019,0.255 0.421,0.009 0.86,0.086 1.25,-0.019 0.109,-0.028 0.073,-0.596 0.124,-1.133 -0.639,0.423 -0.997,0.66 -1.355,0.897 M 1.235,7.048 1.147,7.896 0.84,7.733 C 0.825,7.769 0.81,7.806 0.794,7.842 0.897,7.978 1.004,8.114 1.11,8.253 L 0.889,10.381 -1.188,8.773 C -1.167,8.123 -1.14,8.114 -0.908,8.064 -1.01,7.795 -1.155,7.413 -1.302,7.03 -1.365,7.134 -1.43,7.238 -1.494,7.343 -1.818,7.488 -2.141,7.634 -2.465,7.78 -5.476,5.282 -8.749,3.667 -12.472,2.843 c -1.649,-0.364 -3.237,-0.9 -4.773,-1.417 -0.63,-0.212 -1.26,-0.425 -1.891,-0.625 -0.252,-0.078 -0.784,-0.293 -1.208,-0.764 -0.478,1.511 -1.053,2.956 -1.687,4.359 -0.365,-0.261 -0.765,-0.512 -1.174,-0.805 -0.495,0.787 -0.834,1.329 -1.41,2.246 0.661,0.114 1.219,0.224 1.735,0.31 -0.658,1.277 -1.367,2.518 -2.161,3.695 -0.161,-0.001 -0.335,0.012 -0.532,0.052 -0.007,0.231 0.005,0.444 0.027,0.646 -1.929,2.716 -4.213,5.163 -6.882,7.298 -1.389,1.113 -2.86,2.109 -4.399,3.019 0.112,-0.933 0.037,-1.841 -0.325,-2.249 -0.145,-0.163 -0.428,-0.293 -0.64,-0.282 -0.17,0.008 -0.413,0.219 -0.48,0.394 -0.42,1.089 -0.8,2.192 -1.095,3.02 v 0.492 c -2.992,1.48 -6.258,2.643 -9.872,3.492 -3.058,0.716 -6.196,1.466 -9.224,2.392 0.011,-0.023 0.019,-0.04 0.03,-0.066 -0.835,0.168 -1.518,0.305 -2.205,0.442 0.037,0.11 0.075,0.2 0.113,0.293 -5.629,1.984 -10.396,5.581 -13.934,8.525 -0.179,0.148 -0.365,0.287 -0.574,0.442 l -2.951,2.231 -0.289,-3.365 c -0.198,-2.303 -0.302,-4.512 -0.332,-6.655 1.124,-2.063 1.778,-4.114 1.494,-6.434 -0.042,-0.349 -0.576,-0.774 -0.965,-0.893 -0.069,-0.021 -0.176,0.029 -0.29,0.1 0.187,-2.211 0.47,-4.352 0.867,-6.424 0.536,-2.793 1.271,-5.38 2.199,-7.795 0.144,0.342 0.293,0.698 0.454,1.082 0.267,-0.294 0.915,-0.854 0.849,-0.956 -0.309,-0.481 -0.385,-1.194 -0.63,-1.759 0.924,-2.116 2.004,-4.097 3.267,-5.938 l -2.624,0.282 -0.95,0.029 -1.697,-1.712 0.518,-1.159 c 0.272,-0.609 0.533,-1.224 0.793,-1.838 0.586,-1.381 1.191,-2.81 1.929,-4.187 1.519,-2.834 3.524,-5.337 6.059,-7.547 v -2.021 l -0.031,-0.685 0.349,-0.519 c 0.107,-0.16 0.216,-0.316 0.328,-0.465 5.422,-7.265 12.484,-12.168 20.991,-14.573 5.047,-1.427 10.262,-1.856 14.696,-2.087 0.187,-0.01 0.37,-0.015 0.552,-0.015 3.209,0 5.638,1.53 7.024,4.423 0.21,0.44 0.424,0.876 0.638,1.315 0.075,0.15 0.147,0.308 0.223,0.46 l 1.738,-0.236 c 0.327,-0.045 0.676,-0.067 1.036,-0.067 0.013,0 0.026,0.002 0.038,0.002 -0.339,0.592 -0.652,1.17 -0.915,1.768 -0.443,1.009 0.69,2.741 1.841,3.112 1.24,0.398 1.704,1.833 1.262,3.123 -0.511,1.489 -0.785,3.063 -0.938,4.648 1.111,-1.613 1.631,-2.373 1.854,-3.151 0.565,3.218 0.766,6.422 0.595,9.58 -0.01,0.179 -0.03,0.356 -0.042,0.534 h 1.669 c -0.034,0.333 -0.071,0.588 -0.087,0.846 -0.034,0.554 -0.058,1.108 -0.08,1.662 -0.008,0.178 -0.06,0.396 0.02,0.527 0.452,0.73 1.149,0.927 2.077,0.517 0.08,0.293 0.278,0.61 0.201,0.83 -0.097,0.276 -0.402,0.494 -0.649,0.697 -0.172,0.142 -0.398,0.214 -0.6,0.317 -0.028,-0.061 -0.056,-0.121 -0.084,-0.182 0.223,-0.272 0.446,-0.542 0.641,-0.779 -0.563,-0.695 -1.498,0.469 -1.761,-0.57 -0.143,-0.568 -1.093,-0.918 -0.26,-1.803 -0.437,0.168 -0.647,0.25 -0.858,0.332 -0.034,-0.069 -0.068,-0.136 -0.102,-0.206 0.257,-0.112 0.522,-0.209 0.765,-0.344 0.132,-0.073 0.259,-0.193 0.322,-0.324 0.027,-0.056 -0.113,-0.193 -0.176,-0.293 -0.062,-0.1 -0.189,-0.209 -0.174,-0.294 0.076,-0.463 -0.185,-0.543 -0.554,-0.575 -0.112,-0.009 -0.223,-0.032 -0.333,-0.054 -0.16,2.043 -0.474,4.065 -0.788,6.026 -0.067,0.414 -0.132,0.828 -0.199,1.252 0.35,0.115 0.7,0.232 1.048,0.351 1.179,0.397 2.307,0.774 3.438,1.074 -0.021,0.329 0.344,0.541 0.417,0.831 0.185,0.736 0.849,-0.087 1.247,0.404 -0.137,0.168 -0.295,0.36 -0.454,0.552 0.02,0.044 0.04,0.086 0.06,0.13 0.142,-0.073 0.303,-0.125 0.424,-0.225 0.176,-0.143 0.393,-0.299 0.461,-0.494 0.055,-0.155 -0.086,-0.382 -0.142,-0.589 -0.658,0.291 -1.153,0.152 -1.473,-0.367 -0.018,-0.029 -0.016,-0.072 -0.019,-0.112 0.143,0.035 0.285,0.074 0.429,0.106 3.371,0.745 6.518,2.105 9.382,4.051 0.006,-1.551 -0.102,-3.071 -0.319,-4.583 0.073,0.069 0.141,0.169 0.2,0.299 0.099,0.222 0.195,0.449 0.258,0.682 0.115,0.418 0.33,0.434 0.682,0.192 -0.572,-0.44 -0.904,-0.891 -0.65,-1.594 0.105,-0.292 -0.201,-0.526 -0.524,-0.429 -0.032,0.01 -0.069,0.023 -0.102,0.033 -0.034,-0.193 -0.061,-0.388 -0.098,-0.583 -0.604,-3.162 -1.813,-5.724 -3.805,-8.061 l -3.012,-3.539 5.079,0.522 c -1.144,-2.061 -2.878,-3.72 -5.313,-5.111 l -6.654,-3.8 c -0.003,-0.058 -0.006,-0.112 -0.009,-0.175 -0.018,-0.351 -0.081,-0.726 -0.174,-1.104 l 4.812,0.966 c -1.665,-1.051 -3.6,-1.962 -5.335,-2.47 -0.55,-1.222 -1.331,-2.248 -1.999,-2.431 -0.22,-0.22 -0.442,-0.44 -0.662,-0.661 0.423,-0.318 0.848,-0.637 1.3,-0.977 4.923,0.614 12.368,4.762 14.081,8.858 l 0.752,1.797 c 1.851,1.901 3.134,4.144 3.882,6.77 l 0.756,2.652 -2.258,-0.236 c 0.13,0.241 0.243,0.492 0.365,0.739 0.359,0.008 0.636,0.289 0.511,0.631 -0.034,0.099 -0.056,0.192 -0.076,0.284 0.234,0.539 0.443,1.092 0.632,1.656 0.111,0.104 0.232,0.206 0.362,0.308 -0.08,0.056 -0.155,0.098 -0.225,0.133 0.256,0.823 0.483,1.666 0.652,2.548 0.655,3.425 0.789,6.851 0.411,10.478"
             style="fill:#8bc03f;fill-opacity:1;fill-rule:evenodd;stroke:none"
             id="path98"
             inkscape:connector-curvature="0" /></g><g
           id="g100"
           transform="translate(76.8569,43.8901)"><path
             d="M 0,0 -0.253,-0.196 C -0.431,-0.332 -0.572,-0.442 -0.717,-0.56 -0.277,-0.493 -0.047,-0.324 0,0"
             style="fill:#8bc03f;fill-opacity:1;fill-rule:evenodd;stroke:none"
             id="path102"
             inkscape:connector-curvature="0" /></g><g
           id="g104"
           transform="translate(67.1821,44.4565)"><path
             d="M 0,0 C 0.058,-0.13 0.266,-0.313 0.347,-0.288 0.502,-0.241 0.714,-0.072 0.731,0.067 0.872,1.219 0.44,2.204 -0.222,3.24 -0.396,2.56 -0.94,2.106 -0.558,1.417 -0.313,0.978 -0.203,0.465 0,0"
             style="fill:#8bc03f;fill-opacity:1;fill-rule:evenodd;stroke:none"
             id="path106"
             inkscape:connector-curvature="0" /></g><g
           id="g108"
           transform="translate(86.1567,29.0195)"><path
             d="m 0,0 c -0.092,-0.406 -0.233,-0.798 -0.25,-1.195 -0.012,-0.269 0.15,-0.544 0.234,-0.815 0.169,0.169 0.336,0.34 0.519,0.524 0.411,-0.386 0.876,-0.821 1.34,-1.256 C 1.611,-1.56 1.165,-0.558 0,0"
             style="fill:#8bc03f;fill-opacity:1;fill-rule:evenodd;stroke:none"
             id="path110"
             inkscape:connector-curvature="0" /></g><g
           id="g112"
           transform="translate(85.6665,29.7295)"><path
             d="M 0,0 C 0.271,0.155 0.483,0.277 0.803,0.461 -0.862,0.982 -1.23,0.86 -1.599,-0.233 -1.014,-0.35 -0.433,-0.467 0.278,-0.609 0.115,-0.253 0.044,-0.099 0,0"
             style="fill:#8bc03f;fill-opacity:1;fill-rule:evenodd;stroke:none"
             id="path114"
             inkscape:connector-curvature="0" /></g><g
           id="g116"
           transform="translate(83.2476,45.1743)"><path
             d="M 0,0 C -0.052,0.172 -0.01,0.374 -0.01,0.563 -0.102,0.56 -0.193,0.559 -0.285,0.556 v -1.92 c 0.118,-0.329 0.268,-0.77 0.436,-1.204 0.028,-0.07 0.124,-0.153 0.192,-0.158 0.085,-0.003 0.198,0.049 0.256,0.114 0.306,0.346 0.098,1.594 -0.253,1.922 C 0.168,-0.524 0.074,-0.245 0,0"
             style="fill:#8bc03f;fill-opacity:1;fill-rule:evenodd;stroke:none"
             id="path118"
             inkscape:connector-curvature="0" /></g><g
           id="g120"
           transform="translate(83.2456,42.0972)"><path
             d="m 0,0 c -0.382,-0.497 -0.721,-0.936 -1.059,-1.376 0.023,-0.052 0.044,-0.103 0.065,-0.154 0.536,0.284 1.071,0.567 1.607,0.851 C -0.122,-0.914 0.179,-0.08 0,0"
             style="fill:#8bc03f;fill-opacity:1;fill-rule:evenodd;stroke:none"
             id="path122"
             inkscape:connector-curvature="0" /></g><g
           id="g124"
           transform="translate(71.2163,34.2354)"><path
             d="M 0,0 C -0.044,0.457 -0.015,0.94 -0.106,0.966 -0.439,1.054 -0.812,0.988 -1.171,0.98 -1.165,0.909 -1.16,0.837 -1.154,0.764 -0.851,0.562 -0.546,0.361 0,0"
             style="fill:#8bc03f;fill-opacity:1;fill-rule:evenodd;stroke:none"
             id="path126"
             inkscape:connector-curvature="0" /></g><g
           id="g128"
           transform="translate(82.1821,33.4736)"><path
             d="M 0,0 C 0.122,-0.265 0.248,-0.525 0.364,-0.789 0.474,-1.037 0.572,-1.291 0.676,-1.543 0.907,-0.328 0.675,0.117 0,0"
             style="fill:#8bc03f;fill-opacity:1;fill-rule:evenodd;stroke:none"
             id="path130"
             inkscape:connector-curvature="0" /></g><g
           id="g132"
           transform="translate(82.0864,28.4258)"><path
             d="M 0,0 C 0.049,0.055 0.098,0.108 0.147,0.163 -0.2,0.482 -0.548,0.804 -1.018,1.236 -1.137,0.151 -0.572,0.071 0,0"
             style="fill:#8bc03f;fill-opacity:1;fill-rule:evenodd;stroke:none"
             id="path134"
             inkscape:connector-curvature="0" /></g><g
           id="g136"
           transform="translate(73.6753,34.9189)"><path
             d="M 0,0 C 0.011,0.101 0.022,0.199 0.033,0.299 L -1.578,0.401 C -1.587,0.309 -1.599,0.214 -1.607,0.119 -1.104,-0.181 -0.545,-0.037 0,0"
             style="fill:#8bc03f;fill-opacity:1;fill-rule:evenodd;stroke:none"
             id="path138"
             inkscape:connector-curvature="0" /></g><g
           id="g140"
           transform="translate(82.105,47.9033)"><path
             d="M 0,0 C -0.386,0.444 -0.772,0.889 -1.157,1.333 -1.216,1.279 -1.273,1.223 -1.331,1.168 -0.93,0.737 -0.529,0.305 -0.128,-0.127 -0.084,-0.085 -0.043,-0.042 0,0"
             style="fill:#8bc03f;fill-opacity:1;fill-rule:evenodd;stroke:none"
             id="path142"
             inkscape:connector-curvature="0" /></g><g
           id="g144"
           transform="translate(31.0615,15.2559)"><path
             d="m 0,0 c -0.012,-0.268 0.151,-0.544 0.234,-0.815 0.169,0.17 0.337,0.34 0.519,0.524 C 1.164,-0.676 1.629,-1.11 2.093,-1.545 1.861,-0.363 1.415,0.638 0.25,1.196 0.158,0.79 0.017,0.397 0,0"
             style="fill:#8bc03f;fill-opacity:1;fill-rule:evenodd;stroke:none"
             id="path146"
             inkscape:connector-curvature="0" /></g><g
           id="g148"
           transform="translate(30.8208,17.1621)"><path
             d="M 0,0 C 0.271,0.155 0.484,0.277 0.803,0.461 -0.862,0.983 -1.23,0.859 -1.598,-0.233 -1.013,-0.352 -0.432,-0.467 0.279,-0.609 0.116,-0.253 0.045,-0.1 0,0"
             style="fill:#8bc03f;fill-opacity:1;fill-rule:evenodd;stroke:none"
             id="path150"
             inkscape:connector-curvature="0" /></g><g
           id="g152"
           transform="translate(28.0127,19.3633)"><path
             d="M 0,0 C 0.232,1.214 0,1.659 -0.676,1.543 -0.553,1.278 -0.428,1.018 -0.312,0.754 -0.202,0.504 -0.104,0.251 0,0"
             style="fill:#8bc03f;fill-opacity:1;fill-rule:evenodd;stroke:none"
             id="path154"
             inkscape:connector-curvature="0" /></g><g
           id="g156"
           transform="translate(27.2412,15.8574)"><path
             d="M 0,0 C 0.049,0.055 0.099,0.108 0.147,0.163 -0.201,0.483 -0.549,0.805 -1.019,1.235 -1.137,0.151 -0.572,0.071 0,0"
             style="fill:#8bc03f;fill-opacity:1;fill-rule:evenodd;stroke:none"
             id="path158"
             inkscape:connector-curvature="0" /></g><g
           id="g160"
           transform="translate(27.2603,35.335)"><path
             d="M 0,0 C -0.386,0.445 -0.772,0.89 -1.158,1.334 -1.216,1.279 -1.274,1.224 -1.332,1.169 -0.931,0.736 -0.53,0.306 -0.128,-0.126 -0.085,-0.084 -0.042,-0.041 0,0"
             style="fill:#8bc03f;fill-opacity:1;fill-rule:evenodd;stroke:none"
             id="path162"
             inkscape:connector-curvature="0" /></g><g
           id="g164"
           transform="translate(48.2827,29.6758)"><path
             d="m 0,0 c -0.056,-0.249 -0.142,-0.489 -0.152,-0.733 -0.008,-0.164 0.092,-0.333 0.143,-0.5 0.104,0.104 0.207,0.209 0.319,0.322 C 0.562,-1.148 0.847,-1.414 1.131,-1.682 0.989,-0.957 0.715,-0.343 0,0"
             style="fill:#8bc03f;fill-opacity:1;fill-rule:evenodd;stroke:none"
             id="path166"
             inkscape:connector-curvature="0" /></g><g
           id="g168"
           transform="translate(47.9829,30.1104)"><path
             d="m 0,0 c 0.166,0.096 0.297,0.17 0.492,0.283 -1.02,0.32 -1.246,0.244 -1.471,-0.426 0.358,-0.072 0.715,-0.142 1.15,-0.231 C 0.071,-0.155 0.027,-0.061 0,0"
             style="fill:#8bc03f;fill-opacity:1;fill-rule:evenodd;stroke:none"
             id="path170"
             inkscape:connector-curvature="0" /></g><g
           id="g172"
           transform="translate(46.5005,39.5786)"><path
             d="M 0,0 C -0.032,0.105 -0.007,0.229 -0.007,0.345 -0.062,0.343 -0.118,0.342 -0.175,0.341 v -1.177 c 0.072,-0.202 0.164,-0.472 0.268,-0.738 0.016,-0.043 0.075,-0.093 0.117,-0.097 0.053,-0.002 0.122,0.03 0.156,0.069 0.19,0.213 0.062,0.978 -0.154,1.179 C 0.104,-0.321 0.046,-0.15 0,0"
             style="fill:#8bc03f;fill-opacity:1;fill-rule:evenodd;stroke:none"
             id="path174"
             inkscape:connector-curvature="0" /></g><g
           id="g176"
           transform="translate(46.4995,37.6924)"><path
             d="m 0,0 c -0.235,-0.304 -0.442,-0.574 -0.649,-0.844 0.013,-0.031 0.026,-0.063 0.04,-0.094 0.328,0.174 0.656,0.347 0.985,0.521 C -0.075,-0.56 0.108,-0.049 0,0"
             style="fill:#8bc03f;fill-opacity:1;fill-rule:evenodd;stroke:none"
             id="path178"
             inkscape:connector-curvature="0" /></g><g
           id="g180"
           transform="translate(45.8472,32.4063)"><path
             d="M 0,0 C 0.075,-0.163 0.152,-0.322 0.224,-0.483 0.29,-0.637 0.351,-0.792 0.414,-0.946 0.557,-0.201 0.413,0.072 0,0"
             style="fill:#8bc03f;fill-opacity:1;fill-rule:evenodd;stroke:none"
             id="path182"
             inkscape:connector-curvature="0" /></g><g
           id="g184"
           transform="translate(44.9839,41.9678)"><path
             d="m 0,0 c 0.246,-0.265 0.491,-0.529 0.738,-0.794 0.027,0.026 0.053,0.052 0.078,0.078 L 0.106,0.101 C 0.071,0.067 0.035,0.034 0,0"
             style="fill:#8bc03f;fill-opacity:1;fill-rule:evenodd;stroke:none"
             id="path186"
             inkscape:connector-curvature="0" /></g><g
           id="g188"
           transform="translate(49.4155,29.8799)"><path
             d="M 0,0 C -0.033,0.105 -0.007,0.229 -0.007,0.347 -0.062,0.345 -0.118,0.343 -0.175,0.342 v -1.177 c 0.072,-0.202 0.164,-0.472 0.267,-0.737 0.017,-0.044 0.076,-0.095 0.117,-0.098 0.053,-0.002 0.122,0.03 0.157,0.069 0.19,0.213 0.061,0.978 -0.155,1.179 C 0.103,-0.32 0.046,-0.148 0,0"
             style="fill:#8bc03f;fill-opacity:1;fill-rule:evenodd;stroke:none"
             id="path190"
             inkscape:connector-curvature="0" /></g><g
           id="g192"
           transform="translate(49.4136,27.9941)"><path
             d="m 0,0 c -0.234,-0.304 -0.442,-0.573 -0.648,-0.843 0.013,-0.033 0.026,-0.063 0.04,-0.094 0.328,0.173 0.656,0.347 0.985,0.521 C -0.074,-0.56 0.109,-0.049 0,0"
             style="fill:#8bc03f;fill-opacity:1;fill-rule:evenodd;stroke:none"
             id="path194"
             inkscape:connector-curvature="0" /></g><g
           id="g196"
           transform="translate(48.7144,31.5537)"><path
             d="M 0,0 C -0.236,0.272 -0.473,0.545 -0.71,0.817 -0.745,0.784 -0.78,0.75 -0.815,0.717 -0.569,0.451 -0.324,0.187 -0.078,-0.078 -0.052,-0.052 -0.025,-0.026 0,0"
             style="fill:#8bc03f;fill-opacity:1;fill-rule:evenodd;stroke:none"
             id="path198"
             inkscape:connector-curvature="0" /></g></g></g></g></svg>