<?xml version="1.0" encoding="utf-8"?>
<svg xmlns="http://www.w3.org/2000/svg">
<symbol id="fb" viewBox="0 0 48.947868 48.947868"><g clip-path="url(#a)" transform="matrix(1.33333 0 0 -1.33333 0 48.948)"><path d="M36.71 2.025A2.025 2.025 0 0 0 34.686 0H25.33v14.215h4.772l.714 5.541H25.33v3.538c0 1.603.445 2.696 2.746 2.696l2.934.001v4.956c-.508.067-2.25.22-4.276.22-4.23 0-7.126-2.583-7.126-7.325v-4.086h-4.784v-5.54h4.784V0H2.026A2.025 2.025 0 0 0 0 2.025v32.66c0 1.118.907 2.026 2.026 2.026h32.659a2.027 2.027 0 0 0 2.026-2.027z"/></g>
</symbol>
<symbol id="inst" viewBox="0 0 48.884132 48.884132"><g clip-path="url(#a)" transform="matrix(1.33333 0 0 -1.33333 0 48.884)"><path d="M33.226 4.583c0-.632-.513-1.146-1.146-1.146H4.583c-.632 0-1.146.514-1.146 1.146v17.186H8.02c-.597-.859-.798-2.462-.798-3.48 0-6.136 5.003-11.127 11.152-11.127 6.15 0 11.154 4.991 11.154 11.127 0 1.018-.145 2.596-.885 3.48h4.583zM18.374 25.322c3.894 0 7.05-3.149 7.05-7.033 0-3.886-3.156-7.034-7.05-7.034-3.893 0-7.05 3.148-7.05 7.034 0 3.884 3.157 7.033 7.05 7.033m7.978 5.613c0 .631.513 1.145 1.145 1.145h3.438c.632 0 1.145-.514 1.145-1.145v-3.438c0-.633-.513-1.145-1.145-1.145h-3.438c-.632 0-1.145.512-1.145 1.145zm5.953 5.728H4.358A4.353 4.353 0 0 1 0 32.314V4.348A4.352 4.352 0 0 1 4.358 0h27.947a4.353 4.353 0 0 1 4.359 4.348v27.966a4.354 4.354 0 0 1-4.36 4.349"/></g>
</symbol>
<symbol id="kkal"><g fill-rule="evenodd" clip-rule="evenodd"><path d="M38.164 48.505c.149.27.217.584.342.87.035.08.162.192.213.177.095-.029.225-.133.236-.219.086-.707-.18-1.311-.586-1.946-.107.417-.441.695-.205 1.118zM44.893 51.72l.84.378.167.271.341-.895c-.227-.049-.227-.049-.25-.854-.277-.091-.56-.131-.488.291.081.5-.105.733-.61.809zM48.188 48.593v1.179c.072.202.165.471.268.738.017.043.075.094.118.096a.224.224 0 0 0 .156-.069c.188-.213.061-.979-.155-1.18-.108-.102-.166-.273-.212-.423-.032-.106-.006-.229-.006-.345l-.169.004zM47.752 51.761l.986-.521c-.451.143-.267-.368-.377-.418l-.648.845c.014.031.026.062.039.094zM40.263 55.044l.011.133.707.469c-.027-.281-.008-.577-.065-.592-.205-.054-.434-.015-.653-.01zM44.869 54.335l1.193-.393-.059-.178-1.209.349.075.222zM41.504 55.154c.309.184.651.095.986.073l.02-.184-.988-.063-.018.174zM39.508 52.741c-.141.339-.25.6-.367.876.504.066.423-.404.576-.642.015-.025-.143-.162-.209-.234zM49.279 12.807c.43-.424.57-.966.635-1.602-.291.221-.659.231-.725.635-.043.258-.164.503-.23.759-.019.071.007.213.049.229.078.03.219.03.271-.021zM52.301 18.479l.697-.415c-.125-.152-.125-.152.282-.7-.136-.206-.303-.381-.478-.064-.207.375-.454.433-.83.218l.359.693c-.009.09-.02.179-.03.268zM55.146 18.75c.238-.042.555-.619.518-.866-.019-.125.033-.269.082-.393.034-.087.116-.156.178-.233l-.115-.086-.619.783c-.059.173-.139.402-.211.632-.012.037.002.103.027.126.033.03.096.045.14.037zM54.752 18.746l-.876.22-.023.084c.31.057.62.115.931.171-.377-.141.015-.385-.032-.475zM49.087 27.031a1.925 1.925 0 0 0-.2-.476c-.009-.018-.152.005-.193.048-.029.03-.006.13.02.19.054.135.123.264.213.451.059-.076.172-.159.16-.213zM47.87 15.629c.024-.008-.01-.183-.016-.265l-.704.39c.299.309.493-.047.72-.125zM46.762 23.739l-.085 1.152.134.011.092-1.164-.141.001zM56.161 16.009l-.043-.918-.124.012c.023.306.049.611.073.917l.094-.011zM29.991 18.645a5.967 5.967 0 0 0 4.253-1.754c1.139-1.141 1.791-2.702 1.789-4.282-.006-3.307-2.654-5.997-5.901-5.997l-.119.002a5.818 5.818 0 0 0-4.375 1.796 5.978 5.978 0 0 0-1.7 4.185c.004 3.206 2.502 5.859 5.688 6.041.122.005.246-.02.365.009zm-2.524-6.055a2.511 2.511 0 0 1 .707-1.727 2.308 2.308 0 0 1 1.664-.723l.152.004.142-.003c1.283 0 2.369 1.133 2.372 2.474 0 .64-.282 1.306-.758 1.782a2.422 2.422 0 0 1-1.755.719c-.055 0-.11-.001-.166-.005-1.321-.076-2.356-1.183-2.358-2.521zM6.88 50.749c-.13.573-.329 1.126-.354 1.688-.017.378.213.767.333 1.15l.731-.74 1.892 1.771c-.329-1.668-.959-3.082-2.602-3.869zM24.725 40.104v2.709c.166.465.379 1.087.616 1.7.038.099.175.217.271.222a.513.513 0 0 0 .359-.159c.435-.489.141-2.25-.356-2.713-.251-.234-.382-.628-.487-.974-.074-.243-.015-.528-.015-.794l-.388.009zM6.793 16.1c-.145-.206-.523-.301-.806-.329-.114-.011-.306.276-.381.461-.243.595-.447 1.207-.726 1.977.543-.148.903-.234 1.257-.344.693-.214 1.078-1.169.656-1.765zM3.637 33.25c-1.037.331-.615-.847-.867-.959l-1.492 1.942.092.217 2.267-1.2zM3.438 58.775c-.049-.021-.316.268-.332.428-.011.114.209.288.36.375.343.195.708.353 1.215.6 0-.264.1-.629-.019-.725-.36-.29-.797-.492-1.224-.678zM19.457 30.759c-.298.127-.529.405-.779.61.291.12.583.32.887.339.25.016.566-.13.748-.311.1-.099.042-.569-.053-.608-.239-.096-.574-.128-.803-.03zM21.635 35.389l1.699 1.829.181-.18-1.636-1.881a26.07 26.07 0 0 0-.244.232zM9.84 30.098l-.055-.05-.016.056.071-.006z"/><path d="M59.852 52.693c-.578-2.218-1.171-4.432-1.764-6.646l-.643-2.401c-.174.583-.427 1.106-1.389.981l1.009-2.405c-.537-2.023-1.071-4.048-1.605-6.072-.349-1.319-.696-2.637-1.046-3.956a1.136 1.136 0 0 1-.27-.34c-.376-.86-.579-1.807-1.03-2.619-.4-.721-.252-1.301.011-1.897-.605-2.282-1.209-4.564-1.83-6.841a4.66 4.66 0 0 0-.505-1.176l.792.29c.018-.05.035-.1.055-.15l-.988-.404-.008.023c-.774-1.125-2.018-1.788-3.496-1.788h-.073c-.812.012-1.622.013-2.431.015-.514.975-.621 2.077-.131 3.435.012.033.01.063.02.095.866-.002 1.731-.003 2.615-.017.359 0 .609.101.745.603.098.36.191.721.289 1.081-.062.035-.12.077-.183.109-.367.189-.597.052-.62-.365l-.011-.208c-.117-.035-.23-.109-.3-.08-.102.042-.173.161-.257.246.279.269.192.553.043.844-.012.025.026.078.066.187l.171-.453c.106.164.175.277.249.385.143.203.425.208.498-.008a.807.807 0 0 1 .388-.487c.663 2.453 1.318 4.908 1.97 7.364l.344 1.3c.505 1.904 1.008 3.808 1.51 5.712a6153.61 6153.61 0 0 0 1.625 6.146c.334 1.255.67 2.51 1.006 3.764.592 2.206 1.184 4.411 1.758 6.619.065.254.031.489-.012.541-1.16.457-2.091.738-2.93.884a90.02 90.02 0 0 1-6.361.87c-1.445.149-2.947.217-4.401.284l-1.169.055c-.756.037-1.512.056-2.268.077-.478.012-.955.025-1.437.042-.212.007-.397.05-.554.103H22.553a1.884 1.884 0 0 0-.533-.102c-.451-.022-.901-.04-1.352-.058-.459-.019-.919-.037-1.379-.06l-.906-.042c-1.063-.05-2.128-.1-3.19-.179l-.385-.028c-1.429-.106-2.905-.216-4.319-.408-1.695-.232-3.506-.534-5.867-.977-.717-.134-.976-.318-1.092-.489V53.6c.016-.044.031-.09.043-.139l.383-1.489c.154-.601.311-1.2.467-1.799a60.63 60.63 0 0 1-.49-.098c.23-.687.463-1.101.854-1.286.374-1.403.75-2.806 1.126-4.208.363-1.35.726-2.699 1.086-4.049.343-1.287.683-2.575 1.022-3.862.333-1.26.665-2.52 1.001-3.78.248-.929.498-1.858.748-2.787l-1.69.155.741-1.09.965.88.188-.701a542.43 542.43 0 0 0 1.875-7.074c.371-1.452.371-1.452 1.588-1.452l.23.003c1.656.037 3.314.027 4.972.018.67-.003 1.341-.007 2.009-.008.152 0 .306-.011.469-.026l2.064-.149c-.924-1.05-.937-2.623-1.906-3.655-.178-.188-.066-.646-.089-.979l.272-.07a8.431 8.431 0 0 1-.582-4.326l-.348-.074v-1.379l.583.265c.833-3.284 2.843-5.434 6.152-6.552.308-.104.656-.186 1.026-.271l.366-.087h2.404c.106.036.219.063.335.081 2.469.345 4.462 1.534 5.923 3.534 1.858 2.543 2.308 5.34 1.335 8.313-.198.606-.501 1.223-.821 1.876-.165.335-.329.67-.482 1.008l-1.134 2.495 2.926.004c-.395-.351-.92-.587-1.641-.655.065-.599-.021-1.281.247-1.768.183-.333.86-.392 1.429-.618.209.238.449.514.69.787 1.348 1.518 2.636 1.388 3.488-.335.072.076.139.169.198.283.128-.094.311-.159.35-.273.051-.144-.004-.332-.039-.495-.024-.112-.093-.214-.141-.32l.057-.131-.167.001-1.885-.003c.101-.246.194-.498.279-.758 1.326-4.055.69-8.028-1.839-11.491-1.789-2.448-4.25-4.058-7.143-4.724-.008.08-.018.16-.025.24-1.422.095-2.879.472-4.196-.312l.028-.267h-.613l-.214.055a28.06 28.06 0 0 1-.519.124c-.327.076-.666.163-1.014.264.039.492.04 1.213.107 1.917l-1.883-1.246c-3.689 1.681-6.127 4.664-7.08 8.712-.606 2.568-.404 5.118.574 7.489-1.482.007-2.965.013-4.448-.02l-.308-.003c-3.312 0-4.344 1.506-5.008 4.108-.138.539-.283 1.082-.424 1.623.043.639.133 1.283.221 2.107h-.773c-.295 1.108-.594 2.213-.886 3.298-.319 1.185-.639 2.369-.954 3.554-.336 1.262-.67 2.525-1.004 3.788-.338 1.285-.678 2.569-1.021 3.854-.359 1.348-.722 2.695-1.083 4.043l-.305 1.14c.183.344.195.938.023 1.834-.104-.252-.207-.504-.313-.756-.233.874-.469 1.748-.701 2.621-.195.733-.383 1.469-.571 2.204.245.227.476.438.705.649l-.208.231a3.77 3.77 0 0 1-.689-.135l-.181.704-.261.282v2.299l.093.275c.552 1.632 1.855 2.653 3.876 3.032 2.423.455 4.285.764 6.043 1.006 1.521.206 3.053.32 4.535.431l.383.028c1.094.082 2.191.134 3.289.185l.896.043c.471.022.941.042 1.412.061l.973.04.253.122H38.1l.244-.117c.349-.011.697-.02 1.045-.028.782-.021 1.564-.042 2.348-.08l1.157-.055c1.503-.069 3.056-.14 4.599-.299.224-.022.445-.049.668-.073.406-.765 1.195-.317 1.96-.233.242-.031.487-.06.728-.092.145-.068.282-.174.41-.33l-1.183-1.438.155-.339c.372.191.791.326 1.107.586.452.373 1.008.771 1.191 1.275a85.79 85.79 0 0 0 1.571-.26c1.081-.188 2.23-.53 3.619-1.079 2.092-.825 2.571-3.02 2.133-4.711zM43.631 17.656l.007.358a.32.32 0 0 1-.161-.004l.154-.354zm-1.98-7.687l-1.434-1.715c1.363-.173 1.68.156 1.434 1.715zM4.707 57.057h3.07c-1.404.804-2.442.818-3.07 0zm24.868.547l-.022-.306c.506-.011 1.032-.104 1.501.022.131.035.088.716.149 1.362l-1.628-1.078zm5.101.114c-.77.051-1.557.255-2.27-.169l.041-.398 2.273.145-.044.422z"/></g>
</symbol>
<symbol id="logo"><path d="M70.098 32.877c-.951 1.28-2.524 2.065-4.392 2.152-2.689.125-3.996-2.211-4.227-7.18-.195-4.222.7-12.311.555-15.448l-.104-2.241c-.896.041-5.063 17.529-7.315 20.628-.664 1.004-1.783 1.918-3.164 1.981-3.176.147-5.363-3.42-5.619-8.948-.168-3.625.494-10.318.141-17.937-.038-.824-.203-1.152-.352-1.146-2.989.139-9.656 20.25-9.976 30.298-.044 1.463.219 3.921.578 5.215-3.605-.244-7.463-.29-7.631-3.914-.154-3.324 1.577-10.404 3.644-16.679C33.68 15.287 39.273.278 45.175.005c6.537-.304 5.774 11.524 6.294 22.693.083 1.791.144 3.101.375 4.063C57.981 8.958 59.122 3.7 62.783 3.531c2.093-.098 3.717 2.635 3.887 6.296.099 2.129.073 6.435.195 9.05.546 11.768 1.761 11.337 3.233 14zM90.098 15.69c-.048 2.364-6.179 11.961-12.003 11.842-3.201-.066-4.799-2.139-4.742-4.866.049-2.365 1.189-4.745 2.058-6.295-5.588-.951-6.262-3.551-6.231-5.006.059-2.911 2.857-4.384 4.64-4.348 1.419.029 1.832 1.202 1.816 1.968-.019.872-.402 1.921-1.013 3.181 2.754.678 7.269.732 7.225 2.882-.04 1.964-3.348 5.211-3.402 7.868-.02.981.404 1.536 1.17 1.552 3.057.063 6.985-6.848 8.766-10.234 1.267.245 1.73.73 1.716 1.456z"/><path d="M94.032 41.441c-.035 1.723-4.502 8.716-8.745 8.629-2.334-.048-3.497-1.558-3.456-3.546.035-1.725.867-3.457 1.5-4.587-4.072-.693-4.563-2.588-4.541-3.647.043-2.121 2.082-3.194 3.381-3.168 1.033.021 1.334.876 1.322 1.434-.013.636-.293 1.399-.736 2.318 2.006.494 5.295.533 5.263 2.099-.029 1.433-2.438 3.797-2.478 5.733-.016.716.295 1.12.852 1.132 2.228.046 5.09-4.99 6.387-7.458.925.179 1.263.532 1.251 1.061zM94.715 58.909c-.028 1.357-3.547 6.866-6.89 6.798-1.838-.038-2.756-1.228-2.723-2.794.027-1.356.683-2.724 1.181-3.613-3.207-.545-3.595-2.038-3.577-2.873.035-1.671 1.641-2.516 2.664-2.495.814.017 1.052.689 1.043 1.13-.011.499-.231 1.103-.582 1.825 1.58.39 4.173.42 4.147 1.655-.023 1.127-1.923 2.989-1.954 4.517-.011.562.232.881.673.89 1.754.036 4.01-3.932 5.031-5.876.73.142.996.419.987.836z"/><path d="M88.913 25.685c.041-1.983 2.199-3.441 4.765-3.389 2.612.053 4.619 1.308 4.587 2.902-.053 2.565-2.671 5.125-5.283 5.072-2.614-.053-4.1-3.085-4.069-4.585z"/><path d="M50.903 68.48c.025-1.241 1.375-2.152 2.979-2.119 1.633.033 2.889.817 2.867 1.814-.032 1.604-1.669 3.204-3.303 3.171-1.634-.033-2.562-1.928-2.543-2.866z"/><path d="M30.218 46.802c.025-1.241 1.375-2.152 2.979-2.119 1.633.033 2.888.817 2.868 1.815-.033 1.603-1.669 3.203-3.303 3.17-1.635-.033-2.564-1.929-2.544-2.866z"/><path d="M60.528 55.991c-.062 2.992-2.562 6.684-8.605 6.56-3.441-.07-5.892-1.707-5.856-3.444.011-.508.35-.98.894-1.297.917.556 2.042 1.148 4.197 1.192 3.381.069 4.955-2.262 5.003-4.596.046-2.273-1.325-3.92-3.36-4.021-1.734-.036-3.321-.037-4.502.626-.981-.349-1.446-1.047-1.432-1.705.026-1.257 1.053-1.744 2.37-1.718a7.344 7.344 0 0 1 1.759.275c2.111-.735 5.241-3.005 5.307-6.237.057-2.751-2.271-4.477-6.131-4.556-.809-.017-1.648.057-2.519.158.202.334.315.666.309.994-3.89 7.224-4.585 22.177-1.9 26.931-.398.441-2.318.642-3.185.624-2.154-.044-3.536-1.33-3.762-3.43-.854-6.542 1.331-16.736 3.201-21.785.256-.804.539-1.456.85-2.049-1.419.599-2.662 1.383-3.578 2.23-.982-.288-1.657-.932-1.645-1.56.004-.209.068-.388.191-.596.683-1.152 5.832-4.1 12.624-3.961 8.826.182 11.26 4.183 11.205 6.815-.078 3.799-4.174 6.471-7.244 7.335 3.901.981 5.872 4.194 5.809 7.215zM84.269 41.924c-.025 1.235-4.68 9.245-9.137 9.153-1.82-.037-2.973-1.038-3.353-3.129-1.301 1.568-3.056 3.028-5.007 2.988-2.277-.047-3.387-1.501-3.33-4.234.022-1.104.296-3.312.342-5.557.03-1.461-.02-2.214-.226-3.291.946-.143 1.86-.287 2.771-.269 1.593.032 2.261.827 2.224 2.648-.021 1.074-.368 3.67-.404 5.46-.025 1.236.191 1.727.549 1.734.488.01 1.775-.809 3.018-2.703.126-1.397.319-2.857.345-4.094.024-1.171-.056-2.052-.241-2.574.557-.088 1.207-.172 1.794-.159 2.082.042 3.003 1.134 2.95 3.704-.018.846-.453 3.083-.485 4.645-.03 1.496.149 2.216.735 2.228 1.105.022 4.277-3.882 5.82-7.722.785-.213 1.656.163 1.635 1.172zM77.202 60.895c-2.256.077-4.504.913-6.465 2.147l-.014.711c-.08 3.894-1.665 10.649-5.854 10.563-1.74-.035-2.698-1.084-2.661-2.897.058-2.818 2.301-5.81 5.189-8.077.003-.172.007-.319-.016-.444-.851.867-1.79 1.288-2.795 1.268-1.666-.034-2.599-1.181-2.559-3.115.06-2.941 3.23-5.743 6.269-5.681 1.004.021 1.999.435 1.982 1.243-.012.612-.657.99-1.986 1.305-.164-.418-.381-.595-.601-.599-1.054-.021-2.375 2.279-2.407 3.847-.014.687.176.959.471.965.637.014 1.696-1.46 1.355-2.789 1.193-.761 1.511-.754 1.976-.745 1.03.021 1.481.717 1.613 2.632 1.906-.965 3.879-1.538 5.545-1.504.614.011 1.146.389.958 1.17zm-9.982 5.163c-1.606 1.877-2.631 4.014-2.671 5.999-.011.515.104.858.399.864 1.126.023 1.966-3.881 2.272-6.863z"/><path d="M87.722 60.522c-.023 1.176-4.121 7.342-8.676 7.248-3.455-.07-5.904-2.522-5.836-5.879.066-3.234 2.178-5.763 4.822-5.709 1.887.039 2.989 1.262 2.948 3.271-.044 2.156-1.718 3.715-3.185 4.688.475.794 1.151 1.25 1.984 1.267 1.886.039 4.408-2.263 6.316-5.679.988-.298 1.644-.016 1.627.793zm-10.666.321c-.01.467.005.907.07 1.301.775-.794 1.383-1.712 1.406-2.839.011-.539-.177-.91-.398-.915-.465-.01-1.053 1.204-1.078 2.453z"/><path fill-rule="evenodd" clip-rule="evenodd" d="M.004 29.345H.002L0 29.35z"/><g fill-rule="evenodd" clip-rule="evenodd"><path d="M16.591 51.478l1.104-1.103c.116.836-.023 1.49-.405 2.104-.055.118-.111.234-.164.351-.107.34-.333.576-.631.754l-.205.141c-.119.075-.241.148-.361.222-.079.021-.158.038-.237.057l.023.359c1.227.24 2.442.3 3.628-.206 1.134-.483 1.828-1.463 2.63-2.317.106-.254.296-.423.524-.562a1.62 1.62 0 0 1 .646-.646c.177-.271.427-.451.722-.569.478-.575 1.177-.62 1.832-.776-.083-.703-.898-.643-1.186-1.135-1.96-1.289-3.993-2.394-6.42-2.469-.127.037-.252.076-.38.114-.26.09-.516.183-.776.264-2.304.732-4.358 2.038-6.617 2.875a12.306 12.306 0 0 1-5.247.731c-.536-.04-1.04-.441-1.604-.149.951 1.728 2.491 2.779 4.218 3.572 1.992.916 4.024.583 6.045.054l1.496-.706c.455-.321.91-.642 1.365-.96z"/><path d="M32.426 58.221c-1.174-.394-2.376-.705-3.583-.242-1.696.652-3.396 1.288-5.128 1.84-1.39.442-2.796.794-4.283.647-.32-.032-.71-.216-1.011.236 2.812 1.149 5.504 2.677 8.71 1.845l2.711-1.091c.066-.042.133-.082.199-.122 1.264-.631 2.45-1.41 3.77-1.928-.087-.833-.893-.829-1.385-1.185zM22.016 35.08c-.822-.457-1.882-.436-2.76-.384-1.202.067-2.362.073-3.533-.165a32.958 32.958 0 0 0-.273-.132c.328.908.994 1.563 1.633 2.256.411.444.821.54 1.39.581 1.492.108 2.934-.383 4.417-.295.226.058.453.114.678.173-.319-.834-.798-1.616-1.552-2.034z"/><path d="M38.82 70.154c-1.171-.494-2.296-.518-3.313.302-.573.464-1.194.786-1.997 1.032 1.17.57 2.313.802 3.478.628.804-.116 1.623-.376 2.042-1.234.163-.338.24-.539-.21-.728z"/></g>
</symbol>
<symbol id="map-marker"><path fill-rule="evenodd" clip-rule="evenodd" d="M23.122 57.727h-.185c-.072-.075-.135-.164-.217-.225a79.117 79.117 0 0 1-8.019-6.756 66.348 66.348 0 0 1-7.328-8.306c-1.932-2.606-3.591-5.385-4.87-8.378C1.356 31.378.543 28.608.22 25.698c-.474-4.298.14-8.417 1.964-12.349a22.933 22.933 0 0 1 5.893-7.794 22.327 22.327 0 0 1 5.453-3.483c1.698-.764 3.453-1.367 5.3-1.667.876-.144 1.754-.271 2.632-.405h3.136c.117.029.232.072.352.083 2.025.199 3.996.612 5.915 1.316 4.017 1.475 7.367 3.869 10.053 7.188a22.621 22.621 0 0 1 4.486 9.182c1.039 4.431.682 8.784-.766 13.069-1.745 5.164-4.655 9.661-8.084 13.835-1.517 1.847-3.16 3.595-4.81 5.326-2.173 2.279-4.521 4.374-6.977 6.347-.558.448-1.097.92-1.645 1.381z"/><path d="M29.899 18.672c-.405.546-1.076.881-1.873.918-1.147.053-1.704-.943-1.803-3.063-.083-1.801.299-5.251.236-6.589l-.044-.956c-.382.018-2.158 7.478-3.12 8.8-.283.428-.761.818-1.349.845-1.354.063-2.288-1.459-2.397-3.817-.072-1.546.211-4.401.06-7.651-.016-.352-.086-.492-.15-.489-1.274.06-4.118 8.638-4.255 12.923-.019.624.094 1.672.247 2.225-1.538-.104-3.183-.124-3.255-1.669-.066-1.418.672-4.438 1.554-7.114.616-1.865 3.002-8.267 5.52-8.383 2.788-.129 2.463 4.916 2.685 9.68.035.764.061 1.322.16 1.733 2.617-7.594 3.104-9.837 4.665-9.909.894-.042 1.586 1.124 1.658 2.686.042.908.031 2.745.084 3.86.232 5.018.749 4.835 1.377 5.97zM38.431 11.342c-.021 1.008-2.636 5.102-5.12 5.051-1.365-.028-2.047-.912-2.022-2.075.021-1.009.507-2.024.878-2.686-2.384-.405-2.671-1.514-2.658-2.135.025-1.242 1.219-1.87 1.979-1.854.605.012.782.513.775.839-.008.372-.172.819-.433 1.356 1.175.289 3.101.313 3.082 1.229-.017.837-1.428 2.223-1.451 3.356-.009.418.172.655.499.662 1.304.027 2.979-2.92 3.739-4.365.54.105.738.312.732.622zM40.108 22.326c-.015.735-1.92 3.718-3.729 3.681-.996-.021-1.492-.665-1.475-1.513.016-.735.37-1.475.64-1.957-1.736-.295-1.946-1.104-1.937-1.556.019-.905.888-1.362 1.442-1.351.44.009.568.374.563.611-.005.271-.125.597-.313.989.855.211 2.258.228 2.244.895-.013.611-1.04 1.62-1.057 2.446-.007.305.126.478.363.483.95.02 2.171-2.129 2.725-3.181.396.076.54.227.534.453zM40.399 29.777c-.012.578-1.513 2.928-2.938 2.899-.783-.017-1.176-.523-1.161-1.192.012-.578.291-1.161.504-1.541-1.368-.232-1.533-.869-1.526-1.226.016-.713.7-1.073 1.137-1.064.348.007.448.294.444.482-.004.213-.099.471-.248.778.674.166 1.78.18 1.77.706-.01.48-.82 1.275-.834 1.927-.004.239.1.376.287.379.748.016 1.711-1.677 2.146-2.506.31.061.423.179.419.358zM37.925 15.604c.018-.846.938-1.468 2.033-1.445 1.114.022 1.97.558 1.956 1.238-.022 1.095-1.14 2.186-2.254 2.164-1.114-.023-1.748-1.316-1.735-1.957zM21.712 33.859c.011-.529.586-.918 1.271-.904.696.015 1.231.35 1.223.774-.014.684-.712 1.367-1.409 1.353s-1.093-.824-1.085-1.223zM12.889 24.612c.011-.53.587-.918 1.271-.904.697.014 1.232.349 1.223.774-.014.684-.712 1.366-1.409 1.352-.697-.014-1.093-.822-1.085-1.222z"/><path d="M25.817 28.532c-.025 1.276-1.092 2.851-3.67 2.798-1.468-.03-2.513-.729-2.498-1.469.004-.217.149-.419.381-.554.391.237.871.49 1.79.509 1.442.029 2.114-.965 2.134-1.96.02-.969-.565-1.672-1.434-1.715-.74-.015-1.417-.016-1.92.267-.418-.148-.617-.446-.611-.727.011-.536.449-.744 1.011-.733.243.005.498.048.75.118.901-.313 2.236-1.282 2.264-2.661.023-1.173-.97-1.909-2.616-1.943a8 8 0 0 0-1.074.067.796.796 0 0 1 .132.424c-1.659 3.082-1.956 9.459-.81 11.487-.17.188-.989.273-1.359.266-.919-.019-1.508-.566-1.604-1.463-.364-2.79.568-7.138 1.365-9.292a5.26 5.26 0 0 1 .363-.874c-.605.255-1.136.59-1.526.952-.419-.123-.707-.397-.701-.666a.497.497 0 0 1 .082-.254c.292-.492 2.488-1.749 5.385-1.689 3.765.078 4.802 1.784 4.78 2.907-.034 1.62-1.78 2.76-3.091 3.128 1.664.418 2.505 1.788 2.477 3.077zM35.944 22.531c-.011.527-1.996 3.944-3.897 3.904-.776-.016-1.268-.442-1.43-1.334-.556.669-1.304 1.292-2.136 1.274-.972-.02-1.444-.64-1.421-1.806.01-.471.127-1.413.146-2.371.013-.623-.009-.944-.097-1.404.404-.061.794-.122 1.183-.114.679.014.964.353.948 1.13-.01.458-.157 1.565-.173 2.329-.011.527.082.737.234.74.208.004.757-.345 1.287-1.153.054-.596.136-1.219.147-1.746.01-.5-.024-.875-.104-1.098a4.48 4.48 0 0 1 .766-.068c.888.018 1.28.483 1.258 1.58-.007.361-.192 1.315-.207 1.981-.013.638.064.945.314.95.471.009 1.824-1.656 2.482-3.294.338-.09.709.07.7.5zM32.93 30.624c-.962.032-1.921.389-2.757.916l-.006.303c-.034 1.661-.711 4.543-2.497 4.506-.742-.015-1.151-.462-1.135-1.236.024-1.201.981-2.478 2.213-3.444a.943.943 0 0 0-.007-.19c-.362.37-.763.55-1.191.541-.711-.015-1.108-.504-1.092-1.328.025-1.255 1.378-2.45 2.674-2.424.429.009.853.186.846.53-.005.262-.28.423-.848.557-.069-.178-.162-.254-.256-.255-.449-.01-1.013.972-1.026 1.641-.006.293.074.409.2.411.271.006.724-.622.578-1.189.51-.324.645-.321.843-.317.439.009.632.306.688 1.122.813-.411 1.654-.656 2.365-.642.261.003.488.165.408.498zm-4.258 2.202c-.685.8-1.122 1.712-1.139 2.559-.005.22.044.366.17.369.481.009.839-1.656.969-2.928z"/><path d="M37.417 30.464c-.01.502-1.758 3.132-3.7 3.092-1.474-.03-2.519-1.076-2.489-2.508.028-1.38.929-2.458 2.057-2.435.805.017 1.275.538 1.258 1.395-.02.92-.733 1.585-1.358 2 .202.339.491.533.847.54.804.017 1.88-.965 2.693-2.422.42-.127.7-.006.692.338zm-4.55.137c-.004.199.003.387.03.555.331-.338.59-.73.6-1.211.005-.229-.075-.388-.17-.39-.198-.005-.449.514-.46 1.046z"/><path fill-rule="evenodd" clip-rule="evenodd" d="M.001 17.166L0 17.168z"/><g fill-rule="evenodd" clip-rule="evenodd"><path d="M7.077 26.606l.471-.47c.049.356-.01.636-.173.897l-.07.149a.564.564 0 0 1-.27.321l-.087.06-.154.095-.101.024.01.153c.523.103 1.042.128 1.548-.088.483-.206.779-.624 1.122-.988a.511.511 0 0 1 .224-.24.693.693 0 0 1 .275-.275.635.635 0 0 1 .308-.243c.204-.245.502-.265.782-.331-.036-.3-.383-.274-.506-.484-.836-.55-1.703-1.021-2.738-1.053l-.162.049c-.111.038-.22.078-.331.112-.983.313-1.859.87-2.822 1.227a5.251 5.251 0 0 1-2.238.312c-.229-.017-.443-.188-.684-.064.405.737 1.063 1.186 1.799 1.524.85.391 1.717.249 2.579.022l.638-.301.58-.408zM13.831 29.483c-.501-.168-1.014-.301-1.528-.104a39.56 39.56 0 0 1-2.188.785c-.593.188-1.192.338-1.827.276-.136-.015-.303-.093-.431.101 1.2.49 2.348 1.142 3.715.786l1.156-.465.085-.052c.539-.27 1.045-.602 1.608-.822-.036-.355-.38-.353-.59-.505zM9.391 19.612c-.351-.195-.803-.186-1.177-.164-.514.03-1.008.032-1.507-.07l-.117-.056c.14.388.424.667.697.962.175.189.35.23.592.248.637.046 1.251-.163 1.884-.125l.289.074c-.135-.357-.34-.69-.661-.869zM16.559 34.573c-.5-.211-.979-.221-1.413.129a2.415 2.415 0 0 1-.852.44c.499.243.986.342 1.483.268.343-.05.692-.16.871-.526.069-.145.102-.231-.089-.311z"/></g>
</symbol>
<symbol id="meat"><g><path d="M38.477 4.84l-.007.001h.007zM17.721 9.871c.049.113.23.272.301.25.135-.042.32-.188.334-.31.122-1.001-.254-1.857-.829-2.757-.152.591-.625.985-.292 1.584.213.382.309.828.486 1.233zM28.195 14.113l.482-1.268c-.321-.069-.321-.069-.354-1.209-.392-.129-.792-.186-.692.412.118.707-.146 1.038-.862 1.146l1.189.536c.08.127.158.255.237.383zM31.984 11.615a.32.32 0 0 0 .222-.098c.267-.301.086-1.386-.22-1.671-.154-.144-.235-.386-.3-.6-.046-.15-.009-.325-.009-.489l-.239.005v1.669c.103.287.234.669.379 1.046.023.062.107.135.167.138zM32.217 12.512c-.639.204-.378-.521-.534-.591l-.919 1.196.056.134 1.397-.739zM21.227 18.754c-.038-.397-.012-.817-.092-.838-.289-.077-.613-.021-.924-.014l.014.188c.263.176.528.351 1.002.664zM28.427 16.341a75.176 75.176 0 0 1-.084-.253l-1.711.495.105.314 1.69-.556zM31.346 20.758c.202-1.055 0-1.443-.587-1.341.107.23.216.456.317.686.094.216.18.437.27.655zM23.365 18.161l.028-.26-1.399-.089-.026.245c.438.261.923.135 1.397.104zM19.436 14.971c.023-.036-.202-.229-.294-.331-.201.479-.355.849-.521 1.242.713.092.598-.574.815-.911z"/><ellipse transform="scale(-1) rotate(68.507 70.028 -113.377)" cx="77.211" cy="47.688" rx="3.916" ry="2.001"/><path d="M85.938 53.005l2.959-1.164a42.195 42.195 0 0 0-2.572-7.988l-.404.943c-.555-.69-1.34-1.301-1.611-2.09-.4-1.171-.438-2.467-.637-3.747.041.003.076.013.117.017a41.43 41.43 0 0 0-1.601-2.441l-.744.93 1.499 1.444-2.603.467c2.771 4.171 4.657 8.715 5.597 13.629z"/><path d="M73.63 28.609c-4.239-2.097-7.98-.293-9.346 4.169-3.016 9.861 5.682 30.517 14.91 35.409 4.231 2.242 7.933.942 10.102-4.42.121-1.253.692-3.572.507-5.832a47.138 47.138 0 0 0-.709-5.173c-1.016.887-2.002 1.339-2.957 1.366.281 1.762.44 3.572.478 5.428.05.178.101.355.161.51l-.15-.01c-.002 1.923-.927 4.756-2.291 5.45-1.328.674-4.39-.318-5.68-1.597-7.786-7.723-12.024-17.133-11.599-28.229.07-1.815.517-3.11 1.282-3.892-.414-.395-.823-.789-1.24-1.186 1.071-.653 1.916-.542 2.579.411.972-.245 2.188-.055 3.614.585.513.409 1.516 1.037 2.308 1.867a45.205 45.205 0 0 1 2.527 2.886c.658-.485 1.681-.768 3.231-.958a43.82 43.82 0 0 0-2.197-2.672c-1.501-1.687-3.497-3.106-5.53-4.112zM52.9 42.562c.029.125.06.249.09.374.611-.077 1.223-.157 1.834-.235l-.42-.678-1.504.539zM40.594 54.901c-.063-.173-.346-.263-.467-.347-.846.59-1.217 1.316-1.041 1.978.049.187.347.472.476.444.585-.123 1.254-1.475 1.032-2.075zM19.62 61.155c.175.075.457-.015.65-.108.078-.039.086-.301.061-.449-.081-.48-.191-.955-.318-1.562-.291.312-.488.511-.672.722-.362.413-.23 1.181.279 1.397zM10.652 62.533c.228.166.46.33.859.617-.137-1.3-.552-1.799-1.498-1.979-.132-.025-.376.083-.424.195-.051.113.024.357.128.453.287.263.618.48.935.714zM28.492 69.677c-.01-.261.081-.627-.055-.757-.19-.183-.549-.188-.835-.269l-.178.312.941.95.127-.236zM24.371 56.123c-.025.103.199.384.275.371.192-.032.421-.146.53-.3.141-.2.179-.472.258-.703-.235.039-.503.026-.706.134-.166.089-.311.31-.357.498zM45.043 49.934l.411.53 9.854-11.57-1.776-1.666-.283.095c-5.436 1.833-7.798 6.462-9.381 10.704l-.097.261.725.937h-.001c.186.446.347.668.548.709zM58.324 71.693l-1.592.207-.494-.249.314 1.639c.381-.136.381-.136 1.152 1.035.492-.118.947-.318.457-.877-.579-.663-.517-1.179.163-1.755zM56.219 57.87c.249.023.729-.19 1.071-.378.137-.075.251-.395.267-.564.054-.549.057-1.081.085-1.766-.579.487-.968.802-1.339 1.127-.729.634-.811 1.512-.084 1.581zM40.977 61.521c-.2.02-.627.244-.747.396-.125.156-.098.422.031.499.357.208.799.346 1.213.507.298.115.605.225 1.129.42.275-1.515-.194-1.963-1.626-1.822zM41.605 67.251c.485-.947.485-.947-.847-1.172-.292 1.263-.292 1.263.847 1.172zM54.809 69.681l1.47-1.623-.313-.261-1.408 1.674c.083.071.167.141.251.21zM65.106 63.619c-.806.363-.255.985-.264 1.479-.001.051.358.109.522.156l-.258-1.635zM83.958 76.7l-1.228-.406c.354.84.61.905 1.228.406zM58.303 80.833l1.801.561.066-.246-1.822-.502-.045.187zM51.354 80.615l.043-.995c-.504.376-.821.615-1.069.803l1.026.192z"/><path d="M78.563 24.417a1.254 1.254 0 0 1-.305.665c-.102.109-.576.005-.771-.142-.711-.533-1.318-1.217-2.065-1.675a1.654 1.654 0 0 1-.652-.702c-2.858-1.001-6.935-1.46-10.011-.271l-.407.159C50.999 27.708 41.874 36.059 36.453 47.98c-.959 2.11-1.996 4.209-3.181 6.194.24.004.481.013.723.016-.284.188-.585.248-.889.264-2.709 4.465-6.206 8.318-11.381 10.357-1.17.46-2.42.823-3.714 1.079-1.438.283-4.13.624-6.334-.126-.088-.173-.32-.296-.838-.559l.021.301c-3.879-1.289-6.788-.599-8.956 2.124-2.577 3.239-2.535 6.777.124 10.23.95 1.232 1.616 2.724 1.782 3.991.563 4.308 3.031 6.841 7.136 7.327 3.995.476 6.835-1.563 8.252-5.925.375-1.153.979-2.752 1.889-3.302 8.808-5.333 17.519-6.339 25.977-3.032-.078.366.083.818-.105 1.189.531-.25.806-.553.854-.902.638.262 1.276.51 1.915.742.026-.64.093-1.281.016-1.906-.121-.98.493-1.423 1.097-1.986l-.064-.021c-2.474-.805-5.033-1.637-7.626-2.138l-.53-.102c-7.392-1.424-7.392-1.424-9.713-7.974-.336-.949.237-2.565.831-3.66 1.787-3.3 3.718-6.598 5.586-9.787.692-1.182 1.384-2.363 2.07-3.548a48.503 48.503 0 0 1 3.551-5.295l-1.019-.498c.208-.168.61-.581.672-.533.237.172.57.259.878.372a43 43 0 0 1 4.938-5.24c.101-.824.203-1.648.298-2.471l.502.083c.006.571.08 1.155.005 1.711a47 47 0 0 1 6.374-4.555c-.766 5.886-.645 11.38.352 16.519.307-.338.637-.682 1.021-.793.376-.109.893.256 1.379.42-.777 1.52-.513 2.715.672 3.545.212.146.584.08.883.085.341.007.68.005 1.021.01-1.627-4.965-2.162-10.055-1.572-15.234.205-1.801.646-3.402 1.281-4.768a2.918 2.918 0 0 0-.078-.288l.394-.308c.268-.498.561-.96.884-1.381-.042-.389-.35-.75-.93-1.053-.516-.267-1.04-.525-1.587-.708-.974-.327-.981-.841-.358-1.644.967 1.419 1.989 2.268 3.696 1.761a.73.73 0 0 1 .694.13c.529-.405 1.09-.754 1.704-.996 3.004-1.183 6.716-.198 10.184 2.703 10.96 9.167 15.76 20.904 14.268 34.885-.437 4.079-2.146 6.818-4.946 7.921-2.496.982-5.822.622-9.621-1.041-.398-.387-.91-.844-1.492-1.362-1.646-1.468-3.902-3.478-5.668-5.813-2.945-3.895-5.141-7.899-6.586-11.993a1.416 1.416 0 0 0-.225.269c-.068.108-.125.225-.187.337-.157.016-.313.035-.444.104-.051.027-.092.082-.136.129.105-.235.232-.517.415-.92-1.57 1.318-2.064-.316-3.012-.613-1.721-.539.329-2.003-.789-3.016l-.675.494c.544 2.533 1.285 4.986 2.269 7.346.177.049.336.113.444.211.112.102.096.482.001.764 2.158 4.82 5.269 9.273 9.31 13.397-.076-.06-.149-.124-.229-.18-.125-.086-.417-.135-.478-.067-.113.132-.213.403-.148.54.518 1.126 1.465 1.778 2.646 2.348-.112-.359-.107-.719-.168-1.04a62.174 62.174 0 0 0 4.445 3.815c-7.755 2.089-14.853 2.115-22.104.128l.07-.692-.146-.104-.39.664c-.453-.13-.904-.239-1.359-.385l-.788-.254c.208 1.481.168 2.845-.403 4.143 7.225 2.378 14.58 2.879 22.225 1.502a.13.13 0 0 1-.008-.017l.367-.145.031.089a55.622 55.622 0 0 0 7.734-2.053l-.219-.027c.64-.71 1.127-1.279 1.651-1.82.161-.166.496-.394.615-.332.292.154.659.423.726.71.037.154.028.308 0 .457l.005-.002a67.147 67.147 0 0 0 2.065-.854c2.291-.99 4.235-2.773 6.115-4.5.844-.772 1.715-1.572 2.598-2.279l.117-.095.047-.144c4.62-14.431-4.157-36.729-16.614-44.488zm-47.11 34.791c.661.428.661.428.339 1.471-.733-.809-.733-.809-.339-1.471zm-1.05 3.182c.275.417.437.656.593.9.216.336.452.662.63 1.018.064.129.046.389-.043.479-.087.088-.358.103-.476.03-.834-.515-1.047-1.142-.704-2.427zm-.959 3.371l-.009-.004.004-.003.005.007zm-12.111 1.255l1.511 1.189-.112.163-1.551-1.141c.052-.07.102-.14.152-.211zM4.015 75.167c-.082.044-.341-.11-.428-.238-.313-.456-.535-.981-.885-1.402-.551-.659-.061-1.255-.012-2.017.918.973 1.582 1.938 1.665 3.198.01.153-.183.376-.34.459zm2.087 6.948l.349-1.65c.138.104.459.291.439.338-.187.466.111 1.259-.788 1.312zm2.489 2.343l-.062-.229c.381-.08.768-.227 1.141-.198.104.008.169.528.31 1.011-.656-.277-1.022-.429-1.389-.584zm7.732-2.994l-.203-.362c.664-.335 1.328-.671 1.99-1.011l.164.293-1.951 1.08zm5.717-6.679l-1.546 1.237a4.96 4.96 0 0 0-.101-.151c.071-.139.143-.281.213-.423a23.8 23.8 0 0 0-1.563.851c-.548.327-1.075.776-1.557 1.287l-.02.111-.043-.047c-.942 1.02-1.688 2.294-1.967 3.479-.754 3.2-2.123 4.494-4.264 3.83-.92-.286-1.671-1.873-2.334-3.273a27.453 27.453 0 0 0-.765-1.535 20.96 20.96 0 0 1-1.768-4.142 28.535 28.535 0 0 0-.536-1.558c-.535-1.464-1.141-3.123-.695-3.984.374-.724.86-1.207 1.443-1.437 1.337-.526 3.029.297 4.214 1.08.586.387 1.331.665 2.127.839-.582.302-1.339.352-1.782.976.381-.142.778-.255 1.14-.437.298-.147.529-.365.787.066s.538.293.809-.033c.264-.315.381-.613.313-.907l.227-.432c.078.029.155.061.232.091-.05.037-.104.069-.144.116l.462.063-.192.704c.679-.001 1.346-.074 1.941-.249 1.679-.492 3.717-1.363 5.595-2.203 1.494-.668 3.036-1.356 4.597-1.883.757-.256 1.976-.081 2.839.349l-.292-.738.332.128.183-.19c.166.185.354.348.532.52.163-.224.373-.428.476-.677.105-.258.107-.559.173-.961.295.425.519.744.721 1.034-.777.97.585.715.63 1.276-.088.054-.226.139-.389.237.168.361.602.767-.06 1.056l-.689-.858-.308.146c.106.444.094.987.356 1.301.221.264.761.261 1.216.393.038.65-.554.322-.94.499-.379-.11-.779-.206-1.255-.333.03.356.076.667.077.965l-.251.149c-.224.135-.425.252-.634.375-.004-.005-.01-.008-.015-.013-.27-.303-.509-.633-.76-.949a23.89 23.89 0 0 1-.165.134c.154.469.285.837.427 1.123-.289.16-.573.313-.86.439-.134.059-.272.114-.407.173.49-.089.98-.176 1.465-.287.042.054.09.094.138.136-.576.088-1.151.184-1.739.209-.842.36-1.7.709-2.539 1.041a78.828 78.828 0 0 0-3.241 1.347c.051-.016.096-.028.156-.06zm9.205-2.542c.036-.013.063-.018.101-.03-.007.014-.017.025-.024.039l-.077-.009zm-3.807 4.097c-.19-.85.192-1.333 1.212-1.41-.502.454-.23 1.425-1.212 1.41zm5.653-5.211c.583.025 1.182-.298 1.773-.469.042.115.082.23.123.346l-2.327.635a.438.438 0 0 1-.026-.355.98.98 0 0 0 .054-.233c.133.042.268.071.403.076zm51.906-36.564c-.099-.849-.19-1.645-.313-2.685.261.085.845.206.839.285-.046.808.817 1.859-.526 2.4zM61.991 52.291a.411.411 0 0 0 .037.072l-.056-.031.019-.041zm28.353 18.508c-.466-.479-.941-.531-1.396-.196-.081.06-.104.207-.143.316-.124.344-.246.688-.363 1.034-.053.161-.094.328-.154.54a299.63 299.63 0 0 0-1.307-.528l.025-.131c.181.032.365.05.539.104.233.072.412.088.48-.213.012-.056.116-.092.179-.138.063-.045.185-.095.181-.135a.52.52 0 0 0-.117-.277c-.115-.143-.252-.268-.381-.401l.111-.099c.108.102.218.202.443.414-.291-.747.376-.725.604-1.038.417-.569.7.374 1.216.087l-.199-.633c.032-.03.064-.061.098-.09.097.112.217.212.287.341.1.186.233.394.225.586-.007.154-.207.298-.328.457zm3.012-18.809c.474.124.535.275.244.758l-.244-.758zm.372 14.15l.72-.724c.035.097.137.298.112.315-.249.177-.357.679-.832.409zm1.013 2.763l-.516-.753c.015-.045.028-.091.044-.137.221.083.465.136.646.272.05.039-.088.325-.174.618zm.203-6.983c-.056-.004-.138-.169-.14-.261-.01-.336.049-.676.01-1.004-.064-.517.381-.658.654-1.031.148.797.17 1.506-.201 2.175-.044.081-.215.132-.323.121z"/><path d="M23.792 35.739l-.028.26c-.399.027-.804.106-1.184-.021l.37.626c.071.223.281.849.497 1.141l-.004.003.788 1.101.346.424c1.129 1.266 2.626 2.044 4.712 2.45 1.172.229 2.083.519 2.927.935l.31.106c.363.08.631.198.844.372l.97.431.173-.511c.091-.269.244-.528.405-.803.244-.414.495-.842.592-1.378l.056-.311-.256-.184c-1.081-.776-2.304-1.142-3.487-1.496-.33-.099-.66-.197-.983-.304a5.093 5.093 0 0 0-.175-.056c.259-.252.497-.517.712-.802l-.217-.469c.198-.035.349-.008.459.077.078-.128.171-.241.236-.383.25-.554.424-1.115.536-1.741 1.09 1.032 2.422 1.911 4.149 1.911a5.58 5.58 0 0 0 1.282-.156l.154-.037.105-.119a40.48 40.48 0 0 0 3.19-4.113l.091-.135-.006-.163c-.042-1.233-.479-2.303-1.005-3.386 1.398.212 2.736.037 4.101-.545 2.024-.864 3.344-2.338 3.924-4.38.103-.363.185-.718.246-1.065l.235-.266-.202.068c.308-2-.088-3.746-1.199-5.308a5.834 5.834 0 0 0-.9-.998l-2.62-1.213-.781 1.609c-.345-.405-.67-.787-.797-1.225l-.129-.389-.407.051c-.794.099-1.479-.018-2.017-.4a7.826 7.826 0 0 0 1.919-.135l.442-.088-.042-.449c-.025-.27-.044-.542-.064-.815l-.032-.434a7.916 7.916 0 0 1 1.952.655l.271.131.242-.177c1.045-.762 1.706-1.798 2.195-2.811.054.098.104.199.155.303.088.177.176.351.278.514 1.382 2.186 3.3 3.39 5.403 3.39 1.408 0 2.844-.557 4.152-1.61.576-.466.922-1.08 1.223-1.702.404 1.083.605 1.987.642 2.844.081 1.955.669 3.77 1.8 5.551l.197.312.629-.171c.758-.204 1.542-.415 2.278-.815l.526-.287-.377-.467c-1.045-1.293-1.549-2.483-1.582-3.739l.048-.042-.058-.422c.057-.828-.161-1.58-.374-2.313l-.038-.094c-.107-.205-.145-.332-.133-.451l.012-.107-.033-.102a8.667 8.667 0 0 1-.176-.636c-.11-.436-.224-.886-.457-1.328l-.115-.221c-.644-1.227-1.309-2.496-2.295-3.575l-.178-.125c-.082-.034-.154-.114-.318-.362-.739-.8-1.776-1.767-3.217-2.139l-.684-.197c-.17-.021-.34-.045-.51-.069-.61-.087-1.209-.183-1.922-.116l-.412.047-.378.064-.883.564.617.43c.11.076.23.137.35.197.157.078.257.129.306.2l.074.084c.293.266.61.473.918.673.273.179.533.349.764.551a6.122 6.122 0 0 1 1.979 3.265c.269 1.102-.022 1.917-.866 2.422-1.14.684-2.156.633-3.029-.174-1.146-1.057-1.902-2.446-2.311-4.249-.116-.512-.232-1.106-.139-1.675l.023-.144-.197-.461c-.453-1.08-.922-2.197-2.107-2.893-.217-.126-.417-.271-.619-.415C45.159.78 44.598.38 43.818.225c-.63-.123-1.239-.142-1.828-.16-.337-.01-.673-.021-.957-.043-.553-.116-1.083.223-1.38.472-.222.186-.329.396-.316.626.019.344.286.521.445.627l.037.024.016.515.617-.19a.475.475 0 0 1 .107.065c1.006.728 1.865 1.655 2.603 2.793.531 1.024.766 1.99.719 2.952-.086 1.693-.715 2.741-1.977 3.298-.463.205-.924.32-1.408.353l-1.058.072.337.357-3.824.498c.048-1.191.277-1.807.787-2.189l.371-.278-.249-.389c-.348-.547-.598-1.176-.762-1.918-.068-.317-.112-.638-.156-.958l-.05-.356-.179-.377-.717-.115-.688 1.342c-.499 1.621-.51 3.298-.014 5.195.025.061.056.12.088.179.015.03.036.07.046.05l-.05.175.088.175c.11.219.221.439.321.665.937 2.09 2.436 4.56 5.839 5.116l1.994-.056.142-.025c.158-.052.31-.083.453-.093l.131.18.087-.179c.339.031.645.195.935.505.046.048.096.094.114.108.9.976 1.099 2.13.627 3.819-.035.28-.13.515-.328.768a3.83 3.83 0 0 1-.386.512l-1.239 1.406 2.033-.69c-1.111.787-2.121.984-3.051.571l-.22-.098-.213.111c-.263.135-.512.113-.851-.065l-.098-.04c-.546-.153-.957-.569-1.428-1.045-.639-.648-.909-1.496-1.195-2.394-.167-.523-.339-1.064-.592-1.579l-.113-.231-.819-.132-.151.366c-.52 1.258-.724 2.579-.922 3.857l-.074.516-.001.23.33 2.438.052.175c.204.403.413.803.622 1.204.454.869.922 1.768 1.327 2.669.28.623.218 1.172-.183 1.631-.343.392-.812.373-1.588.265-.522-.073-.901-.449-1.127-.751-.511-.684-.759-1.674-.626-2.59l.002-.251-.256-.025.248-.034-.062-.44c-.529-2.125-2.036-3.475-3.176-4.338a7.913 7.913 0 0 1-.465-.392l-.171-.1c-.138-.05-.866-.4-.995-.497l-.359-.147c-.247-.082-1.153-.191-1.433-.148l-.982-.054c-.029 0-2.984.325-3.168 1.162l-.073.332.281.19a10.27 10.27 0 0 1 1.82 1.538c.227.206.449.411.669.617.272.474.457.744.595.896.051.098.129.239.219.402.197.354.527.946.594 1.16l.047.105c.1.168.203.36.306.547.145-.185.184-.445.125-.802-.1-.597.3-.541.692-.412.033 1.14.033 1.14.354 1.209l-.482 1.268-.237-.384a.163.163 0 0 1-.023-.011c.334.745.614 1.575.687 2.482.111 1.346-.493 2.246-1.62 2.431l-.792-.035-.065.012c-.358.066-.67-.085-1.052-.261-.157-.072-.314-.144-.475-.204l-3.079-2.246.546 1.919c.432.031.868.059 1.304.086zm8.045-9.138l.239-.005c0 .164-.037.339.009.489.065.213.146.456.3.6.306.285.487 1.37.22 1.671a.316.316 0 0 1-.222.098c-.06-.003-.144-.076-.167-.137-.146-.377-.277-.76-.379-1.046v-1.67zm.246 3.158c.156.069-.105.794.534.591l-1.397.739-.056-.134.919-1.196z"/></g>
</symbol>
<symbol id="natural"><g fill-rule="evenodd" clip-rule="evenodd"><path d="M60.186 71.927c.563-.721.885-1.131 1.098-1.406l-1.289-.968c-.396.05-.779.082-1.14.084.413.722.864 1.463 1.331 2.29zM62.062 62.701c.064-1.222.088-1.902-.103-2.563-.174.991-.38 1.984-.623 2.978l.726-.415zM60.633 65.674c.236-.055.478-.119.723-.19.219-.484.399-.997.523-1.504l-.808.162a41.355 41.355 0 0 1-.438 1.532zM30.251 21.718c-1.13-.374-2.285-.536-1.997 1.188.113.671.093 1.214-.042 1.666.86.669 1.703 1.351 2.523 2.049l.539-1.414c-.926-.201-.926-.201-1.023-3.489zM46.722 57.51c.316.802.599 1.633.848 2.51l.729-.74a76.643 76.643 0 0 0-1.21-3.302c-.134.516-.273 1.024-.367 1.532zM46.018 53.559l.055-.032a72.704 72.704 0 0 0-.819-1.816c-.859-.115-1.47-.034-1.939.272a15.412 15.412 0 0 1 2.122 2.846l1.279.257-.698-1.527zM54.877 60.763c-.361.544-.419 1.466-.26 2.489.196-.561.383-1.122.549-1.687l-.289-.802zM57.355 34.918c.16-.176-.248-1.234-.366-1.229-.409.019-.821.074-1.264.147.297.574.58 1.157.849 1.751a4.8 4.8 0 0 0 .781-.669zM56.383 27.417c-2.072-.232-3.146.472-3.324 2.025.167.234.345.459.505.698 1.655-.003 1.608-1.982 2.819-2.723zM39.946 22.541l-2.652 3.452.162.385 4.031-2.132c-1.844.587-1.092-1.506-1.541-1.705zM25.672 36.9l3.65-1.202c-.286-.201-.568-.403-.869-.598l-3.085.892.304.908zM48.766 66.548l.005.037c.024-.014.048-.022.072-.037h-.077zM37.04 56.83l.37-.41-2.923-2.69c-.298 2.721 1.117 2.92 2.553 3.1zM15.944 40.544l.081-.75c-1.227-.077-2.453-.156-3.68-.234.027.032.051.065.078.098.219.252.339.503.419.669l.069.141.093.173c.957.168 1.957-.031 2.94-.097zM2.257 33.967c1.041.135 1.469-.29 1.721-.868a39.572 39.572 0 0 1-.672-1.633l-1.049 2.501zM24.673 65.312l.499.736c.434.263.873.517 1.318.76l-1.287-1.921-.53.425zM80.3 60.058l.782 2.887.549-.14c.468-1.136.166-2.088-1.331-2.747zM37.087 7.978l-2.905-3.343-.435.414 3.018 3.25.322-.321zM50.697 16.99l-1.316 1.937 3.128-.284-1.812-1.653z"/><path d="M79.84 32.935l-.088-.848-.308.163-.046-.109.316-.411-.222-2.128-2.077 1.608c.021.65.049.66.28.709l-.394 1.034-.192-.313c-.324-.146-.646-.292-.971-.437-3.011 2.498-6.284 4.113-10.007 4.937-1.649.364-3.237.899-4.773 1.417-.63.212-1.26.425-1.891.625a2.785 2.785 0 0 0-1.208.764 39.715 39.715 0 0 0-1.688-4.359c-.365.261-.765.512-1.174.805l-1.41-2.246c.661-.114 1.22-.224 1.735-.31a36.412 36.412 0 0 0-2.161-3.695c-.161 0-.335-.012-.532-.052a4.617 4.617 0 0 1 .027-.646 35.971 35.971 0 0 0-6.882-7.298 37.87 37.87 0 0 0-4.399-3.019c.112.933.038 1.841-.325 2.249-.145.164-.428.293-.639.282-.171-.008-.414-.219-.481-.394-.42-1.089-.799-2.192-1.095-3.02v-.493c-2.992-1.48-6.258-2.643-9.872-3.491-3.058-.717-6.195-1.466-9.224-2.393l.03.066-2.205-.442c.037-.109.075-.2.113-.293-5.626-1.983-10.393-5.58-13.931-8.524a13.704 13.704 0 0 0-.574-.442L.621 0l-.29 3.365A93.108 93.108 0 0 0 0 10.02c1.124 2.063 1.778 4.115 1.494 6.434-.042.35-.576.774-.965.893-.069.021-.176-.028-.29-.1.187 2.211.47 4.352.867 6.424.536 2.792 1.271 5.38 2.199 7.795l.454-1.082c.268.294.915.854.849.956-.309.481-.385 1.194-.63 1.759a35.652 35.652 0 0 0 3.268 5.938l-2.624-.282-.95-.03-1.697 1.712.518 1.159c.272.608.533 1.224.793 1.838.585 1.381 1.191 2.81 1.929 4.187 1.519 2.834 3.524 5.337 6.059 7.547v2.021l-.031.685.349.52c.107.16.216.315.329.465 5.421 7.265 12.483 12.168 20.99 14.573 5.047 1.427 10.262 1.855 14.696 2.087.188.01.37.015.552.015 3.209 0 5.639-1.529 7.024-4.423.21-.439.424-.876.638-1.314.075-.15.147-.309.223-.461l1.738.236c.327.045.676.067 1.036.067l.038-.002a18.707 18.707 0 0 1-.915-1.769c-.443-1.009.69-2.741 1.841-3.111 1.24-.398 1.704-1.833 1.263-3.123-.512-1.489-.785-3.063-.938-4.648 1.111 1.613 1.631 2.373 1.854 3.151.564-3.219.766-6.422.595-9.58-.01-.18-.03-.356-.042-.534h1.669c-.034-.333-.071-.588-.087-.846a71.34 71.34 0 0 1-.08-1.662c-.008-.178-.061-.396.02-.527.452-.729 1.149-.927 2.077-.517.08-.293.278-.61.201-.83-.097-.276-.402-.494-.649-.697-.172-.142-.397-.214-.6-.317l-.084.183.641.779c-.563.694-1.498-.47-1.761.569-.143.568-1.093.918-.26 1.803-.438-.168-.647-.25-.858-.332l-.102.206c.257.112.521.209.765.345a.783.783 0 0 1 .322.323c.027.057-.113.193-.176.293-.063.101-.189.21-.174.295.075.463-.186.543-.555.574-.111.01-.223.032-.333.055-.16-2.043-.474-4.065-.788-6.026-.066-.414-.132-.828-.198-1.252.35-.115.699-.232 1.048-.351 1.179-.397 2.307-.774 3.438-1.074-.021-.329.344-.541.417-.831.186-.736.85.087 1.247-.404l-.454-.552.061-.13c.142.074.303.125.424.225.176.144.393.299.461.494.055.155-.086.382-.143.589-.657-.291-1.152-.151-1.473.367-.018.029-.016.072-.019.112.143-.035.285-.074.429-.106a26.948 26.948 0 0 0 9.382-4.051c.004 1.55-.104 3.07-.322 4.582a.932.932 0 0 0 .2-.299c.1-.223.195-.449.259-.683.114-.418.329-.434.682-.191-.572.439-.904.891-.65 1.594.105.292-.201.526-.523.429l-.103-.033c-.034.193-.061.389-.098.583-.604 3.162-1.813 5.725-3.805 8.062l-3.013 3.539 5.079-.522c-1.144 2.062-2.878 3.721-5.313 5.111l-6.654 3.8-.009.175a6.026 6.026 0 0 1-.174 1.104l4.812-.966c-1.665 1.051-3.6 1.962-5.335 2.47-.55 1.222-1.331 2.248-1.999 2.431l-.662.661 1.3.978c4.924-.614 12.368-4.763 14.081-8.858l.752-1.797c1.852-1.901 3.135-4.144 3.883-6.771l.756-2.651-2.259.236c.131-.241.243-.492.365-.739.359-.008.637-.289.512-.631a2.32 2.32 0 0 1-.076-.284c.233-.539.442-1.092.632-1.656a5.2 5.2 0 0 1 .362-.308 1.603 1.603 0 0 0-.226-.134c.256-.822.483-1.665.652-2.548.655-3.426.79-6.852.412-10.479zM1.508 5.024l-.019-.255c.42-.008.86-.085 1.25.019.109.029.073.597.125 1.133l-1.356-.897zm18.913 7.027c1.369.656 1.894 1.833 2.167 3.222-.546-.511-1.092-1.021-1.575-1.475l-.609.617c-.1-.32-.292-.644-.277-.958.021-.468.187-.928.294-1.406zm-5.979-.755l1.37 1.261-.174.192c-.672-.084-1.335-.178-1.196-1.453zM3.899 4.647l1.893.121-.038.351c-.641.043-1.296.212-1.89-.14.013-.11.024-.221.035-.332zm2.943 35.15c.897-.019 1.834-.184 2.667.04.232.062.157 1.272.266 2.419l-2.893-1.915a86.696 86.696 0 0 1-.04-.544zm36.499 32.297c-.9-.438-1.548-.719-2.159-1.066-.269-.154-.659-.463-.64-.667.027-.283.502-.796.589-.759.761.329 1.537.689 2.177 1.204.21.17.033.819.033 1.288zm6.979-5.957c.225.905.423 1.816.62 2.726-.624.156-1.261.295-1.86.357l-.281-2.413c-.007-.074-.019-.147-.027-.222-2.458 1.388-4.278 1.401-5.382-.037h5.377c-.076-.69-.151-1.374-.254-2.051a35.836 35.836 0 0 0-.942-4.478l-.359.363c-.213-.683-.62-1.373-.591-2.045.013-.276.053-.553.103-.828a25.67 25.67 0 0 0-.478-1.138 17.445 17.445 0 0 0-.809-1.544l-3.426-.686c.366-1.088.735-1.786 1.304-2.16a14.734 14.734 0 0 0-3.261-2.595l2.348.119-.942-2.632c-.168-.47-.321-.926-.471-1.369-.339-1.009-.659-1.961-1.087-2.914-.13-.29-.266-.578-.407-.861a66.878 66.878 0 0 1 2.061 3.133 68.168 68.168 0 0 1 3.698 6.847c.726.098 1.625.331 2.78.692l-1.961 1.124c.352.807.69 1.624 1.017 2.451.056-.212.11-.425.16-.64 2.92 1.399 4.039 3.911 4.622 6.877-1.164-1.091-2.33-2.181-3.36-3.148l-.212.213a84.433 84.433 0 0 1 2.02 6.859zm4.298-2.885c-.09.256-.178.512-.274.767-.137.364-.283.725-.438 1.085a86.745 86.745 0 0 0-2.573-8.459l.176-.178c.251.236.537.502.821.77-.143-.725-.416-1.339-1.131-1.681-.033.145-.071.286-.104.429-.065-.178-.139-.35-.206-.526l.181.036a31.143 31.143 0 0 1-.172-.374l.493-.283c-.359-.111-.616-.173-.813-.178-1.633-4.161-3.566-8.063-5.85-11.756a68.511 68.511 0 0 0-13.991-16.282l-.854 2.243-.683-1.107-3.432-1.547c1.387-.209 2.173-.718 2.446-1.638-3.796-2.951-7.981-5.622-12.593-8.028a5.775 5.775 0 0 0-.626-.268l-1.654-.616-1.713 2.83 9.454 8.005-4.157-.129-1.33.084-1.286 3.046 2.07.677c.185.064.371.125.565.173 3.678.888 6.824 2.069 9.617 3.613.663.366 1.291.749 1.895 1.141l1.854-.536.243.73-1.228.404c3.32 2.337 5.692 5.106 7.179 8.42.197.438.375.901.546 1.384l-7.905-.398c.043-.513-.135-1.246-.394-1.486-.177-.166-.271-.445-.346-.69-.052-.172-.01-.374-.01-.563a8.412 8.412 0 0 1-.275.007v1.921l.277.773-12.147-.614-.265 3.832 1.735.229c.762.103 1.524.199 2.286.295 1.639.209 3.333.425 4.979.681l1.619.248c2.502.383 5.09.777 7.562 1.338 4.181.948 7.022 3.187 8.685 6.843.923 2.033 1.551 4.3 1.976 7.135.066.44.122.882.173 1.326l-13.27 1.172 1.379 2.056a35.47 35.47 0 0 1-6.619-2.796l1.845 2.756-.537.36-2.626-3.876a35.142 35.142 0 0 1-7.333-5.93l2.354.505.595-1.142a3.493 3.493 0 0 0-.517-.097c.062-.575-.021-1.23.237-1.698.12-.219.467-.315.847-.424l-1.198-.618c-5.471-2.83-9.283-6.357-11.657-10.788-.53-.989-.988-2.018-1.448-3.094l7.521.81-1.568-2.936a3.188 3.188 0 0 1-1.093-.396c.025-.235.049-.472.075-.707.12.008.239.016.359.022-3.807-4.445-6.288-9.872-7.578-16.591-.923-4.81-1.239-9.997-.959-15.771 2.051 1.611 4.415 3.289 7.045 4.771.009-.032.023-.063.032-.095.188-.693.545-.719 1.128-.316-.28.215-.52.435-.716.664 1.858 1.019 3.843 1.936 5.958 2.649 3.703 1.248 7.544 2.148 11.276 3.023 6.061 1.422 11.071 3.765 15.316 7.162 5.587 4.471 9.409 10.399 11.357 17.621 1.755 6.502 1.737 12.844-.039 18.89l2.479 6.89c-1.487-.65-2.706-3.136-3.027-5.204zM38.974 48.039c-.259-.631-.506-1.268-.781-1.891-.29-.663-.605-1.314-.914-1.979 1.694-.294 2.277.825 1.695 3.87zM32.698 33.54a32.75 32.75 0 0 0-4.336-2.843 33.486 33.486 0 0 0-.976-.52l.469-1.11a66.352 66.352 0 0 1 4.843 4.473zm47.177 4.833c-.073-.178-.145-.358-.221-.534-.083-.188-.172-.372-.259-.559.48-.084.643.233.48 1.093zm-9.073-2.176a8.727 8.727 0 0 0-.013-.154c.255-.005.52-.051.755.011.065.018.045.36.075.684-.385-.255-.602-.397-.817-.541zm2.562.058c-.386.026-.782.128-1.14-.085l.021-.2 1.143.073c-.01.071-.016.141-.024.212zm2.749-1.03c-.027-.085-.057-.171-.085-.256l1.396-.404.068.207-1.379.453zm2.492 4.758l.827.76-.104.115c-.406-.05-.806-.108-.723-.875z"/><path d="M76.857 31.644l-.253.196c-.178.136-.319.247-.464.364.44-.067.67-.236.717-.56zM67.182 31.077c.058.13.266.313.347.288.155-.047.367-.216.385-.355.141-1.152-.291-2.137-.953-3.172-.175.68-.719 1.133-.336 1.822.244.439.354.952.557 1.417zM86.157 46.514c-.092.406-.233.798-.25 1.195-.012.269.15.544.234.814L86.66 48 88 49.256c-.232-1.182-.678-2.184-1.843-2.742zM85.667 45.804l.803-.461c-1.665-.521-2.033-.399-2.401.694.585.116 1.166.233 1.877.376-.164-.356-.236-.51-.279-.609zM83.248 30.359c-.052-.172-.01-.374-.01-.563l-.275.007v1.92c.118.329.269.77.437 1.204.027.07.124.153.191.158a.37.37 0 0 0 .256-.113c.307-.347.099-1.595-.253-1.922-.178-.166-.272-.446-.346-.691zM83.246 33.437l-1.059 1.376c.022.051.044.102.064.154l1.607-.851c-.734.234-.434-.6-.612-.679zM71.216 41.298c-.044-.457-.015-.94-.106-.966-.333-.088-.706-.022-1.064-.015l.017.217c.303.202.607.403 1.153.764zM82.182 42.06c.122.265.248.525.364.789.109.248.208.502.312.754.231-1.215-.001-1.66-.676-1.543zM82.086 47.108l.147-.163c-.348-.319-.695-.641-1.165-1.073-.118 1.085.446 1.165 1.018 1.236zM73.675 40.615l.033-.299-1.611-.103c-.009.093-.021.188-.029.282.504.3 1.062.157 1.607.12zM82.105 27.63l-1.157-1.333-.174.165 1.203 1.295c.044-.042.085-.085.128-.127zM31.062 60.278c-.012.268.151.544.234.815.168-.171.336-.341.519-.524l1.34 1.254c-.232-1.182-.679-2.183-1.843-2.741-.092.406-.233.798-.25 1.196zM30.821 58.372l.803-.461c-1.665-.522-2.033-.398-2.401.694l1.877.376-.279-.609zM28.013 56.17c.232-1.214 0-1.659-.676-1.543.124.265.249.525.365.789.109.251.207.503.311.754zM27.241 59.676c.049-.055.099-.108.147-.163-.348-.32-.696-.642-1.166-1.072-.118 1.084.447 1.164 1.019 1.235zM27.26 40.199l-1.158-1.334-.173.165c.401.433.802.863 1.204 1.295l.127-.126zM48.283 45.858c-.056.249-.142.489-.152.733-.008.164.093.333.144.5l.318-.322.821.771c-.142-.725-.416-1.339-1.131-1.682zM47.983 45.423l.492-.283c-1.021-.319-1.246-.244-1.472.426l1.15.231-.17-.374zM46.5 35.955c-.032-.105-.007-.229-.007-.345a9.646 9.646 0 0 0-.168.004v1.177c.072.201.164.472.268.737.017.043.075.094.117.097a.223.223 0 0 0 .156-.069c.189-.213.062-.978-.154-1.179-.108-.101-.166-.272-.212-.422zM46.5 37.841l-.649.844.04.094.985-.521c-.452.143-.268-.367-.376-.417zM45.847 43.127c.075.163.152.322.224.483.066.153.127.309.19.463.143-.744-.001-1.018-.414-.946zM44.984 33.566l.738.794.078-.078-.71-.817-.106.101zM49.416 45.654c-.033-.105-.007-.229-.007-.347l-.168.005v1.177c.072.202.164.472.267.737.018.044.076.095.117.098a.227.227 0 0 0 .157-.069c.189-.213.061-.978-.155-1.179-.109-.102-.166-.274-.211-.422zM49.414 47.54c-.234.304-.442.573-.648.843l.04.095.985-.521c-.452.142-.268-.369-.377-.417zM48.714 43.98l-.71-.817-.105.101.737.795.078-.079z"/></g>
</symbol>
<symbol id="phone" viewBox="0 0 11 11"><path d="M10.758 9.774c-.164.383-.602.633-.953.828-.461.25-.93.398-1.453.398-.727 0-1.383-.297-2.047-.539a7.313 7.313 0 0 1-1.367-.648c-1.328-.82-2.93-2.422-3.75-3.75A7.227 7.227 0 0 1 .54 4.695C.297 4.031 0 3.375 0 2.648c0-.523.148-.992.398-1.453.196-.352.446-.789.829-.953C1.485.125 2.032 0 2.313 0c.055 0 .109 0 .164.023.164.055.336.438.414.594.25.445.492.898.75 1.336.125.203.359.453.359.695 0 .477-1.414 1.172-1.414 1.594 0 .211.195.484.305.672.789 1.422 1.774 2.407 3.195 3.196.188.109.461.305.672.305C7.18 8.415 7.875 7 8.352 7c.242 0 .492.235.695.36.438.258.891.5 1.336.75.156.078.539.25.594.414.023.055.023.109.023.164 0 .281-.125.828-.242 1.086z"/>
</symbol>
<symbol id="salad"><g fill-rule="evenodd" clip-rule="evenodd"><path d="M11.954 35.416l-.292-.355.039-.084c.092.048.195.081.273.146.113.093.252.192.296.317.035.102-.055.246-.092.379-.422-.187-.742-.097-.947.236-.037.06-.013.16-.009.24.01.253.021.506.036.759.007.117.024.233.04.386h-.976l-.018-.092c.124-.025.248-.061.373-.071.168-.015.288-.052.252-.263-.006-.039.051-.089.08-.134.029-.046.093-.108.081-.134a.367.367 0 0 0-.147-.148c-.111-.061-.231-.105-.349-.156l.046-.094.392.15c-.38-.403.054-.563.12-.822.119-.474.545.056.802-.26zM18.06 35.646c-.368.283-.582.573-.418 1.026.068.188-.129.338-.336.275-.111-.034-.22-.073-.381-.128l.128.403c-.087-.053-.143-.067-.147-.093-.056-.281-.15-.523-.489-.557.012-.104-.003-.224.043-.309.032-.059.15-.068.25-.107l.121.137c.243.274.477.244.625-.086a3.07 3.07 0 0 0 .167-.439c.071-.268.21-.278.437-.122zM18.232 29.722c.017.598.017.598.186.635l-.253.665a21.846 21.846 0 0 1-.124-.201l-.625-.282c.376-.056.514-.229.453-.6-.053-.314.157-.285.363-.217zM14.507 33.458c-.249-.164-.387-.257-.526-.349l-.007-.099c.163-.004.334-.033.485.007.041.012.028.233.048.441zM17.343 32.319l.899-.26.044.133-.888.292a15.943 15.943 0 0 0-.055-.165zM14.909 32.964l.735.046-.015.136c-.249.018-.503.084-.734-.054l.014-.128zM13.139 31.951l.273-.652c.049.054.167.156.155.174-.114.177-.054.527-.428.478zM17.313 37.575l.57.851-.098.066c-.189-.279-.378-.561-.568-.84l.096-.077zM31.869 31.158l.102.076c.127-.145.245-.298.346-.467-.039.021-.078.05-.116.061l-.332.33zM8.549 13.722c.394.195.844-.044 1.04-.46.163-.346.373-.668.598-.981.022-.125.045-.25.08-.369.128-.436.482-.617.877-.399a5.55 5.55 0 0 1 1.166.888c.431.417.794.903 1.2 1.347.342.375.748.405 1.054.105.288-.284.283-.681-.055-1.031-.683-.705-1.274-1.465-1.341-2.484-.028-.43.004-.891.134-1.299.296-.93 1.189-1.231 1.982-.655.425.309.761.747 1.112 1.151.258-.27.339-.663.245-1.226-.143-.855.425-.782.987-.598.082-.559.365-.93.962-1.169a6.14 6.14 0 0 1 1.071-.321c.585-.12 1.166-.266 1.742-.44l-1.267-1.047c-.04.154-.082.303-.176.657-.226-.417-.362-.68-.508-.938-.167-.296-.312-.616-.519-.878-1.25.264-2.402.748-3.252 1.802-.061.076-.238.105-.348.085-.095-.016-.185-.015-.278-.026.039.031.085.06.122.093.03.027-.12.379-.2.384-.256.017-.52-.057-.821-.103l.085-.402c-1.649.086-2.958 1.058-3.534 2.757-.151.442-.323.65-.826.757-1.43.308-2.107 1.377-2.374 2.724a7.274 7.274 0 0 0-.108.923c.241-.491.585-.902.898-.97l-.902 1.998c.006.125.005.25.017.375.192-.295.798-.417 1.137-.25z"/><path d="M22.9 2.993l-.325-.141c-.155.269-.219.728-.699.435l.228-.791a7.83 7.83 0 0 1-.737.373.77.77 0 0 0-.151.273c-.07.258.174.601.294.95-.468.371-.459-.427-.914-.428.099.458.088.971.318 1.329.183.284.489.487.788.696.145-.048.29-.082.434-.137V3.569l.345-.008c0 .237-.053.489.013.706.094.307.211.658.434.865.014.014.026.037.04.053.03-.016.062-.026.092-.042l-.028.125c.375.54.567 1.877.214 2.276a.466.466 0 0 1-.32.142c-.085-.005-.207-.109-.241-.198l-.041-.111a8.717 8.717 0 0 0-.012 1.371c.059.213.202.369.631.233l-.578.306c.02.142.033.284.058.425.077.44.377.668.785.609.391-.056.649-.405.558-.824-.314-1.449.213-2.571 1.33-3.456.882-.699 1.791-1.367 2.948-1.538.958-.142 1.534.333 1.533 1.305-.001.461-.116.923-.184 1.383-.021.146-.066.288-.085.433-.058.408.159.732.533.812.347.073.67-.139.79-.515.028-.091.054-.183.08-.275a9.075 9.075 0 0 1-1.191-.131c.411 0 .821.008 1.232.011.023-.072.045-.145.076-.212.476-1.039 1.554-1.282 2.351-.467.146.15.268.329.395.501.231-.028.469-.057.687-.081a3076.59 3076.59 0 0 1-.639-3.352 4.627 4.627 0 0 0-1.749-.288c-.1.001-.24-.095-.3-.186-.882-1.339-2.163-1.833-3.696-1.665-.73.08-1.441.33-2.183.507-.022-.078-.053-.205-.094-.33-.313-.962-1.472-1.329-2.196-.632-.017.015-.035.026-.051.042l-.24.657c-.968-.06-.196.692-.533.973z"/><path d="M37.321 13.829c-.116-.188-.125-.307-.003-.494a4.2 4.2 0 0 0 .681-2.393c-.017-1.192-.313-2.293-.782-3.332l-1.748.138.49.88c-.662-.208-1.075-.347-1.488-.468.08.122.156.241.242.362-.448.19-.806.301-1.123.483a56.143 56.143 0 0 0-2.568 1.545c-.448.29-.51.724-.232 1.061.256.312.666.32 1.066.011a11.219 11.219 0 0 1 3.185-1.733c.526.926.204 2.042-.699 2.483-.517.253-.786.675-.78 1.251.008.594.307 1.001.844 1.252.202.095.389.224.584.337l-.058.153c-.905-.122-1.812-.244-2.719-.368-.131-.018-.262-.051-.394-.068-.417-.055-.744.163-.809.531-.066.388.131.718.551.794.801.146 1.609.25 2.415.372l.198.027c-.771.827-.768 1.094-.375 2.16.277.755.398 1.568.584 2.357.049.207-.051.307-.254.367-.985.295-1.932.217-2.831-.28-.468-.259-.915-.552-1.371-.832-.435-.266-.823-.216-1.055.141-.228.352-.113.739.315 1.014.348.225.701.44 1.057.652 1.57.934 1.678 3.008.209 4.085-.107.079-.221.147-.313.21-.708-.537-1.396-1.061-2.087-1.58a2.504 2.504 0 0 0-.407-.256.674.674 0 0 0-.869.229c.613.452 1.016 1.037 1.289 1.712a10.393 10.393 0 0 1 1.754 1.735c-.055-.459-.027-.872.139-1.121l1.385 3.848c-.58-.253-1.074-1.064-1.343-1.9-.021.045-.039.091-.067.133-.105.16-.381.273-.587.285-.285.018-.581-.068-.866-.129-.496-.105-.99-.221-1.482-.342a4.39 4.39 0 0 1-1.834-.945 13.829 13.829 0 0 0-1.168-.912c-.354-.244-.731-.162-.955.152-.232.326-.154.707.199.979.256.195.511.391.767.582.412.307.595.695.586 1.145h2.347c-1.023.586-1.823.691-2.388.313-.007.035-.005.068-.015.105-.166.648-.599 1.052-1.225 1.217.303.139.604.289.858.495.104.085.017.409.017.645-.45-.22-.774-.36-1.08-.533-.135-.077-.33-.231-.32-.334a.5.5 0 0 1 .111-.214c-1.379.094-2.773-1.07-2.874-2.511-.024-.358.004-.721.019-1.081.015-.433-.203-.733-.579-.777-.388-.047-.712.17-.765.593-.061.5-.056 1.01-.081 1.571-1.03-.095-1.844.375-2.471 1.098-.017.018-.035.033-.051.052.194.29.388.581.583.87-.089.061-.179.121-.269.18l-.547-.807c-.838.813-1.847 1.177-3.029 1.229-.907.04-1.813.134-2.719.2-.046.004-.094-.01-.227-.023.502-.516.933-1.004 1.412-1.443.996-.913 1.959-1.866 3.047-2.67-.209-.121-.344-.164-.357-.227-.079-.397-.188-.766-.399-1.043a31.308 31.308 0 0 1-1.953 1.783c-2.34 1.963-4.331 4.287-6.387 6.536-.174.19-.299.259-.528.104-.253-.169-.529-.305-.829-.475.961-.877 1.891-1.732 2.829-2.58 1.498-1.354 2.973-2.734 4.508-4.046a23.567 23.567 0 0 0 1.803-1.723 1.6 1.6 0 0 0-.389-.089c.031-.288-.01-.615.119-.85.088-.159.414-.189.688-.297.1.114.215.247.332.379l.009.01a24.575 24.575 0 0 0 3.753-5.962c.732-1.631 1.487-3.258 2.329-4.834.576-1.079 1.311-2.075 1.997-3.091.296-.439.315-.838-.021-1.098-.317-.246-.729-.155-1.043.229-1.502 1.84-2.532 3.953-3.525 6.087-.394.848-.792 1.693-1.189 2.54-.056.116-.122.227-.216.4-.233-1.224-.64-2.301-1.307-3.272-.083-.121-.166-.244-.259-.357-.274-.337-.682-.41-.989-.186-.32.235-.365.625-.113.995.112.167.238.324.343.494.703 1.141 1.12 2.366 1.02 3.723-.077 1.036-.51 1.948-1.186 2.708a45.823 45.823 0 0 1-2.756 2.854c-1.916 1.805-3.874 3.566-5.817 5.348-.175-.107-.328-.211-.49-.299-.313-.173-.421-.436-.353-.774.073-.358.326-.378.639-.361.952.05 1.629-.755 1.431-1.672-.086-.399.011-.51.428-.481.146.008.295.039.438.022.827-.097 1.362-.86 1.183-1.677-.02-.09-.036-.181-.057-.287.333-.033.65-.07.969-.092.73-.053 1.219-.401 1.391-1.005.176-.62-.042-1.147-.65-1.578-1.014-.718-1.142-2.06-.275-2.881.691-.657 1.896-.58 2.499.159.288.354.657.422.981.184.301-.223.363-.605.141-.966a4.455 4.455 0 0 0-.378-.518c-1.713-2.034-2.433-4.422-2.558-7.017-.115.204-.286.368-.606.664-.497.461-1.491.78-1.838.588l-.234.003c.076.583.183 1.165.322 1.742.025.104.061.206.088.31l.608-.371c.152.15.238.352.272.575l1.761.113-.041.375c-.582.039-1.175.173-1.73-.02a1.677 1.677 0 0 1-.165.458l-.425-.151c.122.385.248.77.366 1.158-2.057 1.356-2.833 3.206-2.094 5.648-.83.065-1.169.639-1.406 1.313-.053.15-.116.308-.12.464-.006.337-.198.481-.485.587-.602.221-.958.635-1.038 1.298-.023.192-.169.451-.332.532-.923.452-1.437 1.221-1.727 2.156-.283.914-.101 1.794.345 2.651l-.963.735c-1.004.764-.933 1.871.166 2.49 1.07.604 2.146 1.199 3.219 1.795 1.009.561 1.469.537 2.356-.215a8.084 8.084 0 0 0 1.07-1.133c.816-1.02 1.819-1.67 3.155-1.751a92.852 92.852 0 0 0 2.837-.219c1.621-.147 3.077-.67 4.194-1.919.179-.199.334-.42.5-.631l.179.003c.081.124.135.286.247.367.625.452 1.219.978 1.905 1.308 2.676 1.283 5.321.148 6.37-1.912.044-.086.255-.146.372-.127.474.08.936.22 1.41.293 1.263.199 2.363-.166 3.11-.893a8.661 8.661 0 0 1-.309-.617c-.222-.505.346-1.371.921-1.557a.96.96 0 0 0 .393-.24 4.291 4.291 0 0 0-.039-.735.677.677 0 0 1 .156-.474c.041-.045.075-.094.114-.139-.251-.739-.386-1.516-.462-2.3.588.853.84 1.229.941 1.645.24-.388.428-.802.526-1.259.097-.452.11-.922.163-1.413.078-.019.185-.032.281-.072.649-.269 1.314-.51 1.941-.823.459-.231.659-.672.688-1.193.063-1.185-.028-2.352-.405-3.482-.077-.23-.008-.357.146-.517 1.2-1.249 1.379-2.927.464-4.413zM36.016 5.54a5.059 5.059 0 0 0-1.168-1.144c.011.199.037.389.125.546.162.29.614.42 1.043.598zM34.853 6.136c.577.386 1.094.942 1.708 1.085.159.038.324.051.493.05a13.36 13.36 0 0 0-.783-1.377c-.017-.026-.036-.049-.054-.075-.206.557-.92-.111-1.364.317z"/><path d="M26.354 14.139c1.049-.661 1.922-1.513 2.691-2.466.037-.542.277-.893.731-1.041a.648.648 0 0 0-.239-.767c-.318-.23-.721-.174-.979.202-.992 1.453-2.313 2.54-3.766 3.497-2.041 1.345-3.647 3.124-5.002 5.14-.507.753-1.026 1.502-1.487 2.285a30.105 30.105 0 0 1-1.856 2.748c.192-.025.428.07.718.271-1.012.777-1.6 1.574-1.15 2.82a.556.556 0 0 1 .013.363c.261-.214.506-.455.749-.688.909-.869 1.915-1.523 3.023-1.953-.061-.205-.082-.471-.043-.822l.662.61a8.88 8.88 0 0 1 1.814-.35c.17-.015.355-.034.503-.109.315-.159.411-.444.331-.78a.648.648 0 0 0-.773-.484c-.967.182-1.927.407-2.888.62-.113.024-.218.081-.384.044.428-.346.837-.717 1.287-1.031 1.196-.838 2.566-1.299 3.938-1.752 1.482-.49 2.97-.968 4.453-1.454.51-.167.719-.52.564-.929-.148-.39-.49-.541-.96-.377-2.058.716-4.176 1.269-6.201 2.076.012.284-.019.634-.103 1.071-.119-.293-.236-.587-.361-.877-.467.197-.93.404-1.383.637-.008.004-.023-.005-.074-.018.052-.091.096-.177.146-.259.277-.451.572-.884.876-1.308a3.766 3.766 0 0 0-.052-.111c.051-.009.093-.007.14-.01 1.38-1.895 3.034-3.522 5.062-4.798zM14.042 27.236l.336 1.057a11.86 11.86 0 0 1 1.036-.673.895.895 0 0 1-.325-.032c-.304-.092-.602-.202-1.047-.352zM18.505 10.932c.299-.299.277-.694-.095-1.056a3.43 3.43 0 0 1-.291-.331l-.534 1.4c.309.242.668.24.92-.013zM17.674 8.664c.037.616.112.707.363.771a2.382 2.382 0 0 1-.363-.771zM15.951 24.375a29.63 29.63 0 0 1-1.599 1.854c.451.19.859-.029 1.149-.674.173-.386.338-.776.45-1.18zM21.84 6.145l.164-.233a5.382 5.382 0 0 0-.303-.223c-.1.033-.199.064-.299.094l.438.362zM18.692 3.107c-.41-.357-.786-.753-1.177-1.132.397.564.909 1.013 1.361 1.516.022.025.036.059.057.085.09-.019.18-.039.27-.055-.171-.134-.344-.269-.511-.414zM6.866 9.071c-.165.156-.228.419-.337.635l.624-.013.076 1.553c.556-.856.875-1.729.496-2.755-.297.194-.614.349-.859.58zM8.464 16.985c.094.056.19.097.288.13.034-.164.032-.319.009-.468l-.26-.017-.037.355zM6.967 16.999l1.195.423a20.983 20.983 0 0 1-.281-.979l-.914.556zM5.897 18.334c.574-.12 1.148-.24 1.722-.358l-.02-.197c-.365-.102-.725-.262-1.095-.294-.578-.048-.82.313-.607.849zM15.064 3.727c.431.631.927.024 1.44.14-.506-.614-.984-.642-1.44-.14zM5.476 11.585l-1.324-1.283c-.071.615.383 1.044 1.324 1.283zM2.565 10.558c-.053.045-.031.211-.002.313.066.228.158.448.273.767.111-.114.307-.23.295-.321-.034-.275-.138-.544-.245-.803-.012-.03-.247-.018-.321.044zM17.577 0l-.775.161.826.666L17.577 0z"/></g>
</symbol>
<symbol id="sauce"><g><path d="M15.407 6.22c.04.091.187.22.244.201.109-.033.259-.151.271-.249.099-.81-.205-1.502-.67-2.23-.123.478-.505.797-.236 1.281.17.308.248.67.391.997zM23.878 9.649l.39-1.024c-.261-.056-.261-.056-.287-.978-.316-.105-.64-.151-.56.332.096.571-.117.839-.697.927l.963.434.191.309zM27.277 16.735l1.319.265-.196-.428.565-.324c-1.171-.367-1.43-.281-1.688.487zM26.941 7.63a.253.253 0 0 0 .18-.079c.217-.244.07-1.121-.178-1.352-.125-.116-.189-.313-.242-.484-.037-.122-.008-.264-.008-.396l-.193.005v1.349c.084.231.189.542.308.846.018.049.086.108.133.111zM27.13 8.355c-.517.164-.307-.422-.432-.479-.27.35-.506.659-.743.968.015.036.03.073.046.107.376-.197.752-.396 1.129-.596zM24.064 11.452l-.066-.205c-.462.135-.924.268-1.385.401l.085.254c.456-.15.911-.299 1.366-.45zM19.971 12.924l.023-.21-1.132-.072-.021.198c.355.21.747.109 1.13.084zM9.639 23.044l.011.153.811.536c-.031-.32-.009-.66-.074-.678-.234-.062-.497-.016-.748-.011zM11.06 23.17c.355.21.748.109 1.13.084l.023-.21-1.132-.072-.021.198zM.862 29.643c-.329.14-.586.449-.862.674.323.133.646.355.981.376.277.018.627-.144.829-.344.11-.109.047-.631-.058-.673-.264-.107-.636-.143-.89-.033zM3.274 34.769l1.881 2.024.201-.199-1.811-2.083-.271.258zM13.015 43.416l1.949-.178-1.129-1.029c-.215.315-.415.609-.82 1.207zM15.245 22.124l1.039-.342-.067-.205c-.338.099-.677.196-1.015.294l-.695-3.999a1.494 1.494 0 0 0-.598-.956c.22-.03.465 0 .746.124.057-.205.196-.429.142-.584-.068-.193-.282-.347-.457-.49-.121-.099-.279-.149-.421-.223l-.06.129.45.548c-.352.435-.91-.16-1.158.22a1.422 1.422 0 0 0-.379.012 1.5 1.5 0 0 0-1.221 1.734l2.526 14.533a1.5 1.5 0 0 0 2.956-.513l-1.788-10.282zM31.696 34.834c-.143.109.253 1.356.429 1.363.635.028 1.281-.254 2.143-.475l-.492-1.925c-.708.327-1.477.573-2.08 1.037z"/><path d="M39.365 6.225c.095-.47.205-.937.316-1.403.183-.768.372-1.561.488-2.359.071-.479-.048-1.523-.526-1.811l-.085-.043c-.586-.234-1.461.01-1.936.368-.845.64-1.654 1.345-2.438 2.026-.411.358-.822.717-1.239 1.066a1.778 1.778 0 0 1-.38.258c-1.369-.553-1.945.453-2.385 1.221l-.186.332c-.252.451-.49.877-.788 1.254-.143.182-.432.346-.618.355-1.404.061-2.48.693-3.195 1.881l-3.558 5.909c-.472.783-.942 1.566-1.413 2.35-.078.024-.145.052-.172.1a.647.647 0 0 0-.056.279c-.572.951-1.144 1.901-1.715 2.853l.732 4.373 1.84-3.059.908-1.51.335.493.15-.101-.38-.567.361-.599 1.406-2.338.344-.57c.069.414.385.465.709.505a9.86 9.86 0 0 1 .104-.115l-.674-.62 1.084-1.798.028.069c.011-.057.009-.092.017-.144.752-1.251 1.504-2.502 2.26-3.751.52-.859.709-.908 1.559-.402l.406.243.957-1.977.402 2.79.641.383c.781.47 1.561.941 2.339 1.416.827.505.874.71.355 1.572-.958 1.595-1.919 3.188-2.878 4.781l-.025 1.419a4.846 4.846 0 0 1-.611-.361c-2.326 3.866-4.651 7.733-6.98 11.599-.55.912-.733.959-1.637.421-.625-.373-1.248-.752-1.872-1.127l-.799-4.608.256.052-.196-.428c.191-.11.339-.196.565-.324a4.749 4.749 0 0 0-.78-.192.532.532 0 0 0-.007-.039l-.526-3.025c-.162-.93-.319-1.86-.477-2.791-.095-.564-.197-1.142-.294-1.713l.25-.132c-.134.043-.218.033-.273-.003-.074-.436-.147-.867-.224-1.305.054.151.112.311.174.471.019.05.087.108.134.111a.255.255 0 0 0 .18-.079c.216-.244.069-1.121-.178-1.352-.125-.116-.19-.313-.243-.484-.037-.122-.007-.264-.007-.396l-.194.006v.964a145.764 145.764 0 0 0-.63-3.316l.153.102c-.031-.32-.009-.66-.074-.678-.067-.018-.14-.015-.211-.018-.204-.711-.646-1.623-1.282-2.042.033-.115.062-.232.119-.322.019-.028-.163-.186-.238-.269l-.178.426c-1.028-.455-1.14-1.187-1.294-2.249l-.038-.284c-.042-.35-.087-.709-.223-1.053-.131-.331-.49-1.101-.995-1.1-.65.002-.853-.354-1.154-.984a6.844 6.844 0 0 0-.216-.428 43.903 43.903 0 0 1-.679-1.268c-.364-.699-.742-1.424-1.176-2.104C10.344.624 9.57-.087 9.02.009l-.093.023c-.595.207-1.098.963-1.222 1.546-.219 1.036-.37 2.099-.515 3.127-.076.54-.152 1.08-.238 1.618a1.828 1.828 0 0 1-.119.444C5.437 7.244 5.66 8.384 5.83 9.251l.076.373c.104.506.203.983.226 1.463.011.23-.1.545-.235.674-1.022.966-1.42 2.148-1.183 3.515l.003.018 2.748 3.615-.803 1.081c-.4-.366-.771-.771-1.205-1.091-.052-.038-.087-.086-.136-.126l.573 3.299.749 4.297c-.029-.023-.058-.05-.085-.072-.121-.099-.279-.149-.421-.223l-.06.129.45.548c-.395.487-1.053-.33-1.237.4-.101.399-.769.645-.183 1.267l-.604-.232-.07.145c.18.078.366.147.537.242a.566.566 0 0 1 .227.228c.019.039-.08.135-.125.206-.043.07-.132.146-.122.208.054.324-.13.381-.39.403-.193.015-.383.071-.574.11l.027.141h1.503c-.025-.233-.051-.413-.062-.595a57.04 57.04 0 0 1-.056-1.168c-.005-.125-.042-.279.014-.37.307-.497.781-.635 1.402-.382.5 2.873.997 5.746 1.501 8.619.393 2.233 2.115 3.433 4.387 3.057a362.73 362.73 0 0 0 2.571-.438c.995-.173 1.989-.35 2.982-.525l.124-.021c1.011-.18 1.79-.576 2.345-1.14l-.143-.751.371-.174c.066.13.131.261.195.392.4-.638.592-1.422.531-2.343l.262 1.564a4.9 4.9 0 0 0 1.363.528c.042-.133.078-.253.134-.403.073.165.144.319.208.466 1.438.188 2.718-.494 3.649-2.036a3114.77 3114.77 0 0 0 3.518-5.84c-.247-.19-.5-.371-.742-.567-.2-.163-.094-.707-.13-1.075.643-.031 1.293-.123 1.928-.112l.708-1.176c.486-.81.978-1.616 1.468-2.423 1.299-2.135 2.643-4.344 3.889-6.563.4-.715.845-2.088.422-2.936-.523-1.052-.119-1.683.471-2.604l.158-.24c.195-.291.398-.593.521-.941.117-.336.35-1.152-.033-1.482-.492-.424-.412-.826-.227-1.5a5.89 5.89 0 0 0 .12-.465zM22.253 21.327c-.174-.167-.514-.361-.49-.495.056-.332.277-.637.547-1.188.049.071.097.132.144.193a.915.915 0 0 1-.036.029l.395.582c-.12.317-.364.589-.56.879zM12.177 8.852l.221 1.271-3.321.577-.221-1.271 3.321-.577zM9.399 2.726l2.117 3.242-3.015.523.898-3.765zm8.407 32.489c-1.782.317-3.565.628-5.352.931-1.03.174-1.17.07-1.358-1.002-.307-1.752-.611-3.505-.915-5.257-.208.055-.436.114-.708.188.188-.518.344-.966.499-1.39l-.155-.89-.456-2.625-.468-2.689-.197-1.135c.2-.144.189-.476.316-.673.019-.028-.163-.186-.238-.269a42.63 42.63 0 0 0-.17.407c-.237-1.359-.472-2.719-.707-4.078.105-.042.232-.143.243-.232.092-.755-.173-1.408-.585-2.084.033-.406.286-.528.973-.651a489.182 489.182 0 0 1 5.456-.947c.956-.161 1.125-.037 1.299.955.241 1.384.48 2.768.722 4.152-.237-.047-.427.002-.363.383.096.571-.117.839-.697.927l.962.434.191.31.181-.476 1.329 7.648a58.381 58.381 0 0 1-.22-.203c-.055.5.098.694.321.784.353 2.031.708 4.062 1.059 6.092.18 1.049.073 1.205-.962 1.39zm17.768-24.706L32.685 8.77l.666-1.105 2.889 1.739-.666 1.105zm2.053-3.719l-2.622-1.578 3.146-2.258-.524 3.836z"/><path d="M22.427 30.894a1.499 1.499 0 0 0 2.058-.512l7.606-12.637a1.499 1.499 0 0 0-.512-2.059 1.499 1.499 0 0 0-2.058.512l-7.606 12.637a1.5 1.5 0 0 0 .512 2.059z"/></g>
</symbol>
<symbol id="tw" viewBox="0 0 37.453 31.21"><path d="M36.421.577a15.112 15.112 0 0 1-4.884 1.909A7.575 7.575 0 0 0 25.93 0c-4.24 0-7.682 3.528-7.682 7.879 0 .618.066 1.217.198 1.794-6.385-.329-12.047-3.462-15.839-8.235a8.02 8.02 0 0 0-1.04 3.966c0 2.731 1.356 5.144 3.418 6.557a7.547 7.547 0 0 1-3.481-.981v.096c0 3.819 2.648 7.004 6.167 7.725a7.292 7.292 0 0 1-2.025.277c-.495 0-.979-.047-1.447-.139.979 3.129 3.815 5.408 7.179 5.469a15.172 15.172 0 0 1-9.544 3.375c-.619 0-1.232-.037-1.833-.109a21.388 21.388 0 0 0 11.778 3.537c14.136 0 21.863-12.004 21.863-22.417 0-.343-.006-.685-.021-1.021a15.749 15.749 0 0 0 3.832-4.078 15.04 15.04 0 0 1-4.412 1.24 7.861 7.861 0 0 0 3.38-4.358"/>
</symbol>
<symbol id="vk" viewBox="0 0 126 72"><path clip-path="url(#b)" d="M124.523 64.503a8.35 8.35 0 0 0-.426-.816c-2.172-3.91-6.324-8.711-12.449-14.401l-.129-.134-.066-.063-.066-.066h-.063c-2.781-2.651-4.543-4.434-5.281-5.344-1.348-1.738-1.652-3.5-.914-5.281.523-1.348 2.477-4.19 5.867-8.538a447.262 447.262 0 0 0 4.234-5.539c7.52-9.996 10.777-16.383 9.777-19.164l-.387-.649c-.262-.39-.934-.75-2.02-1.074-1.086-.327-2.477-.383-4.172-.163l-18.772.127c-.301-.105-.738-.099-1.301.034l-.852.195-.323.166-.258.195c-.219.129-.457.354-.719.683a4.443 4.443 0 0 0-.648 1.142c-2.047 5.258-4.367 10.145-6.977 14.663-1.609 2.695-3.086 5.031-4.434 7.009-1.348 1.976-2.477 3.434-3.387 4.366-.914.935-1.738 1.685-2.477 2.246-.742.567-1.305.806-1.695.72-.391-.091-.762-.177-1.109-.263a4.288 4.288 0 0 1-1.465-1.597c-.371-.672-.621-1.52-.75-2.543a28.65 28.65 0 0 1-.23-2.637c-.02-.738-.008-1.785.035-3.129.043-1.349.066-2.263.066-2.738 0-1.653.031-3.446.094-5.379.066-1.935.121-3.465.164-4.594.043-1.13.066-2.324.066-3.587 0-1.258-.078-2.245-.23-2.965a9.987 9.987 0 0 0-.684-2.086c-.305-.672-.75-1.194-1.336-1.562-.586-.371-1.313-.664-2.18-.883-2.305-.521-5.238-.802-8.8-.849-8.082-.086-13.274.438-15.579 1.567-.914.476-1.738 1.129-2.476 1.953-.781.957-.891 1.479-.328 1.565 2.609.392 4.453 1.325 5.543 2.802l.39.784c.305.563.61 1.563.911 2.996.304 1.435.5 3.021.585 4.758.219 3.173.219 5.888 0 8.149-.214 2.257-.421 4.019-.617 5.277-.195 1.262-.488 2.28-.879 3.065-.39.782-.652 1.258-.785 1.435-.129.172-.238.28-.324.323a4.815 4.815 0 0 1-1.762.328c-.605 0-1.344-.304-2.215-.914-.867-.608-1.769-1.444-2.703-2.512-.933-1.062-1.988-2.55-3.164-4.464-1.172-1.911-2.386-4.168-3.648-6.778l-1.043-1.89c-.653-1.215-1.543-2.985-2.672-5.313a100.975 100.975 0 0 1-2.996-6.745c-.348-.91-.871-1.605-1.567-2.087l-.324-.194c-.219-.172-.566-.356-1.043-.556a7.006 7.006 0 0 0-1.5-.422l-17.858.133c-1.824 0-3.063.414-3.715 1.238l-.262.392C.066 5.113 0 5.46 0 5.938c0 .48.129 1.065.391 1.762a215.077 215.077 0 0 0 8.507 17.725c3.063 5.696 5.723 10.278 7.981 13.754a161.747 161.747 0 0 0 6.91 9.84c2.348 3.086 3.902 5.063 4.66 5.935a43.02 43.02 0 0 0 1.793 1.953l1.629 1.565c1.043 1.043 2.574 2.293 4.598 3.746 2.02 1.457 4.258 2.891 6.711 4.305 2.457 1.41 5.312 2.563 8.574 3.453 3.258.892 6.43 1.25 9.516 1.074h7.496c1.52-.129 2.672-.609 3.453-1.433l.258-.324c.176-.262.34-.665.488-1.208.152-.542.23-1.14.23-1.792-.043-1.868.098-3.551.422-5.051.324-1.496.695-2.625 1.109-3.388.414-.762.879-1.401 1.402-1.922.52-.522.891-.836 1.109-.944.215-.11.387-.185.52-.231 1.043-.347 2.27-.007 3.684 1.012 1.41 1.024 2.734 2.281 3.977 3.781 1.238 1.5 2.727 3.184 4.461 5.051 1.742 1.867 3.262 3.258 4.563 4.172l1.305.781c.871.524 2 1 3.391 1.435 1.391.437 2.605.547 3.648.327l16.688-.262c1.648 0 2.934-.272 3.844-.815.914-.544 1.453-1.142 1.629-1.789.176-.653.184-1.392.035-2.22-.158-.824-.31-1.402-.459-1.727zm0 0"/>
</symbol></svg>