<?xml version="1.0" standalone="no"?>
<!DOCTYPE svg PUBLIC "-//W3C//DTD SVG 20010904//EN"
 "http://www.w3.org/TR/2001/REC-SVG-20010904/DTD/svg10.dtd">
<svg version="1.0" xmlns="http://www.w3.org/2000/svg"
 width="632.000000pt" height="632.000000pt" viewBox="0 0 632.000000 632.000000"
 preserveAspectRatio="xMidYMid meet">
<metadata>
Created by potrace 1.11, written by Peter Selinger 2001-2013
</metadata>
<g transform="translate(0.000000,632.000000) scale(0.100000,-0.100000)"
fill="#000000" stroke="none">
<path d="M2180 6123 c-69 -24 -147 -80 -229 -163 -88 -91 -86 -88 -148 -175
-113 -160 -247 -407 -357 -660 -75 -170 -72 -165 -86 -205 -7 -19 -19 -48 -26
-65 -42 -99 -132 -365 -194 -575 -12 -41 -28 -95 -35 -120 -11 -37 -57 -214
-70 -270 -18 -74 -64 -293 -69 -325 -3 -22 -9 -53 -11 -70 -11 -65 -17 -154
-17 -241 -1 -108 21 -166 82 -224 31 -29 131 -79 170 -85 63 -10 120 -19 140
-21 14 -2 70 -7 124 -10 94 -6 99 -5 91 12 -4 11 -9 28 -10 39 -2 11 -6 34 -9
50 -14 66 -20 156 -20 275 0 114 10 285 18 299 2 3 7 34 10 68 4 35 9 68 11
75 2 7 7 31 9 53 3 22 10 63 16 90 11 51 13 62 24 125 3 19 10 50 15 68 5 17
8 32 5 32 -3 0 0 8 5 18 5 9 11 31 14 47 22 119 82 336 178 635 162 510 358
910 467 951 34 13 48 -9 52 -80 7 -106 4 -766 -3 -981 -13 -337 -10 -545 9
-632 2 -13 7 -40 10 -61 8 -51 46 -170 75 -232 70 -152 195 -252 322 -256 46
-2 147 20 147 32 0 4 8 10 19 14 45 14 138 131 171 215 8 19 16 37 19 40 17
15 198 556 271 810 12 41 33 110 47 153 14 43 26 83 27 90 15 84 149 457 165
457 10 0 15 -337 6 -460 -2 -36 -7 -121 -11 -190 -3 -69 -7 -145 -9 -170 -10
-159 -18 -363 -19 -475 0 -118 11 -302 19 -315 2 -3 6 -23 9 -45 29 -180 118
-309 231 -331 127 -25 290 24 386 116 l52 48 -20 29 c-114 164 -163 288 -192
493 -24 169 -26 191 -36 355 -3 44 -7 107 -10 140 -2 33 -7 179 -10 325 -12
546 -15 599 -35 680 -7 25 -14 57 -17 73 -3 15 -9 30 -14 33 -5 3 -9 13 -9 23
0 10 -7 24 -15 31 -8 7 -12 16 -10 21 3 4 -23 37 -57 72 -46 47 -74 66 -104
74 -104 26 -204 -19 -289 -130 -56 -74 -201 -394 -255 -567 -5 -14 -43 -124
-85 -245 -42 -121 -78 -224 -79 -230 -2 -5 -5 -17 -8 -25 -3 -8 -13 -37 -23
-65 -9 -27 -19 -57 -22 -65 -3 -8 -7 -19 -9 -25 -1 -5 -32 -98 -69 -205 -36
-107 -74 -217 -83 -244 -12 -37 -17 -44 -23 -30 -15 43 -28 269 -44 811 -9
308 -23 530 -40 635 -3 20 -8 54 -10 75 -5 50 -14 99 -27 148 -5 22 -12 50
-14 63 -17 93 -86 232 -145 292 -66 67 -127 94 -219 96 -46 1 -92 -4 -120 -13z"/>
<path d="M4490 5565 c-146 -38 -254 -139 -285 -265 -36 -151 33 -290 188 -378
36 -20 190 -79 210 -80 26 -1 87 -15 87 -19 0 -3 -20 -47 -44 -97 -78 -162
-106 -262 -112 -396 -5 -132 27 -223 106 -299 69 -67 142 -94 261 -98 62 -1
112 3 145 13 188 56 411 230 578 454 22 30 43 57 46 60 15 13 111 173 143 235
88 175 80 252 -30 289 l-44 15 -21 -44 c-12 -25 -26 -45 -30 -45 -4 0 -8 -6
-8 -13 0 -14 -131 -235 -201 -337 -159 -236 -305 -366 -429 -384 -71 -10 -116
48 -107 138 11 100 34 155 139 328 32 54 58 102 58 107 0 5 3 11 8 13 18 8 56
108 60 158 3 48 0 58 -23 83 -53 55 -166 95 -355 123 -19 3 -70 12 -114 20
-43 7 -80 14 -81 14 -2 0 5 17 15 38 34 72 61 167 62 217 3 120 -92 184 -222
150z"/>
<path d="M5800 4231 c-184 -58 -264 -191 -211 -349 67 -196 219 -300 383 -262
56 13 142 53 165 76 8 7 22 19 31 26 24 18 96 108 110 138 72 154 49 254 -77
327 -99 59 -287 80 -401 44z"/>
<path d="M2538 3354 c-2 -1 -30 -5 -63 -8 -94 -10 -171 -24 -272 -50 -13 -3
-31 -8 -40 -10 -10 -2 -51 -16 -92 -31 -220 -80 -364 -174 -381 -249 -7 -31
-4 -40 26 -75 19 -22 50 -45 68 -51 32 -10 37 -8 97 37 61 46 207 129 214 121
3 -3 -18 -58 -46 -123 -11 -26 -88 -263 -94 -290 -2 -11 -13 -54 -25 -95 -30
-114 -95 -420 -106 -500 -1 -14 -5 -36 -8 -50 -3 -14 -8 -50 -12 -80 -3 -30
-7 -66 -10 -80 -12 -56 -28 -298 -28 -415 0 -361 53 -487 227 -536 76 -21 233
-10 319 23 l26 10 -24 54 c-13 30 -24 63 -24 72 0 10 -4 22 -8 28 -9 9 -27 88
-37 159 -4 22 -8 47 -10 55 -20 76 -27 568 -11 735 11 119 20 197 31 265 12
75 13 85 29 170 13 71 59 256 73 295 8 22 16 47 18 55 6 28 65 177 90 226 27
54 30 75 14 106 -14 25 -11 27 42 33 296 31 514 -44 604 -206 27 -49 30 -62
30 -149 -1 -85 -4 -102 -32 -163 -35 -74 -52 -99 -119 -169 -48 -50 -158 -126
-214 -148 -19 -7 -38 -16 -43 -20 -4 -3 -33 -1 -65 6 -114 23 -231 -2 -260
-58 -35 -68 -16 -138 50 -181 l40 -26 49 19 c27 11 49 18 49 16 0 -3 15 0 33
5 59 18 257 14 317 -6 114 -38 185 -151 184 -295 0 -126 -27 -194 -106 -274
-75 -74 -140 -98 -277 -101 -117 -2 -203 15 -289 59 -62 31 -85 28 -113 -17
-79 -130 98 -289 361 -325 59 -8 182 -7 245 2 339 47 555 281 531 577 -12 155
-98 312 -221 404 -56 42 -180 105 -207 105 -28 0 -21 19 10 26 125 31 338 174
422 283 14 18 30 38 35 44 10 13 41 75 44 92 2 6 6 15 11 20 19 24 30 149 19
212 -38 199 -237 360 -534 429 -16 4 -32 8 -35 9 -12 3 -89 15 -135 21 -51 6
-362 13 -367 8z"/>
<path d="M5161 3304 c-59 -17 -117 -60 -152 -111 -17 -24 -28 -43 -25 -43 3 0
1 -12 -4 -26 -11 -27 -14 -88 -7 -114 24 -90 87 -150 210 -199 31 -13 57 -25
57 -26 0 -14 -86 -161 -147 -252 -71 -107 -180 -232 -233 -267 -41 -27 -75
-21 -94 17 -12 26 -15 56 -12 157 3 69 7 136 10 150 34 167 26 341 -19 416
-36 61 -118 93 -225 88 -108 -5 -111 -7 -103 -57 13 -72 7 -277 -13 -437 -8
-65 -37 -112 -116 -186 -93 -88 -150 -104 -165 -46 -12 44 -7 199 12 412 17
185 9 245 -41 295 -39 39 -62 44 -184 41 -105 -4 -172 -14 -165 -26 21 -35 21
-337 -1 -560 -21 -207 0 -334 64 -404 49 -52 115 -75 207 -73 69 2 91 7 149
36 77 38 76 37 170 127 67 65 75 69 80 42 9 -44 21 -77 39 -103 28 -41 75 -85
92 -85 8 0 16 -4 19 -9 8 -12 79 -24 131 -23 71 1 200 59 284 127 41 33 143
137 185 188 21 26 41 46 43 44 2 -3 6 -24 9 -48 6 -52 39 -121 74 -156 56 -58
177 -88 270 -68 42 8 154 56 158 67 2 4 8 8 14 8 30 0 227 188 283 271 16 24
33 46 37 49 12 10 108 174 108 186 0 7 7 25 15 40 18 35 19 84 3 107 -7 9 -29
23 -48 31 l-36 15 -54 -97 c-50 -90 -132 -221 -155 -249 -5 -7 -26 -33 -45
-59 -120 -160 -252 -234 -309 -172 -43 45 -14 155 84 318 54 91 95 178 95 205
0 33 -31 75 -68 91 -43 18 -127 41 -180 49 -38 5 -56 9 -122 22 -19 4 -38 6
-42 5 -11 -3 -10 22 1 33 18 21 44 122 43 168 -1 37 -7 52 -27 72 -39 36 -81
41 -154 19z"/>
<path d="M28 3268 c2 -10 8 -18 13 -18 5 0 9 -6 9 -12 0 -31 119 -151 162
-164 36 -11 120 -10 208 1 30 4 98 8 151 9 l97 1 -13 25 c-30 58 -77 111 -117
132 -40 21 -57 23 -233 25 -104 1 -211 6 -236 11 -42 8 -46 7 -41 -10z"/>
<path d="M1212 2539 c-30 -7 -59 -25 -93 -58 -49 -47 -55 -63 -49 -129 5 -66
76 -162 139 -188 38 -16 108 -17 129 -1 6 5 12 7 12 3 0 -8 78 41 100 63 55
56 84 119 82 183 -2 71 -92 129 -207 134 -38 2 -89 -2 -113 -7z"/>
<path d="M0 2404 c0 -82 143 -321 248 -415 84 -76 162 -105 273 -103 61 1 135
36 176 84 16 18 23 21 24 10 1 -8 2 -24 3 -35 1 -21 -23 -101 -44 -147 -8 -17
-24 -29 -41 -33 -39 -9 -36 -28 9 -62 72 -57 145 -70 200 -37 15 9 47 41 72
71 88 107 140 144 193 136 36 -5 35 7 -10 81 -90 150 -245 346 -273 346 -6 0
-10 3 -10 8 0 4 -15 17 -33 29 -25 17 -48 23 -97 23 -36 1 -76 -1 -90 -4 -28
-6 -111 -24 -150 -31 -14 -3 -38 -8 -55 -11 -119 -24 -275 21 -367 105 l-28
25 0 -40z"/>
<path d="M5441 1798 c-127 -36 -192 -169 -136 -278 30 -59 127 -116 228 -135
l36 -7 -24 -48 c-89 -175 -258 -356 -389 -416 -98 -45 -179 -33 -240 37 l-29
32 28 21 c104 78 203 209 220 292 10 52 6 136 -10 184 -38 116 -176 174 -312
132 -116 -36 -198 -116 -253 -245 -25 -58 -27 -59 -91 -82 -36 -12 -79 -30
-96 -39 -44 -22 -61 -20 -59 7 2 24 -15 87 -34 129 -26 56 -107 65 -194 22
l-55 -27 1 -47 c0 -56 -24 -114 -64 -152 -66 -66 -103 -3 -71 122 26 104 97
209 154 229 27 9 33 8 54 -15 l24 -26 50 17 c72 23 101 49 101 89 0 66 -72
101 -193 94 -179 -11 -352 -136 -434 -313 -23 -52 -27 -73 -27 -150 0 -97 18
-149 66 -191 81 -72 238 -59 333 29 19 17 20 17 24 0 2 -10 -5 -22 -15 -28
-11 -5 -64 -55 -119 -110 -187 -186 -280 -368 -277 -537 1 -65 18 -113 54
-159 26 -32 82 -52 155 -55 66 -3 78 0 137 30 62 33 122 88 160 150 45 72 96
188 111 252 3 10 11 46 20 79 8 33 17 75 20 93 3 17 8 49 11 70 6 34 12 125
13 198 1 28 8 35 78 73 43 23 88 44 100 48 20 4 23 1 23 -23 3 -195 129 -364
315 -422 47 -15 145 -31 160 -27 5 2 33 6 60 9 65 6 204 58 225 85 3 3 17 12
31 20 15 7 62 46 106 86 l80 73 24 -30 c13 -17 46 -40 72 -53 113 -54 259 -7
400 129 97 93 164 183 217 291 43 89 46 119 14 144 -42 33 -56 27 -93 -41 -98
-181 -242 -363 -307 -389 -54 -21 -84 -19 -101 7 -30 46 -8 112 100 306 44 78
50 100 35 134 -15 33 -60 51 -197 80 -62 12 -116 26 -119 29 -3 3 0 15 6 28
35 72 38 140 8 180 -16 21 -69 28 -115 15z m-508 -369 c20 -28 13 -109 -15
-162 -26 -52 -67 -107 -80 -107 -13 0 -2 166 13 210 12 34 47 80 60 80 4 0 14
-9 22 -21z m-909 -701 c-8 -51 -15 -100 -17 -108 -2 -8 -8 -33 -12 -55 -5 -22
-10 -42 -10 -45 -29 -125 -83 -231 -121 -236 -49 -7 -52 114 -5 247 30 88 149
289 171 289 4 0 1 -42 -6 -92z"/>
<path d="M1100 1494 c-109 -43 -449 -162 -480 -169 -8 -2 -27 -8 -42 -14 -16
-6 -28 -9 -28 -6 0 2 -15 -1 -32 -7 -18 -5 -86 -11 -151 -13 -65 -1 -123 -7
-128 -12 -6 -6 31 -27 102 -57 194 -82 296 -111 432 -120 86 -6 235 41 402
126 153 78 271 141 283 150 25 21 -38 67 -140 103 -46 16 -193 29 -218 19z"/>
<path d="M2859 790 c-92 -31 -135 -91 -126 -176 6 -56 22 -87 76 -146 80 -88
209 -74 313 34 50 52 66 88 72 156 3 38 -1 46 -35 81 -65 65 -193 87 -300 51z"/>
<path d="M1555 518 c-16 -6 -50 -26 -74 -45 -25 -18 -55 -36 -68 -39 -13 -4
-23 -10 -23 -15 0 -5 -9 -9 -19 -9 -67 0 6 -43 99 -58 44 -7 137 -7 170 0 71
16 140 76 140 122 0 41 -152 70 -225 44z"/>
</g>
</svg>
